<svg width="248" height="220" viewBox="0 0 248 220" fill="none" xmlns="http://www.w3.org/2000/svg">
<g opacity="0.8">
<path d="M130.279 179.181L73.4215 159.672L1.18262 173.725L60.4942 194.682L130.279 179.181Z" fill="#DBDBDB"/>
<path d="M130.279 179.181L73.4058 159.724C73.5569 159.724 1.16687 173.855 1.20334 173.855V173.605L60.4993 194.614C60.3169 194.666 130.32 179.155 130.258 179.181H130.279ZM130.279 179.181L60.4888 194.75C60.4888 194.75 1.15124 173.845 1.13561 173.85L0.6875 173.689L1.15645 173.6C1.15645 173.6 73.4214 159.615 73.4266 159.61C73.4318 159.605 130.258 179.181 130.279 179.181Z" fill="#DBDBDB"/>
<path d="M62.7554 189.242C59.2592 187.742 55.6535 186.345 52.0321 184.964C48.4108 183.584 44.7374 182.255 41.0535 180.937C37.3697 179.618 33.6285 178.331 29.8457 177.123L24.161 175.294C22.2174 174.72 20.3312 174.1 18.3721 173.579C20.1072 174.34 21.91 175.038 23.6816 175.768L29.0901 177.852C32.701 179.243 36.3849 180.567 40.074 181.88C43.763 183.193 47.4938 184.485 51.2818 185.694C55.0699 186.903 58.8527 188.127 62.7554 189.242Z" fill="#C7C7C7"/>
<path d="M53.3609 181.312C49.2091 179.388 44.9623 177.677 40.6367 176.185C36.2182 174.621 31.7267 173.168 26.9382 171.985C31.0877 173.911 35.3329 175.624 39.6572 177.117C44.1017 178.654 48.5724 180.124 53.3609 181.312Z" fill="#C7C7C7"/>
<path d="M79.8823 186.085C76.386 184.584 72.7855 183.187 69.1642 181.807C65.5429 180.426 61.8695 179.097 58.1804 177.779C54.4914 176.461 50.7606 175.174 46.9725 173.965L41.2878 172.12C39.3599 171.547 37.4633 170.937 35.5042 170.39C37.2393 171.151 39.0421 171.849 40.8085 172.579L46.2222 174.663C49.8331 176.054 53.517 177.372 57.206 178.686C60.8951 179.999 64.6258 181.291 68.4139 182.5C72.202 183.709 75.9848 184.954 79.8823 186.085Z" fill="#C7C7C7"/>
<path d="M82.0761 182.229C76.1256 179.624 69.8782 177.305 63.5578 175.049C57.2374 172.793 50.7868 170.672 44.0652 168.796C50.0156 171.401 56.2631 173.725 62.5834 175.976C68.9038 178.227 75.3649 180.353 82.0761 182.229Z" fill="#C7C7C7"/>
<path d="M74.6409 174.997C71.23 173.327 67.7182 171.872 64.126 170.641C60.362 169.286 56.5244 168.145 52.6316 167.223C56.0436 168.888 59.5552 170.341 63.1465 171.573C66.9114 172.927 70.7488 174.07 74.6409 174.997Z" fill="#C7C7C7"/>
<path d="M235.011 188.132L156.118 167.285L79.9868 198.34L158.484 219.927L235.011 188.132Z" fill="#EBEBEB"/>
<path d="M235.011 188.132C235.011 188.132 155.967 167.327 156.128 167.327L80.0544 198.46V198.215C80.0544 198.215 158.676 219.885 158.494 219.87L235.042 188.132H235.011ZM235.011 188.132C235.011 188.132 158.499 219.99 158.489 220C158.478 220.01 79.9658 198.454 79.9554 198.465L79.5854 198.361L79.9398 198.22C79.9398 198.22 156.128 167.222 156.128 167.217C156.128 167.212 235 188.138 235.026 188.132H235.011Z" fill="#DBDBDB"/>
<path d="M159.593 213.601C154.456 211.939 149.245 210.392 144.029 208.86C138.814 207.328 133.556 205.853 128.299 204.389C123.041 202.925 117.747 201.518 112.422 200.163L104.434 198.137C101.751 197.496 99.0832 196.824 96.3789 196.219C98.9425 197.058 101.548 197.834 104.132 198.642L111.948 200.961C117.159 202.524 122.421 203.967 127.679 205.426C132.936 206.885 138.235 208.302 143.555 209.652C148.875 211.001 154.2 212.367 159.593 213.601Z" fill="#DBDBDB"/>
<path d="M139.371 202.545C133.749 200.523 127.934 198.814 122.077 197.183C116.221 195.552 110.276 194.057 104.158 192.864C109.781 194.885 115.622 196.594 121.452 198.22C127.283 199.846 133.259 201.341 139.371 202.545Z" fill="#DBDBDB"/>
<path d="M167.372 204.754C162.881 203.269 158.322 201.899 153.752 200.544C149.183 199.189 144.576 197.897 139.965 196.61C135.354 195.323 130.711 194.093 126.032 192.921L119.019 191.16C116.653 190.607 114.329 190.024 111.932 189.503C114.173 190.258 116.455 190.946 118.706 191.665L125.548 193.718C130.112 195.083 134.723 196.365 139.335 197.647C143.946 198.929 148.589 200.163 153.268 201.336C157.947 202.508 162.62 203.696 167.372 204.754Z" fill="#DBDBDB"/>
<path d="M171.041 200.268C166.872 198.876 162.678 197.6 158.447 196.344C154.216 195.088 149.959 193.88 145.686 192.697C141.414 191.514 137.12 190.368 132.785 189.284L126.282 187.648C124.089 187.127 121.921 186.606 119.712 186.137C121.796 186.845 123.88 187.486 125.965 188.158L132.295 190.065C136.516 191.337 140.783 192.53 145.056 193.713C149.329 194.896 153.627 196.037 157.962 197.121C162.298 198.204 166.638 199.304 171.041 200.268Z" fill="#DBDBDB"/>
<path d="M190.7 200.179C185.563 198.517 180.352 196.969 175.136 195.437C169.921 193.906 164.663 192.431 159.406 190.967C154.148 189.503 148.855 188.096 143.529 186.741L135.542 184.714C132.858 184.073 130.19 183.401 127.486 182.792C130.05 183.636 132.655 184.412 135.234 185.22L143.05 187.538C148.26 189.101 153.523 190.545 158.781 192.004C164.038 193.463 169.332 194.875 174.657 196.229C179.982 197.584 185.307 198.944 190.7 200.179Z" fill="#DBDBDB"/>
<path d="M191.351 194.864C186.808 193.364 182.191 191.978 177.569 190.613C172.948 189.247 168.284 187.934 163.621 186.632C158.957 185.329 154.242 184.089 149.526 182.896L142.43 181.114C140.038 180.556 137.672 179.962 135.265 179.436C137.532 180.197 139.835 180.89 142.122 181.619L149.047 183.703C153.664 185.084 158.327 186.382 162.996 187.679C167.664 188.977 172.375 190.227 177.09 191.415C181.806 192.603 186.547 193.796 191.351 194.864Z" fill="#DBDBDB"/>
<path d="M206.254 193.468C201.111 191.806 195.906 190.258 190.69 188.726C185.474 187.194 180.217 185.72 174.959 184.256C169.702 182.791 164.408 181.385 159.083 180.03L151.095 178.003C148.406 177.362 145.744 176.69 143.04 176.08C145.603 176.924 148.208 177.701 150.788 178.508L158.603 180.827C163.814 182.39 169.077 183.834 174.334 185.293C179.591 186.752 184.885 188.164 190.211 189.518C195.536 190.873 200.856 192.233 206.254 193.468Z" fill="#DBDBDB"/>
<path d="M188.178 183.005C182.197 180.885 176.027 179.077 169.806 177.347C163.585 175.617 157.301 174.027 150.819 172.725C156.795 174.851 162.97 176.659 169.186 178.384C175.402 180.108 181.707 181.697 188.178 183.005Z" fill="#DBDBDB"/>
<path d="M162.792 110.896H10.6135V130.827H162.792V110.896Z" fill="#C7C7C7"/>
<path d="M40.8084 110.896H26.6045V130.827H40.8084V110.896Z" fill="#DBDBDB"/>
<path d="M64.2872 110.896H59.0142V130.827H64.2872V110.896Z" fill="#DBDBDB"/>
<path d="M145.832 110.896H131.628V130.827H145.832V110.896Z" fill="#DBDBDB"/>
<path d="M223.509 138.555L157.184 0L139.207 8.60533L205.532 147.161L223.509 138.555Z" fill="#C7C7C7"/>
<path d="M170.344 27.4932L164.153 14.5593L146.176 23.1647L152.367 36.0985L170.344 27.4932Z" fill="#DBDBDB"/>
<path d="M180.576 48.8654L178.279 44.0669L160.302 52.6722L162.599 57.4707L180.576 48.8654Z" fill="#DBDBDB"/>
<path d="M216.114 123.122L209.922 110.188L191.946 118.794L198.137 131.727L216.114 123.122Z" fill="#DBDBDB"/>
<path d="M150.6 98.011H20.696V110.897H150.6V98.011Z" fill="#DBDBDB"/>
<path d="M82.8733 100.642H32.9094V108.375H82.8733V100.642Z" fill="#EBEBEB"/>
<path d="M150.303 48.7035H33.6648V75.7045H150.303V48.7035Z" fill="#C7C7C7"/>
<path d="M137.938 48.7035H127.069V75.7045H137.938V48.7035Z" fill="#DBDBDB"/>
<path d="M119.931 48.7035H115.715V75.7045H119.931V48.7035Z" fill="#DBDBDB"/>
<path d="M166.445 130.822H15.8552V147.162H166.445V130.822Z" fill="#A6A6A6"/>
<path d="M150.48 130.822H136.443V147.162H150.48V130.822Z" fill="#C7C7C7"/>
<path d="M60.9317 130.822H46.8945V147.162H60.9317V130.822Z" fill="#C7C7C7"/>
<path d="M75.985 130.822H70.5452V147.162H75.985V130.822Z" fill="#C7C7C7"/>
<path d="M94.1905 75.7046H10.8167V98.0109H94.1905V75.7046Z" fill="#A6A6A6"/>
<path d="M171.259 75.7046H94.1904V98.0109H171.259V75.7046Z" fill="#A6A6A6"/>
<path d="M94.1905 78.0181H10.8167V95.6922H94.1905V78.0181Z" fill="white"/>
<path d="M94.1905 95.6976C94.0758 95.5829 10.577 96.031 10.702 95.6976V78.0182V77.8879H10.8323C10.8323 77.8879 94.2322 77.9765 94.2478 77.9713C94.2634 77.9661 94.1957 95.6507 94.2061 95.6871L94.1905 95.6976ZM94.1905 95.6976L94.1227 78.0182C94.3781 78.1485 10.7542 78.1068 10.7958 78.1485L10.9261 78.0182V95.6976C10.1758 95.3901 94.3624 95.7913 94.1853 95.6976H94.1905Z" fill="#263238"/>
<path d="M18.0488 81.655C26.7817 81.5334 35.518 81.4483 44.2578 81.3997L56.1066 81.3215L82.3156 81.3997C91.0485 81.4414 85.4419 81.5352 94.1696 81.655C85.4315 81.7801 91.0432 81.8686 82.3156 81.9155L56.1066 81.9937L44.2578 81.9155C35.5319 81.8704 26.7956 81.7835 18.0488 81.655Z" fill="#DBDBDB"/>
<path d="M18.0488 85.1252C26.7817 85.0001 35.518 84.9133 44.2578 84.8647L56.1066 84.7865L82.3156 84.8647C91.0485 84.9116 85.4419 85.0001 94.1696 85.1252C85.4315 85.2502 91.0432 85.3388 82.3156 85.3857L56.1066 85.4587L44.2578 85.3805C35.5319 85.3388 26.7956 85.2537 18.0488 85.1252Z" fill="#DBDBDB"/>
<path d="M18.0488 88.5903C26.7817 88.4722 35.518 88.3871 44.2578 88.335L56.1066 88.2568L82.3156 88.335C91.0485 88.3767 85.4419 88.4705 94.1696 88.5903C85.4315 88.7154 91.0432 88.8039 82.3156 88.8508L56.1066 88.929L44.2578 88.8508C35.5319 88.8057 26.7956 88.7188 18.0488 88.5903Z" fill="#DBDBDB"/>
<path d="M18.0488 92.0604C26.7817 91.9353 35.518 91.8502 44.2578 91.8051L56.1066 91.7217L82.3156 91.7998C91.0485 91.8467 85.4419 91.9353 94.1696 92.0604C85.4315 92.1854 91.0432 92.274 82.3156 92.3209L56.1066 92.3938L44.2787 92.2948C35.5389 92.2671 26.7956 92.1889 18.0488 92.0604Z" fill="#DBDBDB"/>
<path d="M122.114 75.7046H111.266V98.0109H122.114V75.7046Z" fill="#EBEBEB"/>
<path d="M167.274 75.7046H159.979V98.0109H167.274V75.7046Z" fill="#EBEBEB"/>
<path d="M69.008 48.7245L142.946 48.7245V24.5841L69.008 24.5841V48.7245Z" fill="#DBDBDB"/>
<path d="M12.8697 48.7245L69.0081 48.7245V24.5841L12.8697 24.5841V48.7245Z" fill="#DBDBDB"/>
<path d="M69.008 46.2181L142.946 46.2181V27.0903L69.008 27.0903V46.2181Z" fill="white"/>
<path d="M69.008 27.0903L143.055 26.9808C143.055 27.059 143.055 46.1244 143.055 46.2181V46.3484H142.925C142.925 46.3484 68.9351 46.265 68.9351 46.2702C68.9351 46.2755 69.0028 27.1424 68.9872 27.0903H69.008ZM69.008 27.0903L69.0601 46.2181C68.7423 46.0722 143.013 46.14 142.946 46.0879L142.815 46.2181C142.867 46.3015 142.669 26.5692 142.946 27.2049L69.008 27.0903Z" fill="#263238"/>
<path d="M138.162 42.2739C132.4 42.3711 126.637 42.4389 120.874 42.4771L103.585 42.5396L86.3071 42.4875C80.5443 42.4528 74.7814 42.385 69.0186 42.2843C74.7814 42.187 80.5443 42.1193 86.3071 42.0811L103.596 42.0186L120.884 42.0811C126.64 42.1193 132.4 42.1836 138.162 42.2739Z" fill="#DBDBDB"/>
<path d="M138.162 38.5327C132.4 38.6265 126.637 38.6942 120.874 38.7359L103.585 38.7984L86.3071 38.7359C80.5443 38.7012 74.7814 38.6334 69.0186 38.5327C74.7814 38.4354 80.5443 38.3677 86.3071 38.3295L103.596 38.267L120.884 38.3295C126.64 38.3677 132.4 38.4354 138.162 38.5327Z" fill="#DBDBDB"/>
<path d="M138.162 34.7811C132.4 34.8749 126.637 34.9409 120.874 34.9791L103.585 35.0416L86.3071 34.9791C80.5443 34.9409 74.7814 34.8731 69.0186 34.7759C74.7814 34.6786 80.5443 34.6091 86.3071 34.5674L103.596 34.5101L120.884 34.5727C126.64 34.6074 132.4 34.6769 138.162 34.7811Z" fill="#DBDBDB"/>
<path d="M138.162 31.0242C132.4 31.1215 126.637 31.1892 120.874 31.2274L103.585 31.2899L86.3071 31.2274C80.5443 31.1961 74.7814 31.1284 69.0186 31.0242C74.7814 30.9304 80.5443 30.8627 86.3071 30.821L103.596 30.7637L120.884 30.821C126.64 30.8592 132.4 30.9269 138.162 31.0242Z" fill="#DBDBDB"/>
<path d="M32.3207 24.584H21.811V48.7244H32.3207V24.584Z" fill="#C7C7C7"/>
<path d="M10.3948 147.162C78.7258 146.844 155.373 146.839 223.704 147.162C155.373 147.485 78.7258 147.48 10.3948 147.162Z" fill="#263238"/>
<path d="M235.578 177.248L117.638 155.337L3.83984 187.976L121.186 210.668L235.578 177.248Z" fill="white"/>
<path d="M235.579 177.227C235.579 177.227 117.529 155.395 117.659 155.4L3.87646 188.101V187.851C3.87646 187.851 121.306 210.616 121.176 210.605L235.589 177.258L235.579 177.227ZM235.579 177.227L121.187 210.736C121.187 210.736 3.82436 188.101 3.81915 188.101L3.2981 188.002L3.81915 187.851L117.654 155.27C117.654 155.27 235.558 177.253 235.579 177.227Z" fill="#263238"/>
<path d="M122.843 204.019C115.158 202.274 107.373 200.643 99.5732 199.033C91.773 197.423 83.9416 195.875 76.058 194.343C68.1745 192.812 60.2857 191.327 52.3292 189.899L40.3867 187.768C36.3746 187.101 32.3885 186.392 28.3503 185.751C32.1801 186.637 36.0724 187.45 39.9334 188.304L51.6102 190.738C59.426 192.363 67.2418 193.901 75.1306 195.427C83.0193 196.954 90.9028 198.444 98.8593 199.872C106.816 201.299 114.772 202.722 122.843 204.019Z" fill="#DBDBDB"/>
<path d="M92.6118 192.4C84.2228 190.253 75.516 188.481 66.7571 186.767C57.9982 185.053 49.1142 183.485 39.9697 182.218C48.3795 184.349 57.0655 186.142 65.8244 187.856C74.5833 189.57 83.4725 191.134 92.6118 192.4Z" fill="#DBDBDB"/>
<path d="M134.468 194.719C127.752 193.155 120.921 191.717 114.106 190.295C107.29 188.872 100.391 187.512 93.4979 186.163C86.6043 184.813 79.6639 183.516 72.6557 182.281L62.1669 180.431C58.6394 179.853 55.1379 179.238 51.5791 178.691C54.9295 179.483 58.3528 180.207 61.7136 180.963L71.9419 183.12C78.7625 184.553 85.656 185.902 92.5495 187.252C99.4431 188.601 106.384 189.894 113.392 191.128C120.4 192.363 127.366 193.609 134.468 194.719Z" fill="#DBDBDB"/>
<path d="M139.976 190.003C133.775 188.544 127.471 187.2 121.15 185.876C114.83 184.553 108.457 183.271 102.074 182.041C95.6915 180.811 89.2617 179.592 82.7955 178.456L73.0726 176.752C69.8004 176.231 66.5542 175.658 63.2507 175.189C66.3458 175.929 69.5034 176.601 72.6297 177.31L82.0451 179.311C88.3551 180.645 94.738 181.916 101.121 183.146C107.504 184.376 113.934 185.59 120.4 186.731C126.866 187.872 133.369 188.992 139.976 190.003Z" fill="#DBDBDB"/>
<path d="M169.337 189.914C161.657 188.164 153.872 186.538 146.072 184.928C138.272 183.318 130.44 181.77 122.557 180.239C114.673 178.707 106.785 177.227 98.8125 175.789L86.8699 173.658C82.8578 172.985 78.8717 172.277 74.8284 171.641C78.6633 172.527 82.5556 173.34 86.4114 174.189L98.0934 176.628C105.883 178.248 113.725 179.785 121.614 181.317C129.503 182.849 137.386 184.334 145.343 185.756C153.299 187.179 161.271 188.617 169.337 189.914Z" fill="#DBDBDB"/>
<path d="M170.311 184.329C163.538 182.766 156.623 181.296 149.709 179.858C142.794 178.42 135.833 177.039 128.867 175.69C121.9 174.34 114.871 173.017 107.801 171.761L97.1919 169.885C93.6174 169.302 90.0795 168.681 86.479 168.129C89.8711 168.926 93.3152 169.656 96.7333 170.422L107.081 172.6C113.985 174.054 120.962 175.419 127.924 176.768C134.885 178.118 141.919 179.446 148.99 180.697C156.061 181.947 163.136 183.198 170.311 184.329Z" fill="#DBDBDB"/>
<path d="M192.602 182.859C184.922 181.114 177.137 179.483 169.337 177.873C161.537 176.263 153.706 174.715 145.822 173.183C137.938 171.651 130.05 170.166 122.093 168.739L110.151 166.608C106.139 165.936 102.153 165.227 98.1091 164.591C101.944 165.477 105.836 166.29 109.692 167.144L121.374 169.578C129.19 171.198 137.006 172.735 144.895 174.267C152.783 175.799 160.667 177.284 168.623 178.707C176.58 180.129 184.521 181.562 192.602 182.859Z" fill="#DBDBDB"/>
<path d="M165.57 171.86C156.628 169.63 147.401 167.733 138.11 165.915C128.82 164.096 119.399 162.429 109.718 161.058C118.659 163.289 127.882 165.19 137.178 167.004C146.473 168.817 155.894 170.49 165.57 171.86Z" fill="#DBDBDB"/>
<path d="M101.418 171.334C110.395 171.334 128.919 172.376 144.144 170.495C160.198 168.509 180.352 158.698 187.803 156.562C197.87 153.675 188.548 78.1952 178.221 75.2304C146.082 66.0026 102.085 72.5835 87.3753 84.3332C72.6659 96.083 82.3211 171.313 101.418 171.334Z" fill="#D2D2D1"/>
<path d="M71.8637 142.316C66.5646 147.006 64.5065 158.057 65.856 161.022C68.1695 166.113 77.142 171.87 85.9843 173.829C90.9604 174.934 118.337 166.967 123.359 164.221C137.162 156.671 131.509 146.776 125.277 145.984C120.447 145.375 113.235 146.672 102.231 148.59C94.6651 149.913 87.7298 148.626 86.0781 148.11C82.066 146.844 85.1298 153.045 85.1298 153.045L95.3528 145.62L93.4927 135.026C93.4927 135.026 77.9705 136.913 71.8637 142.316Z" fill="#D2D2D1"/>
<path d="M101.418 171.334C108.264 169.249 115.158 167.165 121.645 164.107C127.601 161.319 134.046 155.483 128.778 148.913C124.98 143.739 104.601 150.059 98.1195 149.585C94.5078 149.458 90.9092 149.082 87.3494 148.459C92.7266 148.637 98.0831 149.012 103.372 147.829C109.578 146.735 125.704 142.04 130.206 147.339C132.952 150.59 133.734 155.155 131.217 158.802C126.835 165.055 118.899 166.983 112 169.015C108.499 169.922 104.982 170.729 101.423 171.323L101.418 171.334Z" fill="#263238"/>
<path d="M68.4976 122.834C62.2814 126.945 56.8937 135.381 57.9306 141.18C58.9675 146.98 69.8054 154.009 78.5696 157.781C81.1748 158.907 114.522 156.588 120.181 154.467C135.693 148.631 132.019 137.924 126.876 133.766C123.828 131.301 110.995 133.495 99.2346 133.88C91.1478 134.146 84.124 131.796 82.4827 130.999C78.4862 129.087 80.7684 136.001 80.7684 136.001L92.5234 129.774L92.1482 118.452C92.1482 118.452 75.6777 118.087 68.4976 122.834Z" fill="#D2D2D1"/>
<path d="M66.6948 151.21C70.6653 153.43 74.6565 155.963 78.9813 157.333C82.9673 157.807 87.0368 157.296 91.0385 157.093C99.6567 156.39 108.384 155.639 116.888 154.196C121.005 153.516 124.82 151.605 127.83 148.715C128.488 148.016 128.975 147.174 129.253 146.255C129.618 145.302 129.877 144.311 130.024 143.301C130.68 139.362 128.679 134.964 124.813 133.557C122.828 132.968 120.613 132.906 118.519 132.869C114.168 132.875 109.821 133.099 105.493 133.542C109.789 132.67 114.142 132.103 118.519 131.843C121.041 131.786 123.646 131.629 126.079 132.546C130.206 134.375 132.473 139.159 131.811 143.53C131.585 145.252 131.099 146.93 130.368 148.506C129.471 150.184 128.033 151.242 126.595 152.31C124.739 153.639 122.699 154.692 120.541 155.436C117.326 156.478 114.001 156.744 110.703 157.187C104.19 157.958 97.6541 158.479 91.0958 158.75C86.9742 158.823 82.7589 159.146 78.6947 158.406C74.2762 156.734 70.4881 153.925 66.6636 151.247L66.6948 151.21Z" fill="#263238"/>
<path d="M64.449 95.0513C57.7118 98.2454 53.0588 113.455 53.262 119.338C53.4652 125.22 68.7269 137.689 82.5244 138.851C88.4227 139.346 108.322 139.205 114.1 137.486C130.399 132.635 129.763 121.333 125.256 116.477C122.588 113.611 108.291 114.659 96.5981 113.351C88.5582 112.47 81.9252 109.13 80.4454 108.14C76.7563 105.686 78.0381 112.83 78.0381 112.83L90.5434 108.323L91.7731 97.0626C91.7731 97.0626 72.2388 91.3675 64.449 95.0513Z" fill="#D2D2D1"/>
<path d="M61.7134 130.066C67.7993 133.714 74.375 137.048 81.4874 137.882C92.8099 139.018 115.913 138.867 124.302 130.587C126.517 128.242 128.085 124.939 127.304 121.703C126.444 117.884 122.614 115.112 118.769 114.784C114.522 114.487 110.161 114.528 105.878 114.263C97.2961 113.742 88.2402 113.002 80.5912 108.687C78.0187 107.383 75.5223 105.934 73.114 104.347C75.6203 105.764 78.2256 106.989 80.836 108.192C83.403 109.447 86.1159 110.378 88.9124 110.964C97.3326 112.767 105.993 112.626 114.574 112.752C117.523 112.798 120.723 112.689 123.432 114.127C127.736 116.118 130.56 121.26 129.252 125.997C127.267 133.813 118.831 137.017 111.703 138.455C103.132 140.154 94.3366 140.331 85.6506 139.586C82.7587 139.294 79.8252 138.997 77.0376 138.111C71.5423 136.242 66.3722 133.528 61.7134 130.066Z" fill="#263238"/>
<path d="M172.802 70.3483C176.424 71.6717 247.313 61.4382 247.313 61.4382V165.493L172.026 162.517L172.802 70.3483Z" fill="#D2D2D1"/>
<path d="M118.399 32.6446C118.399 32.6446 123.849 15.3352 111.745 12.5736C99.6411 9.81206 97.0566 27.778 97.0566 27.778L118.399 32.6446Z" fill="#9E9E9E"/>
<path d="M91.111 147.146V147.177L79.5905 160.694L74.2758 159.511L69.7478 142.316L97.2073 27.0693L118.571 31.9412L91.111 147.146Z" fill="#9E9E9E"/>
<path d="M94.4462 30.956L119.37 36.6368L120.498 31.6887L95.574 26.0079L94.4462 30.956Z" fill="#9E9E9E"/>
<path opacity="0.2" d="M94.4462 30.956L119.37 36.6368L120.498 31.6887L95.574 26.0079L94.4462 30.956Z" fill="black"/>
<path d="M93.1964 36.4238L118.12 42.1046L119.248 37.1565L94.3243 31.4756L93.1964 36.4238Z" fill="#9E9E9E"/>
<path opacity="0.2" d="M93.1964 36.4238L118.12 42.1046L119.248 37.1565L94.3243 31.4756L93.1964 36.4238Z" fill="black"/>
<path d="M118.128 42.0966L110.083 40.2625L106.837 75.2199L109.838 75.7254L118.128 42.0966Z" fill="#9E9E9E"/>
<path opacity="0.2" d="M118.128 42.0966L110.083 40.2625L106.837 75.2199L109.838 75.7254L118.128 42.0966Z" fill="black"/>
<path d="M75.0005 159.636L75.5528 161.751C75.5944 161.916 75.6807 162.067 75.802 162.186C75.9234 162.305 76.0753 162.389 76.241 162.428C76.4067 162.466 76.5799 162.459 76.7416 162.406C76.9032 162.353 77.0472 162.256 77.1577 162.127L78.5958 160.454L75.0005 159.636Z" fill="#9E9E9E"/>
<path opacity="0.5" d="M75.0005 159.636L75.5528 161.751C75.5944 161.916 75.6807 162.067 75.802 162.186C75.9234 162.305 76.0753 162.389 76.241 162.428C76.4067 162.466 76.5799 162.459 76.7416 162.406C76.9032 162.353 77.0472 162.256 77.1577 162.127L78.5958 160.454L75.0005 159.636Z" fill="black"/>
<path opacity="0.2" d="M70.8215 142.504C77.3213 143.283 83.7162 144.772 89.8921 146.943C83.3918 146.166 76.9966 144.678 70.8215 142.504Z" fill="black"/>
<path d="M88.3549 64.6375C88.3549 64.6375 79.9399 64.9449 74.2865 66.5549C68.7477 68.1181 55.4296 72.6617 53.1317 76.7207C50.8339 80.7797 47.7649 93.0192 50.7505 96.651C53.1838 99.6158 72.6347 113.179 82.4462 113.127C92.4608 113.069 95.707 106.535 93.331 98.3392C91.5438 92.1751 76.9282 85.9746 76.9282 85.9746L83.6186 91.2998L82.7015 88.6476L88.3549 64.6375Z" fill="#D2D2D1"/>
<path d="M72.0512 82.7909C79.867 86.1517 91.127 91.4612 94.3314 99.9023C95.5872 103.029 95.3735 106.838 93.3466 109.615C89.866 114.533 85.1088 114.549 79.7993 113.142C75.1723 111.913 70.8111 109.849 66.6374 107.577C63.8639 106.062 61.1763 104.393 58.5872 102.581C61.3592 104.081 64.1624 105.519 67.0074 106.848C72.4576 109.286 83.2382 114.351 88.8552 111.626C91.3354 110.177 93.3466 107.656 93.5759 104.717C94.2637 94.3635 79.8566 87.0896 72.0408 82.7909H72.0512Z" fill="#263238"/>
<path d="M76.0005 82.7909C78.9549 83.7444 81.9092 85.8339 83.0816 88.7882C80.7994 86.777 78.1837 84.9533 76.0005 82.7909Z" fill="#263238"/>
<path d="M179.362 75.8504C179.362 75.8504 165.919 63.4649 151.267 56.7329C131.389 47.6041 120.853 43.4304 112.469 52.9814C98.3749 69.0454 79.4606 74.3185 81.6647 80.6493C83.4623 85.8129 88.0997 90.5493 95.6654 91.2163C106.529 92.1646 117.029 83.7548 123.99 77.3458C123.99 77.3458 146.088 101.705 162.214 91.8676C172.333 85.6983 179.362 75.8504 179.362 75.8504Z" fill="#D2D2D1"/>
<path d="M91.1322 70.3481C88.183 72.5887 84.8795 74.4801 82.7953 77.5022C82.4222 78.0216 82.1954 78.6316 82.1388 79.2686C82.2173 79.9165 82.393 80.5488 82.6598 81.1444C84.1599 84.3745 86.7527 86.9709 89.9806 88.4756C90.6199 88.7709 91.2738 89.0335 91.9398 89.2624C92.6119 89.4708 93.3049 89.6115 93.9875 89.7834L96.0717 90.0492H98.2081C99.2834 89.9982 100.355 89.8869 101.418 89.7157L103.549 89.3041C104.583 89.0273 105.596 88.6791 106.581 88.262C114.71 84.6667 121.692 78.9299 128.492 73.1514C122.229 80.3107 114.267 87.6054 105.216 90.9506C100.006 92.5138 94.123 92.8056 89.1313 90.2368C85.5438 88.4569 82.7453 85.4078 81.279 81.6811C80.0962 78.8622 81.3155 76.9343 83.431 75.1158C85.7966 73.1254 88.4852 71.755 91.1322 70.3481Z" fill="#263238"/>
<path d="M123.99 77.346C124.698 86.3707 127.012 95.8122 133.291 102.565C135.733 104.95 138.345 107.154 141.106 109.162C145.752 112.586 150.627 115.688 155.696 118.447C151.181 117.132 146.868 115.204 142.878 112.715C138.826 110.264 135.106 107.301 131.811 103.899C125.47 96.7344 123.37 86.6625 123.953 77.3252L123.99 77.346Z" fill="#263238"/>
</g>
</svg>
