<svg width="406" height="220" viewBox="0 0 406 220" fill="none" xmlns="http://www.w3.org/2000/svg">
<g opacity="0.4">
<path d="M405.135 176.065C405.135 176.15 314.631 176.218 203.008 176.218C91.3864 176.218 0.865479 176.15 0.865479 176.065C0.865479 175.981 91.3469 175.902 203.003 175.902C314.659 175.902 405.135 175.986 405.135 176.065Z" fill="#7E7E7E"/>
<path d="M294.048 0.338501H117.475V102.493H294.048V0.338501Z" fill="#7E7E7E"/>
<path d="M294.381 102.826H117.137V0H294.381V102.826ZM117.785 102.155H293.71V0.6714H117.808L117.785 102.155Z" fill="#7E7E7E"/>
<path d="M121.918 98.4961V3.67552H292.026V98.4961H121.918Z" fill="#F4F4F4" stroke="black" stroke-width="0.975591"/>
<path d="M292.858 99.3224H121.097V2.84357H292.858V99.3224ZM121.774 98.651H292.164V3.52626H121.774V98.651Z" fill="#7E7E7E"/>
<path d="M298.72 97.9007H114.09V102.493H298.72V97.9007Z" fill="#7E7E7E"/>
<path d="M299.064 102.826H113.757V97.5678H299.064V102.826ZM114.44 102.155H298.37V98.2392H114.44V102.155Z" fill="#7E7E7E"/>
<path d="M245.166 59.9072C245.16 59.8604 245.16 59.813 245.166 59.7661C245.166 59.6646 245.166 59.5292 245.166 59.3543C245.166 58.9875 245.166 58.4572 245.166 57.7689C245.166 56.3809 245.166 54.3836 245.132 51.7939C245.132 46.654 245.098 39.3307 245.07 30.546L245.194 30.6701H215.855L215.996 30.5291C215.996 41.2828 215.996 51.3539 215.996 59.8677L215.878 59.7492L237.126 59.8113L243.101 59.8395H244.686H244.714H243.152H237.199L215.878 59.9015H215.76V59.7831C215.76 51.2467 215.76 41.1643 215.76 30.4445V30.3091H215.906H245.245H245.363V30.4275C245.363 39.2404 245.318 46.592 245.301 51.7488C245.301 54.3046 245.301 56.3189 245.273 57.7012C245.273 58.3782 245.273 58.8973 245.273 59.264C245.273 59.4333 245.273 59.563 245.273 59.6589C245.248 59.746 245.212 59.8294 245.166 59.9072Z" fill="white"/>
<path d="M245.166 59.9072L245.392 59.7492L246.063 59.3148L248.664 57.6786L258.222 51.7262L258.171 51.8165C258.171 44.1546 258.171 34.0046 258.137 22.8954L258.278 23.0365H258.193L229.255 23.0026H229.306L219.455 28.5544L216.758 30.0608L216.053 30.4445C215.889 30.5291 215.805 30.5629 215.805 30.5629L216.036 30.4163L216.724 30.0044L219.393 28.4528L229.205 22.8108L258.143 22.7769H258.368V22.918C258.368 34.0272 258.368 44.1772 258.334 51.8391V51.8955L258.289 51.9293L248.698 57.8027L246.069 59.3938L245.375 59.8C245.25 59.8677 245.166 59.9072 245.166 59.9072Z" fill="white"/>
<path d="M258.278 22.8953C258.317 22.963 255.411 24.729 251.789 26.8448C248.167 28.9605 245.205 30.6193 245.165 30.5516C245.126 30.4839 248.026 28.7179 251.648 26.6022C255.27 24.4864 258.238 22.8276 258.278 22.8953Z" fill="white"/>
<path d="M217.198 58.6998C217.238 58.7675 216.956 58.9988 216.572 59.2245C216.188 59.4502 215.844 59.5687 215.805 59.501C215.765 59.4332 216.047 59.2019 216.431 58.9819C216.815 58.7618 217.159 58.6321 217.198 58.6998Z" fill="white"/>
<path d="M219.985 57.1031C220.019 57.1708 219.743 57.4021 219.359 57.6222C218.975 57.8422 218.631 57.9663 218.592 57.9043C218.552 57.8422 218.834 57.5996 219.218 57.3796C219.602 57.1595 219.946 57.0354 219.985 57.1031Z" fill="white"/>
<path d="M222.767 55.5007C222.806 55.5684 222.524 55.8054 222.141 56.0254C221.757 56.2454 221.413 56.3696 221.379 56.3019C221.345 56.2342 221.622 56.0028 222.005 55.7828C222.389 55.5628 222.733 55.4386 222.767 55.5007Z" fill="white"/>
<path d="M225.554 53.9041C225.594 53.9718 225.312 54.2031 224.928 54.4231C224.544 54.6432 224.2 54.7729 224.161 54.7052C224.121 54.6375 224.403 54.4062 224.787 54.1805C225.171 53.9548 225.515 53.8364 225.554 53.9041Z" fill="white"/>
<path d="M228.341 52.3073C228.381 52.3694 228.099 52.6064 227.715 52.8264C227.331 53.0464 226.987 53.1706 226.948 53.1029C226.908 53.0352 227.19 52.8038 227.574 52.5838C227.957 52.3638 228.302 52.2396 228.341 52.3073Z" fill="white"/>
<path d="M229.046 49.5201C229.125 49.5201 229.182 49.8812 229.182 50.3213C229.182 50.7614 229.108 51.1281 229.035 51.1225C228.962 51.1168 228.9 50.767 228.9 50.3213C228.9 49.8756 228.967 49.5201 229.046 49.5201Z" fill="white"/>
<path d="M229.103 46.276C229.176 46.276 229.238 46.6371 229.232 47.0828C229.227 47.5285 229.165 47.884 229.086 47.884C229.007 47.884 228.95 47.5229 228.956 47.0828C228.962 46.6427 228.995 46.276 229.103 46.276Z" fill="white"/>
<path d="M229.103 43.0657C229.182 43.0657 229.238 43.4268 229.238 43.8725C229.238 44.3182 229.165 44.6737 229.091 44.6737C229.018 44.6737 228.956 44.3126 228.956 43.8668C228.956 43.4211 229.018 43.0657 229.103 43.0657Z" fill="white"/>
<path d="M229.103 39.8554C229.182 39.8554 229.244 40.2165 229.238 40.6565C229.232 41.0966 229.17 41.4634 229.091 41.4634C229.012 41.4634 228.956 41.1023 228.962 40.6565C228.967 40.2108 229.046 39.8554 229.103 39.8554Z" fill="white"/>
<path d="M229.148 36.645C229.227 36.645 229.283 37.0061 229.283 37.4462C229.283 37.8863 229.21 38.2474 229.137 38.2474C229.063 38.2474 228.996 37.8863 229.001 37.4462C229.007 37.0061 229.069 36.6394 229.148 36.645Z" fill="white"/>
<path d="M229.17 33.429C229.249 33.429 229.311 33.7901 229.306 34.2359C229.3 34.6816 229.238 35.037 229.159 35.037C229.08 35.037 229.024 34.6759 229.029 34.2302C229.035 33.7845 229.103 33.429 229.17 33.429Z" fill="white"/>
<path d="M229.199 30.2188C229.278 30.2188 229.334 30.5798 229.329 31.0256C229.323 31.4713 229.261 31.8267 229.187 31.8267C229.114 31.8267 229.046 31.4656 229.052 31.0199C229.058 30.5742 229.103 30.2188 229.199 30.2188Z" fill="white"/>
<path d="M229.221 27.0084C229.3 27.0084 229.362 27.3695 229.357 27.8096C229.351 28.2497 229.289 28.6107 229.21 28.6107C229.131 28.6107 229.075 28.2497 229.08 27.8096C229.086 27.3695 229.148 27.0084 229.221 27.0084Z" fill="white"/>
<path d="M229.25 23.7924C229.323 23.7924 229.385 24.1535 229.379 24.5993C229.374 25.045 229.312 25.4004 229.238 25.4004C229.165 25.4004 229.097 25.0393 229.103 24.5993C229.109 24.1592 229.171 23.7924 229.25 23.7924Z" fill="white"/>
<path d="M256.67 51.8165C256.67 51.7375 257.031 51.6755 257.471 51.6755C257.911 51.6755 258.278 51.7375 258.278 51.8165C258.278 51.8955 257.917 51.9519 257.471 51.9519C257.026 51.9519 256.67 51.8899 256.67 51.8165Z" fill="white"/>
<path d="M253.46 51.8165C253.46 51.7375 253.821 51.6755 254.261 51.6755C254.701 51.6755 255.062 51.7375 255.062 51.8165C255.062 51.8955 254.707 51.9519 254.261 51.9519C253.815 51.9519 253.46 51.8899 253.46 51.8165Z" fill="white"/>
<path d="M250.243 51.8165C250.243 51.7375 250.604 51.6755 251.05 51.6755C251.496 51.6755 251.851 51.7375 251.851 51.8165C251.851 51.8955 251.49 51.9519 251.05 51.9519C250.61 51.9519 250.243 51.8899 250.243 51.8165Z" fill="white"/>
<path d="M247.033 51.8165C247.033 51.7375 247.394 51.6755 247.834 51.6755C248.274 51.6755 248.641 51.7375 248.641 51.8165C248.641 51.8955 248.28 51.9519 247.834 51.9519C247.388 51.9519 247.033 51.8899 247.033 51.8165Z" fill="white"/>
<path d="M243.823 51.8165C243.823 51.7375 244.184 51.6755 244.624 51.6755C245.064 51.6755 245.43 51.7375 245.43 51.8165C245.43 51.8955 245.069 51.9519 244.624 51.9519C244.178 51.9519 243.823 51.8899 243.823 51.8165Z" fill="white"/>
<path d="M240.613 51.8165C240.613 51.7375 240.968 51.6755 241.414 51.6755C241.86 51.6755 242.215 51.7375 242.215 51.8165C242.215 51.8955 241.854 51.9519 241.414 51.9519C240.974 51.9519 240.613 51.8899 240.613 51.8165Z" fill="white"/>
<path d="M237.397 51.8165C237.397 51.7375 237.758 51.6755 238.204 51.6755C238.649 51.6755 239.005 51.7375 239.005 51.8165C239.005 51.8955 238.644 51.9519 238.204 51.9519C237.763 51.9519 237.397 51.8899 237.397 51.8165Z" fill="white"/>
<path d="M234.181 51.8165C234.181 51.7375 234.542 51.6755 234.982 51.6755C235.422 51.6755 235.789 51.7375 235.789 51.8165C235.789 51.8955 235.428 51.9519 234.982 51.9519C234.536 51.9519 234.181 51.8899 234.181 51.8165Z" fill="white"/>
<path d="M230.976 51.8165C230.976 51.7375 231.331 51.6755 231.777 51.6755C232.223 51.6755 232.578 51.7375 232.578 51.8165C232.578 51.8955 232.223 51.9519 231.777 51.9519C231.331 51.9519 230.976 51.8899 230.976 51.8165Z" fill="white"/>
<path d="M229.029 51.8163C229.031 51.7958 229.036 51.7758 229.046 51.7574C229.055 51.7391 229.068 51.7229 229.084 51.7097C229.099 51.6966 229.118 51.6867 229.137 51.6808C229.157 51.675 229.178 51.6731 229.198 51.6755C229.219 51.6713 229.24 51.6717 229.26 51.6768C229.28 51.6818 229.299 51.6912 229.315 51.7044C229.332 51.7176 229.345 51.7343 229.354 51.7531C229.363 51.772 229.367 51.7926 229.367 51.8135C229.367 51.8343 229.363 51.855 229.354 51.8738C229.345 51.8927 229.332 51.9093 229.315 51.9225C229.299 51.9357 229.28 51.9452 229.26 51.9502C229.24 51.9552 229.219 51.9556 229.198 51.9515C229.178 51.9538 229.158 51.9522 229.139 51.9467C229.119 51.9411 229.101 51.9318 229.086 51.9192C229.07 51.9066 229.057 51.8911 229.047 51.8734C229.037 51.8557 229.031 51.8363 229.029 51.8163Z" fill="white"/>
<path d="M261.827 42.0388C262.072 42.0501 262.317 42.0388 262.56 42.005C262.88 41.9379 263.181 41.8022 263.443 41.6074C263.705 41.4126 263.922 41.1632 264.078 40.8766C264.288 40.438 264.389 39.9557 264.375 39.4699C264.36 38.984 264.229 38.5088 263.993 38.0837C263.94 37.9694 263.861 37.8685 263.764 37.7885C263.666 37.7084 263.552 37.6513 263.429 37.6211C263.297 37.6034 263.162 37.6122 263.033 37.6471C262.905 37.682 262.784 37.7422 262.679 37.8242C262.238 38.253 261.917 38.7899 261.748 39.3814C261.513 40.0215 261.372 40.6924 261.33 41.3731H261.059C261.026 39.246 261.014 37.3898 261.014 36.0639C261.014 35.4433 261.014 34.9355 261.014 34.5067C261.004 34.3177 261.017 34.1282 261.054 33.9425C261.089 34.1286 261.108 34.3173 261.11 34.5067C261.11 34.9186 261.15 35.4376 261.178 36.0583C261.223 37.3841 261.274 39.2404 261.319 41.3674H261.048C261.089 40.6605 261.232 39.9632 261.471 39.2968C261.586 38.9851 261.722 38.6816 261.877 38.3884C262.026 38.0874 262.24 37.8233 262.504 37.6155C262.64 37.5116 262.795 37.4365 262.961 37.3948C263.127 37.353 263.3 37.3456 263.469 37.3729C263.628 37.4114 263.778 37.4844 263.906 37.5867C264.035 37.689 264.14 37.8182 264.213 37.9653C264.464 38.4278 264.598 38.9444 264.603 39.4703C264.609 39.9962 264.487 40.5157 264.247 40.9838C264.071 41.2928 263.827 41.558 263.534 41.7593C263.241 41.9606 262.906 42.0928 262.555 42.146C262.367 42.1733 262.177 42.1733 261.99 42.146C261.93 42.1201 261.875 42.0838 261.827 42.0388Z" fill="white"/>
<path d="M247.598 19.5441C247.598 19.5441 247.598 19.5892 247.53 19.6456C247.45 19.7366 247.352 19.8096 247.242 19.86C247.067 19.9482 246.873 19.9909 246.678 19.9841C246.41 19.9708 246.156 19.8628 245.961 19.6795C245.741 19.4464 245.575 19.1669 245.476 18.8614C245.345 18.5236 245.232 18.1789 245.138 17.8289C244.906 17.0045 244.767 16.1566 244.726 15.3013H244.991C245.154 16.4135 245.122 17.5459 244.895 18.647C244.747 19.3111 244.382 19.9069 243.857 20.3396C243.716 20.4388 243.556 20.5089 243.388 20.5457C243.219 20.5825 243.045 20.5853 242.875 20.554C242.715 20.5175 242.565 20.4486 242.433 20.3516C242.301 20.2545 242.19 20.1314 242.108 19.9898C241.911 19.5937 241.795 19.1619 241.768 18.7202C241.741 18.2786 241.804 17.836 241.952 17.419C242.1 17.0019 242.33 16.619 242.629 16.2929C242.929 15.9669 243.29 15.7045 243.693 15.5213C243.865 15.4433 244.045 15.3828 244.229 15.3407C244.359 15.3407 244.427 15.3069 244.427 15.3407C244.427 15.3746 244.167 15.4197 243.744 15.6398C243.147 15.9594 242.66 16.4507 242.345 17.0503C242.137 17.4609 242.02 17.911 242.001 18.3705C241.962 18.8937 242.075 19.417 242.328 19.8769C242.391 19.9899 242.477 20.0888 242.58 20.1674C242.682 20.246 242.8 20.3027 242.926 20.334C243.197 20.3779 243.475 20.313 243.699 20.1534C244.17 19.7502 244.495 19.2029 244.624 18.5962C244.841 17.5266 244.878 16.428 244.731 15.3464H244.991C245.021 16.1845 245.142 17.0169 245.352 17.8289C245.442 18.1956 245.549 18.5398 245.657 18.8501C245.739 19.1348 245.881 19.3984 246.074 19.6231C246.221 19.7646 246.406 19.8603 246.606 19.8983C246.807 19.9364 247.014 19.9153 247.203 19.8375C247.347 19.7574 247.479 19.6588 247.598 19.5441Z" fill="white"/>
<path d="M167.181 28.6728C167.188 28.7253 167.188 28.7783 167.181 28.8308C167.181 28.9436 167.181 29.096 167.232 29.2822C167.266 29.6997 167.317 30.2808 167.385 31.0255C167.497 32.5433 167.678 34.738 167.684 37.4631C167.741 40.6584 167.377 43.8474 166.6 46.9474C166.127 48.7791 165.437 50.548 164.547 52.217C163.572 54.0014 162.34 55.6325 160.891 57.0579C159.429 58.5418 157.912 59.8789 156.642 61.3628C155.423 62.7806 154.438 64.3844 153.725 66.1134C152.563 69.0704 151.926 72.2073 151.841 75.3833C151.728 78.0971 151.841 80.2975 151.914 81.8095C151.948 82.5543 151.976 83.1411 151.993 83.5586C151.993 83.7504 151.993 83.8971 151.993 84.0156C151.999 84.0681 151.999 84.121 151.993 84.1735C151.988 84.121 151.988 84.0681 151.993 84.0156C151.993 83.9027 151.993 83.7504 151.954 83.5642C151.92 83.1467 151.875 82.5599 151.818 81.8152C151.658 79.6733 151.607 77.5247 151.666 75.3776C151.719 72.1737 152.339 69.0045 153.5 66.0175C154.215 64.2612 155.209 62.6321 156.445 61.1935C157.725 59.6927 159.266 58.3443 160.699 56.8717C162.131 55.4626 163.351 53.8528 164.321 52.0929C165.2 50.4416 165.886 48.6941 166.363 46.8853C167.142 43.806 167.522 40.6393 167.492 37.4631C167.492 34.7437 167.356 32.5489 167.272 31.0312C167.234 30.2789 167.2 29.6978 167.17 29.2878C167.17 29.096 167.17 28.9493 167.17 28.8308C167.168 28.7779 167.172 28.7249 167.181 28.6728Z" fill="white"/>
<path d="M161.449 37.4123C161.195 36.978 160.981 36.5209 160.812 36.047C160.451 35.1837 159.965 33.9933 159.446 32.6617L159.362 32.453H159.604C159.051 33.4663 158.621 34.5422 158.324 35.6577C158.098 36.5152 158.019 37.0569 157.979 37.0512C157.962 36.5677 158.019 36.0843 158.149 35.6182C158.396 34.4666 158.808 33.3568 159.373 32.3232L159.508 32.075L159.61 32.3401L159.695 32.5489C160.214 33.8691 160.671 35.0765 160.987 35.9341C161.183 36.4125 161.338 36.9071 161.449 37.4123Z" fill="white"/>
<path d="M158.842 85.9395C158.769 85.9395 158.916 73.9559 159.175 59.1737C159.435 44.3916 159.706 32.4023 159.779 32.4023C159.852 32.4023 159.706 44.3916 159.446 59.1737C159.187 73.9559 158.916 85.9452 158.842 85.9395Z" fill="white"/>
<path d="M170.234 58.2314C170.234 58.3048 166.047 58.3669 160.879 58.3669C155.711 58.3669 151.519 58.3048 151.519 58.2314C151.519 58.1581 155.705 58.1017 160.879 58.1017C166.053 58.1017 170.234 58.1581 170.234 58.2314Z" fill="white"/>
<path d="M168.169 60.2908C168.614 60.0264 169.08 59.7981 169.562 59.6082C170.442 59.2189 171.661 58.6885 173.021 58.1187V58.3726L172.863 58.3218C171.43 57.8422 170.132 57.3965 169.201 57.0636C168.687 56.9054 168.187 56.7054 167.706 56.4655C168.234 56.5633 168.752 56.7029 169.258 56.8831C170.205 57.1708 171.514 57.5883 172.948 58.0679L173.105 58.1187L173.444 58.2315L173.117 58.3669C171.751 58.9311 170.521 59.4333 169.624 59.7831C169.154 59.993 168.667 60.1629 168.169 60.2908Z" fill="white"/>
<path d="M170.285 54.5246C170.285 54.5246 170.256 54.6036 170.16 54.7108L169.856 55.0663L170.081 54.6431C170.444 54.006 170.839 53.3883 171.266 52.7925C171.692 52.1046 172.19 51.4635 172.75 50.8799C172.408 51.6137 171.984 52.3065 171.486 52.9449C170.922 53.7461 170.42 54.4231 170.172 54.7052L170.087 54.6319C170.206 54.5472 170.273 54.5134 170.285 54.5246Z" fill="white"/>
<path d="M173.495 54.1693C172.873 53.7119 172.306 53.1857 171.802 52.6008C171.238 52.077 170.737 51.4901 170.307 50.8517C170.931 51.3064 171.499 51.8329 172 52.4202C172.563 52.9447 173.064 53.5315 173.495 54.1693Z" fill="white"/>
<path d="M156.467 53.4357C156.467 53.4357 156.597 53.3229 156.868 53.385C157.055 53.4346 157.224 53.5379 157.353 53.6823C157.483 53.8267 157.567 54.0057 157.596 54.1974C157.653 54.7474 157.556 55.3025 157.314 55.7998C157.19 56.1125 156.985 56.387 156.721 56.5953C156.575 56.7144 156.403 56.7982 156.219 56.8403C156.035 56.8823 155.844 56.8815 155.661 56.8379C155.481 56.7802 155.317 56.6836 155.179 56.5548C155.042 56.426 154.934 56.2683 154.865 56.0931C154.746 55.7762 154.717 55.4326 154.78 55.1001C154.863 54.5451 155.134 54.0353 155.548 53.6558C155.693 53.5338 155.863 53.4449 156.046 53.3952C156.23 53.3455 156.421 53.3362 156.608 53.368C156.748 53.3831 156.876 53.4495 156.969 53.5542C156.969 53.5542 156.834 53.4978 156.597 53.4752C156.429 53.4623 156.259 53.4847 156.1 53.5411C155.941 53.5974 155.795 53.6865 155.672 53.8025C155.312 54.1719 155.084 54.6499 155.023 55.1622C154.975 55.4487 155.004 55.7427 155.108 56.0141C155.165 56.147 155.25 56.266 155.357 56.3633C155.464 56.4606 155.591 56.5339 155.728 56.5783C155.873 56.612 156.023 56.6122 156.168 56.579C156.313 56.5457 156.448 56.4799 156.563 56.3865C156.793 56.2048 156.974 55.9681 157.088 55.6982C157.32 55.2451 157.431 54.7398 157.41 54.2313C157.391 54.0672 157.329 53.9111 157.23 53.7792C157.13 53.6473 156.998 53.5443 156.845 53.4809C156.614 53.4019 156.473 53.4696 156.467 53.4357Z" fill="white"/>
<path d="M153.877 36.0357C153.815 36.0808 153.426 35.6408 153.003 35.0596C152.712 34.73 152.487 34.3467 152.343 33.9312C152.405 33.8917 152.794 34.3262 153.217 34.9129C153.508 35.2409 153.732 35.6222 153.877 36.0357Z" fill="white"/>
<path d="M152.76 38.7664C152.969 37.8229 153.265 36.9011 153.646 36.0131C153.94 35.0911 154.318 34.1978 154.775 33.3444C154.564 34.2899 154.266 35.2135 153.883 36.1034C153.59 37.0231 153.214 37.9145 152.76 38.7664Z" fill="white"/>
<path d="M182.866 17.2026C182.866 17.2985 172.197 17.3775 159.034 17.3775C145.871 17.3775 135.202 17.2985 135.202 17.2026C135.202 17.1067 145.871 17.0277 159.034 17.0277C172.197 17.0277 182.866 17.1067 182.866 17.2026Z" fill="white"/>
<path d="M182.866 19.9785C182.866 20.0744 172.197 20.1534 159.034 20.1534C145.871 20.1534 135.202 20.0744 135.202 19.9785C135.202 19.8825 145.871 19.8036 159.034 19.8036C172.197 19.8036 182.866 19.8825 182.866 19.9785Z" fill="white"/>
<path d="M151.073 12.2827C151.073 12.3786 147.519 12.4576 143.135 12.4576C138.751 12.4576 135.202 12.3786 135.202 12.2827C135.202 12.1868 138.751 12.1078 143.135 12.1078C147.519 12.1078 151.073 12.1755 151.073 12.2827Z" fill="white"/>
<path d="M264.986 69.3237C264.986 69.4196 258.724 70.5424 250.966 71.8344C243.208 73.1264 236.906 74.0912 236.889 74.001C236.872 73.9107 243.152 72.7823 250.909 71.4902C258.667 70.1982 264.969 69.2278 264.986 69.3237Z" fill="white"/>
<path d="M266.385 72.6525C266.385 72.7484 260.123 73.8712 252.365 75.1632C244.607 76.4552 238.305 77.42 238.26 77.3297C238.215 77.2395 244.522 76.1111 252.28 74.819C260.038 73.527 266.368 72.5509 266.385 72.6525Z" fill="white"/>
<path d="M267.784 75.9701C267.784 76.066 261.522 77.1888 253.764 78.4808C246.006 79.7728 239.704 80.7376 239.687 80.6473C239.67 80.5571 245.95 79.4287 253.707 78.1366C261.465 76.8446 267.767 75.8742 267.784 75.9701Z" fill="white"/>
<path d="M173.297 74.0912V97.5565H213.638L173.297 74.0912ZM179.504 83.536L196.272 93.466H179.487L179.504 83.536Z" fill="#9E9E9E"/>
<path d="M177.196 76.3424C177.035 76.8592 176.789 77.3455 176.468 77.7811C176.222 78.2619 175.896 78.697 175.503 79.0675C175.664 78.5508 175.91 78.0645 176.231 77.6288C176.475 77.1467 176.801 76.7112 177.196 76.3424Z" fill="#7E7E7E"/>
<path d="M183.154 79.784C183.003 80.2903 182.76 80.7646 182.437 81.1832C182.195 81.6514 181.872 82.0734 181.484 82.4301C181.638 81.9248 181.88 81.451 182.2 81.0309C182.446 80.5645 182.768 80.1429 183.154 79.784Z" fill="#7E7E7E"/>
<path d="M189.14 83.2313C188.644 84.1581 187.987 84.9892 187.199 85.6856C187.409 85.201 187.701 84.7563 188.062 84.371C188.598 83.694 189.078 83.1805 189.14 83.2313Z" fill="#7E7E7E"/>
<path d="M195.019 86.8084C194.527 87.7378 193.869 88.5695 193.079 89.2627C193.286 88.7768 193.578 88.3316 193.942 87.9481C194.478 87.2711 194.957 86.7576 195.019 86.8084Z" fill="#7E7E7E"/>
<path d="M201.163 90.3234C200.983 90.8335 200.716 91.3088 200.374 91.7282C200.105 92.1976 199.76 92.619 199.352 92.9751C199.529 92.4632 199.797 91.9874 200.142 91.5702C200.409 91.0995 200.754 90.6778 201.163 90.3234Z" fill="#7E7E7E"/>
<path d="M207.545 94.0302C207.395 94.5159 207.155 94.9693 206.839 95.3674C206.6 95.8144 206.28 96.214 205.897 96.5466C206.047 96.061 206.286 95.6075 206.602 95.2094C206.842 94.7624 207.162 94.3628 207.545 94.0302Z" fill="#7E7E7E"/>
<path d="M179.035 77.4313C179.103 77.4708 178.968 77.8093 178.736 78.1817C178.505 78.5541 178.262 78.8249 178.172 78.7854C178.082 78.7459 178.246 78.4074 178.477 78.035C178.708 77.6626 178.973 77.3862 179.035 77.4313Z" fill="#7E7E7E"/>
<path d="M180.999 78.5203C181.067 78.5654 180.931 78.8983 180.7 79.2763C180.468 79.6543 180.226 79.9195 180.136 79.88C180.045 79.8405 180.203 79.502 180.44 79.1296C180.677 78.7572 180.937 78.4808 180.999 78.5203Z" fill="#7E7E7E"/>
<path d="M185.366 81.1155C185.428 81.155 185.292 81.4936 185.061 81.8659C184.83 82.2383 184.587 82.5148 184.525 82.4696C184.463 82.4245 184.593 82.0973 184.824 81.7192C185.055 81.3412 185.298 81.0478 185.366 81.1155Z" fill="#7E7E7E"/>
<path d="M187.352 82.182C187.419 82.2215 187.284 82.56 187.053 82.9323C186.821 83.3047 186.579 83.5812 186.488 83.536C186.398 83.4909 186.562 83.158 186.793 82.7857C187.024 82.4133 187.261 82.1425 187.352 82.182Z" fill="#7E7E7E"/>
<path d="M191.267 84.6249C191.335 84.6701 191.199 85.003 190.968 85.381C190.737 85.759 190.494 86.0242 190.404 85.9847C190.314 85.9452 190.477 85.6067 190.709 85.2286C190.94 84.8506 191.205 84.5855 191.267 84.6249Z" fill="#7E7E7E"/>
<path d="M193.141 85.7195C193.208 85.7646 193.073 86.0975 192.842 86.4755C192.61 86.8535 192.368 87.1187 192.277 87.0792C192.187 87.0397 192.345 86.7012 192.582 86.3232C192.819 85.9452 193.079 85.68 193.141 85.7195Z" fill="#7E7E7E"/>
<path d="M197.18 88.0553C197.248 88.0948 197.112 88.4333 196.881 88.8057C196.65 89.178 196.407 89.4489 196.317 89.4094C196.227 89.3699 196.385 89.0313 196.616 88.659C196.847 88.2866 197.112 88.0101 197.18 88.0553Z" fill="#7E7E7E"/>
<path d="M199.352 89.3303C199.414 89.3755 199.279 89.7084 199.048 90.0864C198.816 90.4644 198.574 90.7296 198.483 90.6901C198.393 90.6506 198.557 90.3121 198.788 89.9341C199.019 89.556 199.285 89.2909 199.352 89.3303Z" fill="#7E7E7E"/>
<path d="M203.251 91.6154C203.319 91.6549 203.183 91.9935 202.952 92.3658C202.72 92.7382 202.478 93.0147 202.388 92.9695C202.297 92.9244 202.455 92.5915 202.687 92.2191C202.918 91.8468 203.183 91.5759 203.251 91.6154Z" fill="#7E7E7E"/>
<path d="M337.227 150.377H229.554V155.246H337.227V150.377Z" fill="#9E9E9E"/>
<path d="M238.029 155.246H234.502V220H238.029V155.246Z" fill="#7E7E7E"/>
<path d="M326.947 155.246H323.421V220H326.947V155.246Z" fill="#7E7E7E"/>
<path d="M323.426 170.626H237.972V197.33H323.426V170.626Z" fill="#9E9E9E"/>
<path d="M323.426 160.048H238.029V163.828H323.426V160.048Z" fill="#9E9E9E"/>
<path d="M301.8 141.982H259.649C259.116 141.982 258.684 142.414 258.684 142.947V159.083C258.684 159.616 259.116 160.048 259.649 160.048H301.8C302.333 160.048 302.765 159.616 302.765 159.083V142.947C302.765 142.414 302.333 141.982 301.8 141.982Z" fill="#9E9E9E"/>
<path d="M301.8 141.982H259.649C259.116 141.982 258.684 142.414 258.684 142.947V159.083C258.684 159.616 259.116 160.048 259.649 160.048H301.8C302.333 160.048 302.765 159.616 302.765 159.083V142.947C302.765 142.414 302.333 141.982 301.8 141.982Z" fill="#9E9E9E"/>
<g opacity="0.4">
<path d="M301.8 141.982H259.649C259.116 141.982 258.684 142.414 258.684 142.947V159.083C258.684 159.616 259.116 160.048 259.649 160.048H301.8C302.333 160.048 302.765 159.616 302.765 159.083V142.947C302.765 142.414 302.333 141.982 301.8 141.982Z" fill="black"/>
</g>
<path d="M298.635 188.512H262.159C260.79 188.512 259.476 187.968 258.507 187C257.538 186.032 256.993 184.719 256.991 183.349C256.991 182.671 257.125 181.999 257.385 181.372C257.645 180.746 258.025 180.176 258.505 179.697C258.985 179.217 259.555 178.837 260.182 178.578C260.809 178.319 261.481 178.186 262.159 178.187H298.635C300.004 178.187 301.317 178.731 302.286 179.699C303.254 180.667 303.798 181.98 303.798 183.349C303.798 184.718 303.254 186.032 302.286 187C301.317 187.968 300.004 188.512 298.635 188.512Z" fill="#9E9E9E"/>
<g opacity="0.4">
<path d="M298.635 188.512H262.159C260.79 188.512 259.476 187.968 258.507 187C257.538 186.032 256.993 184.719 256.991 183.349C256.991 182.671 257.125 181.999 257.385 181.372C257.645 180.746 258.025 180.176 258.505 179.697C258.985 179.217 259.555 178.837 260.182 178.578C260.809 178.319 261.481 178.186 262.159 178.187H298.635C300.004 178.187 301.317 178.731 302.286 179.699C303.254 180.667 303.798 181.98 303.798 183.349C303.798 184.718 303.254 186.032 302.286 187C301.317 187.968 300.004 188.512 298.635 188.512Z" fill="black"/>
</g>
<path d="M263.971 220H261.2V140.272C261.202 139.905 261.349 139.554 261.609 139.295C261.869 139.035 262.221 138.89 262.588 138.89C262.955 138.89 263.307 139.036 263.566 139.295C263.825 139.554 263.971 139.906 263.971 140.272V220Z" fill="#E0E0E0"/>
<path d="M263.971 220C263.971 220 263.971 219.848 263.971 219.56C263.971 219.272 263.971 218.843 263.971 218.29C263.971 217.162 263.971 215.526 263.971 213.416C263.971 209.19 263.943 203.091 263.926 195.553C263.909 188.015 263.926 179.05 263.88 169.097C263.88 164.121 263.88 158.897 263.88 153.48V145.226C263.88 143.827 263.88 142.418 263.88 141C263.898 140.658 263.887 140.314 263.847 139.973C263.807 139.817 263.736 139.671 263.639 139.542C263.542 139.413 263.421 139.305 263.282 139.223C263.007 139.052 262.675 138.997 262.359 139.067C262.043 139.138 261.767 139.329 261.59 139.601C261.44 139.836 261.369 140.113 261.387 140.391V153.768C261.387 158.411 261.387 162.919 261.387 167.264C261.387 175.947 261.387 183.97 261.387 191.045C261.347 205.184 261.319 215.548 261.308 220L261.268 219.966H263.356H264.038C264.038 219.966 263.835 219.966 263.378 219.966H261.268H261.234V219.927C261.234 215.475 261.195 205.111 261.155 190.972C261.155 183.897 261.155 175.874 261.155 167.19C261.155 162.846 261.155 158.338 261.155 153.695C261.155 151.376 261.155 149.017 261.155 146.637V140.317C261.14 139.984 261.226 139.653 261.404 139.37C261.565 139.118 261.797 138.92 262.07 138.799C262.344 138.678 262.646 138.64 262.941 138.689C263.236 138.739 263.509 138.873 263.729 139.076C263.948 139.279 264.103 139.542 264.174 139.832C264.225 140.195 264.24 140.561 264.219 140.927V153.441C264.219 158.874 264.219 164.11 264.219 169.097C264.219 179.067 264.185 188.043 264.174 195.587C264.163 203.13 264.14 209.201 264.129 213.421C264.129 215.515 264.129 217.139 264.129 218.257C264.129 218.821 264.129 219.216 264.129 219.509C264.129 219.803 263.971 220 263.971 220Z" fill="#7E7E7E"/>
<path d="M300.119 220H297.372V140.272C297.373 139.905 297.52 139.554 297.78 139.295C298.04 139.035 298.392 138.89 298.76 138.89C299.126 138.89 299.478 139.036 299.737 139.295C299.996 139.554 300.142 139.906 300.142 140.272L300.119 220Z" fill="#E0E0E0"/>
<path d="M300.119 220C300.119 220 300.119 219.848 300.119 219.56C300.119 219.272 300.119 218.843 300.119 218.29C300.119 217.162 300.119 215.526 300.119 213.416C300.119 209.19 300.119 203.091 300.074 195.553C300.029 188.015 300.046 179.05 300.029 169.097C300.029 164.121 300.029 158.897 300.029 153.48V145.226C300.029 143.827 300.029 142.405 300.029 141C300.047 140.658 300.035 140.314 299.995 139.973C299.955 139.817 299.885 139.671 299.788 139.542C299.691 139.413 299.57 139.305 299.431 139.223C299.155 139.052 298.824 138.997 298.508 139.067C298.191 139.138 297.915 139.329 297.738 139.601C297.589 139.836 297.517 140.113 297.535 140.391V153.768C297.535 158.411 297.535 162.919 297.535 167.264C297.535 175.947 297.535 183.97 297.535 191.045C297.496 205.184 297.467 215.548 297.456 220L297.417 219.966H299.504H300.187C300.187 219.966 299.978 219.966 299.527 219.966H297.417H297.383V219.927C297.383 215.475 297.343 205.111 297.304 190.972C297.304 183.897 297.304 175.874 297.304 167.19C297.304 162.846 297.304 158.338 297.304 153.695C297.304 151.376 297.304 149.017 297.304 146.637V140.317C297.288 139.984 297.375 139.653 297.552 139.37C297.714 139.118 297.946 138.92 298.219 138.799C298.492 138.678 298.795 138.64 299.089 138.689C299.384 138.739 299.658 138.873 299.877 139.076C300.096 139.279 300.251 139.542 300.322 139.832C300.373 140.195 300.388 140.561 300.367 140.927V153.441C300.367 158.874 300.367 164.11 300.367 169.097C300.367 179.067 300.334 188.043 300.322 195.587C300.311 203.13 300.288 209.201 300.277 213.421C300.277 215.515 300.277 217.139 300.277 218.257C300.277 218.821 300.277 219.216 300.277 219.509C300.277 219.803 300.119 220 300.119 220Z" fill="#7E7E7E"/>
<path d="M211.139 150.377H103.466V155.246H211.139V150.377Z" fill="#9E9E9E"/>
<path d="M111.94 155.246H108.414V220H111.94V155.246Z" fill="#7E7E7E"/>
<path d="M200.864 155.246H197.338V220H200.864V155.246Z" fill="#7E7E7E"/>
<path d="M197.338 170.627H111.884V197.33H197.338V170.627Z" fill="#9E9E9E"/>
<path d="M197.338 160.048H111.94V163.828H197.338V160.048Z" fill="#9E9E9E"/>
<path d="M175.712 141.982H133.561C133.028 141.982 132.596 142.414 132.596 142.947V159.083C132.596 159.616 133.028 160.048 133.561 160.048H175.712C176.245 160.048 176.677 159.616 176.677 159.083V142.947C176.677 142.414 176.245 141.982 175.712 141.982Z" fill="#9E9E9E"/>
<path d="M175.712 141.982H133.561C133.028 141.982 132.596 142.414 132.596 142.947V159.083C132.596 159.616 133.028 160.048 133.561 160.048H175.712C176.245 160.048 176.677 159.616 176.677 159.083V142.947C176.677 142.414 176.245 141.982 175.712 141.982Z" fill="#9E9E9E"/>
<g opacity="0.4">
<path d="M175.712 141.982H133.561C133.028 141.982 132.596 142.414 132.596 142.947V159.083C132.596 159.616 133.028 160.048 133.561 160.048H175.712C176.245 160.048 176.677 159.616 176.677 159.083V142.947C176.677 142.414 176.245 141.982 175.712 141.982Z" fill="black"/>
</g>
<path d="M172.547 188.512H136.072C134.706 188.506 133.399 187.959 132.436 186.992C131.472 186.024 130.932 184.715 130.932 183.349C130.932 181.98 131.476 180.667 132.444 179.699C133.412 178.731 134.725 178.187 136.094 178.187H172.57C173.248 178.186 173.92 178.319 174.546 178.578C175.173 178.838 175.742 179.218 176.222 179.697C176.701 180.177 177.082 180.746 177.341 181.373C177.6 182 177.733 182.671 177.732 183.349C177.732 184.029 177.598 184.702 177.337 185.33C177.076 185.958 176.694 186.528 176.212 187.008C175.731 187.487 175.159 187.867 174.53 188.125C173.901 188.383 173.227 188.515 172.547 188.512Z" fill="#9E9E9E"/>
<g opacity="0.4">
<path d="M172.547 188.512H136.072C134.706 188.506 133.399 187.959 132.436 186.992C131.472 186.024 130.932 184.715 130.932 183.349C130.932 181.98 131.476 180.667 132.444 179.699C133.412 178.731 134.725 178.187 136.094 178.187H172.57C173.248 178.186 173.92 178.319 174.546 178.578C175.173 178.838 175.742 179.218 176.222 179.697C176.701 180.177 177.082 180.746 177.341 181.373C177.6 182 177.733 182.671 177.732 183.349C177.732 184.029 177.598 184.702 177.337 185.33C177.076 185.958 176.694 186.528 176.212 187.008C175.731 187.487 175.159 187.867 174.53 188.125C173.901 188.383 173.227 188.515 172.547 188.512Z" fill="black"/>
</g>
<path d="M137.888 220H135.118V140.272C135.118 139.906 135.263 139.554 135.523 139.295C135.782 139.036 136.133 138.89 136.5 138.89C136.867 138.89 137.219 139.036 137.479 139.295C137.74 139.554 137.886 139.905 137.888 140.272V220Z" fill="#E0E0E0"/>
<path d="M137.888 220C137.888 220 137.888 219.848 137.888 219.56C137.888 219.272 137.888 218.843 137.888 218.29C137.888 217.162 137.888 215.526 137.888 213.416C137.888 209.19 137.888 203.091 137.843 195.553C137.798 188.015 137.815 179.05 137.803 169.098C137.803 164.121 137.803 158.897 137.803 153.48V141C137.82 140.657 137.806 140.314 137.764 139.973C137.725 139.817 137.654 139.67 137.557 139.541C137.461 139.412 137.339 139.304 137.2 139.223C136.924 139.054 136.593 138.999 136.277 139.069C135.961 139.14 135.685 139.331 135.507 139.601C135.359 139.837 135.29 140.113 135.31 140.391V146.71C135.31 149.091 135.31 151.449 135.31 153.768C135.31 158.412 135.31 162.92 135.31 167.264C135.31 175.947 135.31 183.97 135.31 191.045C135.27 205.184 135.242 215.548 135.231 220L135.197 219.966H137.284H137.967C137.967 219.966 137.758 219.966 137.301 219.966H135.197H135.157V219.927C135.157 215.475 135.118 205.111 135.078 190.972C135.078 183.897 135.078 175.874 135.078 167.191C135.078 162.846 135.078 158.338 135.078 153.695V140.391C135.058 140.057 135.143 139.726 135.321 139.443C135.484 139.192 135.716 138.995 135.99 138.874C136.263 138.754 136.566 138.716 136.861 138.765C137.155 138.814 137.429 138.948 137.649 139.151C137.869 139.353 138.024 139.616 138.097 139.906C138.145 140.268 138.16 140.635 138.142 141V145.237C138.142 148.043 138.142 150.802 138.142 153.514C138.142 158.948 138.142 164.183 138.142 169.171C138.142 179.14 138.114 188.117 138.097 195.66C138.08 203.204 138.063 209.275 138.052 213.495C138.052 215.588 138.052 217.213 138.052 218.33C138.052 218.894 138.052 219.289 138.052 219.583C138.052 219.876 137.888 220 137.888 220Z" fill="#7E7E7E"/>
<path d="M174.037 220H171.266V140.272C171.266 139.906 171.412 139.554 171.671 139.295C171.93 139.036 172.282 138.89 172.649 138.89C173.016 138.89 173.368 139.036 173.628 139.295C173.888 139.554 174.035 139.905 174.037 140.272V220Z" fill="#E0E0E0"/>
<path d="M174.037 220C174.037 220 174.037 219.848 174.037 219.56C174.037 219.272 174.037 218.843 174.037 218.291C174.037 217.162 174.037 215.526 174.037 213.416C174.037 209.19 174.008 203.091 173.992 195.553C173.975 188.015 173.963 179.05 173.952 169.098C173.952 164.121 173.952 158.897 173.952 153.48V141C173.968 140.657 173.955 140.314 173.913 139.973C173.873 139.817 173.803 139.67 173.706 139.541C173.609 139.413 173.488 139.304 173.348 139.223C173.072 139.054 172.741 138.999 172.426 139.07C172.11 139.14 171.834 139.331 171.656 139.601C171.508 139.837 171.439 140.113 171.458 140.391V146.71C171.458 149.091 171.458 151.449 171.458 153.768C171.458 158.412 171.458 162.92 171.458 167.264C171.458 175.947 171.458 183.97 171.458 191.045C171.419 205.184 171.391 215.548 171.379 220L171.345 219.966H173.433H174.116C174.116 219.966 173.907 219.966 173.45 219.966H171.345H171.306V219.927C171.306 215.475 171.266 205.111 171.227 190.972C171.227 183.897 171.227 175.874 171.227 167.191C171.227 162.846 171.227 158.338 171.227 153.695V140.391C171.206 140.057 171.291 139.726 171.47 139.443C171.686 139.105 172.027 138.866 172.419 138.777C172.811 138.688 173.221 138.757 173.563 138.969C173.903 139.18 174.146 139.517 174.24 139.906C174.292 140.268 174.309 140.635 174.291 141V145.237C174.291 148.043 174.291 150.802 174.291 153.514C174.291 158.948 174.291 164.183 174.291 169.171C174.291 179.14 174.257 188.117 174.245 195.66C174.234 203.204 174.212 209.275 174.2 213.495C174.2 215.588 174.2 217.213 174.2 218.33C174.2 218.894 174.2 219.289 174.2 219.583C174.2 219.876 174.037 220 174.037 220Z" fill="#7E7E7E"/>
</g>
</svg>
