<svg width="20" height="20" viewBox="0 0 20 20" fill="none" xmlns="http://www.w3.org/2000/svg">
<rect width="20" height="20" fill="#BABABA"/>
<rect width="1440" height="1024" transform="translate(-32 -138)" fill="#F4F4F4"/>
<rect x="-31.75" y="-137.75" width="271.5" height="1023.5" fill="white"/>
<rect x="-31.75" y="-137.75" width="271.5" height="1023.5" stroke="#E6E6E6" stroke-width="0.5"/>
<rect x="-8" y="-10" width="224" height="40" rx="4" fill="#E2EAFE"/>
<circle cx="7.50004" cy="7.50001" r="1.66667" stroke="#183DA7" stroke-width="1.5"/>
<path d="M10.8333 12.5C10.8333 13.4205 10.8333 14.1667 7.49996 14.1667C4.16663 14.1667 4.16663 13.4205 4.16663 12.5C4.16663 11.5795 5.65901 10.8333 7.49996 10.8333C9.34091 10.8333 10.8333 11.5795 10.8333 12.5Z" stroke="#183DA7" stroke-width="1.5"/>
<path d="M1.66663 10C1.66663 6.85731 1.66663 5.28596 2.64294 4.30965C3.61925 3.33334 5.1906 3.33334 8.33329 3.33334H11.6666C14.8093 3.33334 16.3807 3.33334 17.357 4.30965C18.3333 5.28596 18.3333 6.85731 18.3333 10C18.3333 13.1427 18.3333 14.7141 17.357 15.6904C16.3807 16.6667 14.8093 16.6667 11.6666 16.6667H8.33329C5.1906 16.6667 3.61925 16.6667 2.64294 15.6904C1.66663 14.7141 1.66663 13.1427 1.66663 10Z" stroke="#183DA7" stroke-width="1.5"/>
<path d="M15.8334 10H12.5" stroke="#183DA7" stroke-width="1.5" stroke-linecap="round"/>
<path d="M15.8334 7.5H11.6667" stroke="#183DA7" stroke-width="1.5" stroke-linecap="round"/>
<path d="M15.8334 12.5H13.3334" stroke="#183DA7" stroke-width="1.5" stroke-linecap="round"/>
</svg>
