<svg width="20" height="21" viewBox="0 0 20 21" fill="none" xmlns="http://www.w3.org/2000/svg">
<path d="M12.8273 3.878L12.3256 4.43547L12.8273 3.878ZM16.1263 6.84708L15.6245 7.40455L16.1263 6.84708ZM18.0448 8.96171L17.3597 9.26683L17.3597 9.26684L18.0448 8.96171ZM2.64281 17.857L3.17314 17.3267H3.17314L2.64281 17.857ZM17.3569 17.857L16.8265 17.3267L16.8265 17.3267L17.3569 17.857ZM11.6665 18.0833H8.33317V19.5833H11.6665V18.0833ZM2.4165 12.1666V8.83329H0.916504V12.1666H2.4165ZM17.5832 11.8024V12.1666H19.0832V11.8024H17.5832ZM12.3256 4.43547L15.6245 7.40455L16.628 6.28961L13.329 3.32053L12.3256 4.43547ZM19.0832 11.8024C19.0832 10.4065 19.0983 9.48365 18.73 8.65658L17.3597 9.26684C17.568 9.73458 17.5832 10.274 17.5832 11.8024H19.0832ZM15.6245 7.40455C16.7606 8.42701 17.1514 8.79908 17.3597 9.26683L18.73 8.65658C18.3616 7.8295 17.6656 7.22343 16.628 6.28961L15.6245 7.40455ZM8.358 2.91663C9.68562 2.91663 10.1555 2.9282 10.5722 3.08811L11.1096 1.68768C10.373 1.40505 9.57204 1.41663 8.358 1.41663V2.91663ZM13.329 3.32053C12.431 2.51231 11.846 1.97026 11.1096 1.68768L10.5722 3.08811C10.989 3.24805 11.3438 3.5519 12.3256 4.43547L13.329 3.32053ZM8.33317 18.0833C6.74062 18.0833 5.62166 18.0817 4.77553 17.9679C3.95099 17.8571 3.49872 17.6522 3.17314 17.3267L2.11248 18.3873C2.76322 19.038 3.58478 19.3213 4.57566 19.4546C5.54497 19.5849 6.78302 19.5833 8.33317 19.5833V18.0833ZM0.916504 12.1666C0.916504 13.7168 0.914911 14.9548 1.04523 15.9241C1.17845 16.915 1.46175 17.7366 2.11248 18.3873L3.17314 17.3267C2.84757 17.0011 2.64271 16.5488 2.53185 15.7243C2.4181 14.8781 2.4165 13.7592 2.4165 12.1666H0.916504ZM11.6665 19.5833C13.2167 19.5833 14.4547 19.5849 15.424 19.4546C16.4149 19.3213 17.2365 19.038 17.8872 18.3873L16.8265 17.3267C16.5009 17.6522 16.0487 17.8571 15.2241 17.9679C14.378 18.0817 13.2591 18.0833 11.6665 18.0833V19.5833ZM17.5832 12.1666C17.5832 13.7592 17.5816 14.8781 17.4678 15.7243C17.357 16.5488 17.1521 17.0011 16.8265 17.3267L17.8872 18.3873C18.5379 17.7366 18.8212 16.915 18.9544 15.9241C19.0848 14.9548 19.0832 13.7168 19.0832 12.1666H17.5832ZM2.4165 8.83329C2.4165 7.24074 2.4181 6.12178 2.53185 5.27566C2.64271 4.45111 2.84757 3.99885 3.17314 3.67327L2.11248 2.61261C1.46175 3.26334 1.17845 4.0849 1.04523 5.07578C0.914911 6.04509 0.916504 7.28315 0.916504 8.83329H2.4165ZM8.358 1.41663C6.79951 1.41663 5.55549 1.41505 4.58231 1.54529C3.58813 1.67835 2.7638 1.96129 2.11248 2.61261L3.17314 3.67327C3.49814 3.34827 3.95178 3.14306 4.78129 3.03204C5.63182 2.91821 6.75724 2.91663 8.358 2.91663V1.41663Z" fill="#1C274C"/>
<path d="M10.8335 2.58337V4.66671C10.8335 6.63089 10.8335 7.61299 11.4437 8.22318C12.0539 8.83337 13.036 8.83337 15.0002 8.83337H18.3335" stroke="#1C274C" stroke-width="1.5"/>
</svg>
