<svg width="20" height="20" viewBox="0 0 20 20" fill="none" xmlns="http://www.w3.org/2000/svg">
<g clip-path="url(#clip0_1376_11072)">
<path d="M7.50146 5.83341C7.51155 4.02089 7.59193 3.0393 8.23225 2.39898C8.96448 1.66675 10.143 1.66675 12.5 1.66675L13.3334 1.66675C15.6904 1.66675 16.8689 1.66675 17.6011 2.39898C18.3334 3.13121 18.3333 4.30973 18.3333 6.66675L18.3333 13.3334C18.3333 15.6904 18.3334 16.8689 17.6011 17.6012C16.8689 18.3334 15.6904 18.3334 13.3333 18.3334L12.5 18.3334C10.143 18.3334 8.96448 18.3334 8.23225 17.6012C7.59193 16.9609 7.51155 15.9793 7.50146 14.1667" stroke="#9E9E9E" stroke-width="1.5" stroke-linecap="round"/>
<path d="M12.5 10L1.66667 10M1.66667 10L4.58333 7.5M1.66667 10L4.58333 12.5" stroke="#9E9E9E" stroke-width="1.5" stroke-linecap="round" stroke-linejoin="round"/>
</g>
<defs>
<clipPath id="clip0_1376_11072">
<rect width="20" height="20" rx="5" fill="white"/>
</clipPath>
</defs>
</svg>
