<svg width="20" height="20" viewBox="0 0 20 20" fill="none" xmlns="http://www.w3.org/2000/svg">
<path d="M16.7349 2.51487L16.761 3.26442L16.7349 2.51487ZM13.75 2.90628L13.5349 2.18779L13.75 2.90628ZM11.3948 4.00238L11.0191 3.35325V3.35325L11.3948 4.00238ZM3.31863 2.56249L3.27262 3.31108L3.31863 2.56249ZM5.83329 2.90628L6.02465 2.18111L5.83329 2.90628ZM8.5685 4.06296L8.21792 4.72598L8.5685 4.06296ZM11.3563 16.7245L11.7091 17.3863H11.7091L11.3563 16.7245ZM14.1666 15.5279L13.9753 14.8027L14.1666 15.5279ZM16.6542 15.1858L16.7011 15.9343L16.6542 15.1858ZM8.64364 16.7245L8.29084 17.3863H8.29084L8.64364 16.7245ZM5.83329 15.5279L6.02465 14.8027H6.02465L5.83329 15.5279ZM3.34567 15.1858L3.29886 15.9343H3.29886L3.34567 15.1858ZM2.41663 13.4531V4.16492H0.916626V13.4531H2.41663ZM19.0833 13.4531V4.11108H17.5833V13.4531H19.0833ZM16.7088 1.76533C15.7586 1.79842 14.505 1.89735 13.5349 2.18779L13.9651 3.62478C14.7397 3.39286 15.8303 3.29684 16.761 3.26442L16.7088 1.76533ZM13.5349 2.18779C12.6911 2.44039 11.7481 2.9314 11.0191 3.35325L11.7705 4.6515C12.4774 4.2424 13.2961 3.82504 13.9651 3.62478L13.5349 2.18779ZM3.27262 3.31108C4.07588 3.36044 4.97747 3.45612 5.64193 3.63146L6.02465 2.18111C5.21159 1.96656 4.18867 1.86455 3.36464 1.8139L3.27262 3.31108ZM5.64193 3.63146C6.42918 3.8392 7.40547 4.29637 8.21792 4.72598L8.91909 3.39995C8.08797 2.96047 6.98608 2.43481 6.02465 2.18111L5.64193 3.63146ZM11.7091 17.3863C12.5335 16.9468 13.5457 16.4674 14.358 16.2531L13.9753 14.8027C12.9852 15.064 11.8448 15.6141 11.0035 16.0626L11.7091 17.3863ZM14.358 16.2531C15.0148 16.0797 15.9039 15.9842 16.7011 15.9343L16.6074 14.4372C15.7889 14.4884 14.7796 14.5905 13.9753 14.8027L14.358 16.2531ZM8.99644 16.0626C8.15507 15.6141 7.01476 15.064 6.02465 14.8027L5.64193 16.2531C6.45425 16.4674 7.46641 16.9468 8.29084 17.3863L8.99644 16.0626ZM6.02465 14.8027C5.22033 14.5905 4.21101 14.4884 3.39249 14.4372L3.29886 15.9343C4.09605 15.9842 4.98507 16.0797 5.64193 16.2531L6.02465 14.8027ZM17.5833 13.4531C17.5833 13.9536 17.166 14.4023 16.6074 14.4372L16.7011 15.9343C17.9905 15.8537 19.0833 14.8041 19.0833 13.4531H17.5833ZM19.0833 4.11108C19.0833 2.82651 18.059 1.71829 16.7088 1.76533L16.761 3.26442C17.1972 3.24922 17.5833 3.60823 17.5833 4.11108H19.0833ZM0.916626 13.4531C0.916626 14.8041 2.0094 15.8537 3.29886 15.9343L3.39249 14.4372C2.83393 14.4023 2.41663 13.9536 2.41663 13.4531H0.916626ZM11.0035 16.0626C10.38 16.395 9.61992 16.395 8.99644 16.0626L8.29084 17.3863C9.35535 17.9537 10.6446 17.9537 11.7091 17.3863L11.0035 16.0626ZM11.0191 3.35325C10.3741 3.72656 9.57115 3.74474 8.91909 3.39995L8.21792 4.72598C9.33339 5.31581 10.685 5.27972 11.7705 4.6515L11.0191 3.35325ZM2.41663 4.16492C2.41663 3.65076 2.82134 3.28334 3.27262 3.31108L3.36464 1.8139C1.98908 1.72936 0.916626 2.84879 0.916626 4.16492H2.41663Z" fill="#9E9E9E"/>
<path d="M10 4.87833V17.4999" stroke="#9E9E9E" stroke-width="1.5"/>
<path d="M4.16663 7.5L7.49996 8.33333" stroke="#9E9E9E" stroke-width="1.5" stroke-linecap="round"/>
<path d="M15.8334 7.5L12.5 8.33333" stroke="#9E9E9E" stroke-width="1.5" stroke-linecap="round"/>
<path d="M4.16663 10.8333L7.49996 11.6667" stroke="#9E9E9E" stroke-width="1.5" stroke-linecap="round"/>
<path d="M15.8334 10.8333L12.5 11.6667" stroke="#9E9E9E" stroke-width="1.5" stroke-linecap="round"/>
</svg>
