<svg width="20" height="20" viewBox="0 0 20 20" fill="none" xmlns="http://www.w3.org/2000/svg">
<g clip-path="url(#clip0_1349_10086)">
<path d="M1.6665 14.0833C1.6665 12.9922 1.6665 12.4466 1.9121 12.0458C2.04953 11.8216 2.23808 11.633 2.46234 11.4956C2.86312 11.25 3.40869 11.25 4.49984 11.25H5.4165C6.98785 11.25 7.77353 11.25 8.26168 11.7382C8.74984 12.2263 8.74984 13.012 8.74984 14.5833V15.5C8.74984 16.5911 8.74984 17.1367 8.50424 17.5375C8.36681 17.7618 8.17826 17.9503 7.954 18.0877C7.55322 18.3333 7.00765 18.3333 5.9165 18.3333C4.27979 18.3333 3.46143 18.3333 2.86026 17.9649C2.52387 17.7588 2.24104 17.476 2.0349 17.1396C1.6665 16.5384 1.6665 15.72 1.6665 14.0833Z" stroke="white" stroke-width="1.5"/>
<path d="M11.25 4.49996C11.25 3.40882 11.25 2.86324 11.4956 2.46246C11.633 2.2382 11.8216 2.04965 12.0458 1.91223C12.4466 1.66663 12.9922 1.66663 14.0833 1.66663C15.72 1.66663 16.5384 1.66663 17.1396 2.03503C17.476 2.24116 17.7588 2.52399 17.9649 2.86038C18.3333 3.46155 18.3333 4.27991 18.3333 5.91663C18.3333 7.00777 18.3333 7.55334 18.0877 7.95412C17.9503 8.17838 17.7618 8.36693 17.5375 8.50436C17.1367 8.74996 16.5911 8.74996 15.5 8.74996H14.5833C13.012 8.74996 12.2263 8.74996 11.7382 8.2618C11.25 7.77365 11.25 6.98797 11.25 5.41663V4.49996Z" stroke="white" stroke-width="1.5"/>
<path d="M13.75 5.20829C13.75 4.77879 13.75 4.56403 13.8576 4.4124C13.8956 4.3589 13.9423 4.31218 13.9958 4.27422C14.1474 4.16663 14.3622 4.16663 14.7917 4.16663C15.2212 4.16663 15.4359 4.16663 15.5876 4.27422C15.6411 4.31218 15.6878 4.3589 15.7257 4.4124C15.8333 4.56403 15.8333 4.77879 15.8333 5.20829C15.8333 5.6378 15.8333 5.85255 15.7257 6.00418C15.6878 6.05769 15.6411 6.10441 15.5876 6.14237C15.4359 6.24996 15.2212 6.24996 14.7917 6.24996C14.3622 6.24996 14.1474 6.24996 13.9958 6.14237C13.9423 6.10441 13.8956 6.05769 13.8576 6.00418C13.75 5.85255 13.75 5.6378 13.75 5.20829Z" fill="white"/>
<path d="M10.5 18.3333C10.5 18.7475 10.8358 19.0833 11.25 19.0833C11.6642 19.0833 12 18.7475 12 18.3333H10.5ZM11.9907 11.5309L12.4074 12.1545L12.4074 12.1545L11.9907 11.5309ZM11.5309 11.9907L10.9073 11.574L10.9073 11.574L11.5309 11.9907ZM15.8333 10.5H14.1667V12H15.8333V10.5ZM10.5 15.8333V18.3333H12V15.8333H10.5ZM14.1667 10.5C13.5971 10.5 13.1134 10.4991 12.7215 10.539C12.3171 10.5801 11.928 10.6708 11.574 10.9073L12.4074 12.1545C12.4738 12.1101 12.5875 12.0603 12.8733 12.0313C13.1717 12.0009 13.5659 12 14.1667 12V10.5ZM12 14.1667C12 13.5659 12.0009 13.1717 12.0313 12.8733C12.0603 12.5875 12.1101 12.4738 12.1545 12.4074L10.9073 11.574C10.6708 11.928 10.5801 12.3171 10.539 12.7215C10.4991 13.1134 10.5 13.5971 10.5 14.1667H12ZM11.574 10.9073C11.3102 11.0836 11.0836 11.3102 10.9073 11.574L12.1545 12.4074C12.2214 12.3073 12.3073 12.2214 12.4074 12.1545L11.574 10.9073Z" fill="white"/>
<path d="M19.0832 11.25C19.0832 10.8358 18.7474 10.5 18.3332 10.5C17.919 10.5 17.5832 10.8358 17.5832 11.25H19.0832ZM17.3043 18.2065L17.5913 18.8994L17.5913 18.8994L17.3043 18.2065ZM18.2063 17.3045L17.5134 17.0175L17.5134 17.0175L18.2063 17.3045ZM14.1665 19.0833H15.8332V17.5833H14.1665V19.0833ZM19.0832 14.1667V11.25H17.5832V14.1667H19.0832ZM15.8332 19.0833C16.2112 19.0833 16.5323 19.0837 16.7961 19.0657C17.0668 19.0473 17.3316 19.007 17.5913 18.8994L17.0173 17.5136C16.9708 17.5328 16.8883 17.556 16.694 17.5692C16.4931 17.5829 16.2317 17.5833 15.8332 17.5833V19.0833ZM17.5832 15.8333C17.5832 16.2319 17.5828 16.4932 17.5691 16.6942C17.5558 16.8884 17.5327 16.9709 17.5134 17.0175L18.8992 17.5915C19.0068 17.3317 19.0471 17.0669 19.0656 16.7963C19.0836 16.5324 19.0832 16.2114 19.0832 15.8333H17.5832ZM17.5913 18.8994C18.1835 18.6541 18.6539 18.1836 18.8992 17.5915L17.5134 17.0175C17.4204 17.2421 17.2419 17.4205 17.0173 17.5136L17.5913 18.8994Z" fill="white"/>
<path d="M1.6665 5.91663C1.6665 4.27991 1.6665 3.46155 2.0349 2.86038C2.24104 2.52399 2.52387 2.24116 2.86026 2.03503C3.46143 1.66663 4.27979 1.66663 5.9165 1.66663C7.00765 1.66663 7.55322 1.66663 7.954 1.91223C8.17826 2.04965 8.36681 2.2382 8.50424 2.46246C8.74984 2.86324 8.74984 3.40882 8.74984 4.49996V5.41663C8.74984 6.98797 8.74984 7.77365 8.26168 8.2618C7.77353 8.74996 6.98785 8.74996 5.4165 8.74996H4.49984C3.40869 8.74996 2.86312 8.74996 2.46234 8.50436C2.23808 8.36693 2.04953 8.17838 1.9121 7.95412C1.6665 7.55334 1.6665 7.00777 1.6665 5.91663Z" stroke="white" stroke-width="1.5"/>
<path d="M4.1665 5.20829C4.1665 4.77879 4.1665 4.56403 4.27409 4.4124C4.31206 4.3589 4.35877 4.31218 4.41228 4.27422C4.56391 4.16663 4.77866 4.16663 5.20817 4.16663C5.63768 4.16663 5.85243 4.16663 6.00406 4.27422C6.05757 4.31218 6.10428 4.3589 6.14225 4.4124C6.24984 4.56403 6.24984 4.77879 6.24984 5.20829C6.24984 5.6378 6.24984 5.85255 6.14225 6.00418C6.10428 6.05769 6.05757 6.10441 6.00406 6.14237C5.85243 6.24996 5.63768 6.24996 5.20817 6.24996C4.77866 6.24996 4.56391 6.24996 4.41228 6.14237C4.35877 6.10441 4.31206 6.05769 4.27409 6.00418C4.1665 5.85255 4.1665 5.6378 4.1665 5.20829Z" fill="white"/>
<path d="M4.1665 14.7917C4.1665 14.3622 4.1665 14.1474 4.27409 13.9958C4.31206 13.9423 4.35877 13.8956 4.41228 13.8576C4.56391 13.75 4.77866 13.75 5.20817 13.75C5.63768 13.75 5.85243 13.75 6.00406 13.8576C6.05757 13.8956 6.10428 13.9423 6.14225 13.9958C6.24984 14.1474 6.24984 14.3622 6.24984 14.7917C6.24984 15.2212 6.24984 15.4359 6.14225 15.5876C6.10428 15.6411 6.05757 15.6878 6.00406 15.7257C5.85243 15.8333 5.63768 15.8333 5.20817 15.8333C4.77866 15.8333 4.56391 15.8333 4.41228 15.7257C4.35877 15.6878 4.31206 15.6411 4.27409 15.5876C4.1665 15.4359 4.1665 15.2212 4.1665 14.7917Z" fill="white"/>
<path d="M13.3335 14.7917C13.3335 14.2065 13.3335 13.9139 13.4739 13.7037C13.5347 13.6127 13.6129 13.5346 13.7039 13.4738C13.914 13.3334 14.2066 13.3334 14.7918 13.3334C15.377 13.3334 15.6696 13.3334 15.8798 13.4738C15.9708 13.5346 16.0489 13.6127 16.1097 13.7037C16.2502 13.9139 16.2502 14.2065 16.2502 14.7917C16.2502 15.3769 16.2502 15.6695 16.1097 15.8797C16.0489 15.9707 15.9708 16.0488 15.8798 16.1096C15.6696 16.25 15.377 16.25 14.7918 16.25C14.2066 16.25 13.914 16.25 13.7039 16.1096C13.6129 16.0488 13.5347 15.9707 13.4739 15.8797C13.3335 15.6695 13.3335 15.3769 13.3335 14.7917Z" fill="white"/>
</g>
<defs>
<clipPath id="clip0_1349_10086">
<rect width="20" height="20" rx="5" fill="white"/>
</clipPath>
</defs>
</svg>
