<?xml version="1.0" encoding="UTF-8"?>
<!DOCTYPE svg PUBLIC "-//W3C//DTD SVG 1.1//EN" "http://www.w3.org/Graphics/SVG/1.1/DTD/svg11.dtd">
<!-- Creator: CorelDRAW -->
<svg xmlns="http://www.w3.org/2000/svg" xml:space="preserve" width="57.7547mm" height="16.1869mm" version="1.1" style="shape-rendering:geometricPrecision; text-rendering:geometricPrecision; image-rendering:optimizeQuality; fill-rule:evenodd; clip-rule:evenodd"
viewBox="0 0 6784.24 1901.42"
 xmlns:xlink="http://www.w3.org/1999/xlink">
 <defs>
  <style type="text/css">
   <![CDATA[
    .fil7 {fill:#373535;fill-rule:nonzero}
    .fil5 {fill:url(#id0)}
    .fil3 {fill:url(#id1)}
    .fil2 {fill:url(#id2)}
    .fil1 {fill:url(#id3)}
    .fil0 {fill:url(#id4)}
    .fil6 {fill:url(#id5)}
    .fil4 {fill:url(#id6)}
   ]]>
  </style>
  <linearGradient id="id0" gradientUnits="userSpaceOnUse" x1="-0" y1="125.51" x2="3130.41" y2="2813.86">
   <stop offset="0" style="stop-opacity:1; stop-color:#1B44BA"/>
   <stop offset="0.670588" style="stop-opacity:1; stop-color:#40A1B0"/>
   <stop offset="1" style="stop-opacity:1; stop-color:#66FFA6"/>
  </linearGradient>
  <linearGradient id="id1" gradientUnits="userSpaceOnUse" xlink:href="#id0" x1="-0" y1="125.51" x2="3130.41" y2="2813.86">
  </linearGradient>
  <linearGradient id="id2" gradientUnits="userSpaceOnUse" xlink:href="#id0" x1="0.01" y1="125.51" x2="3130.37" y2="2813.83">
  </linearGradient>
  <linearGradient id="id3" gradientUnits="userSpaceOnUse" xlink:href="#id0" x1="-0.02" y1="125.52" x2="3130.42" y2="2813.86">
  </linearGradient>
  <linearGradient id="id4" gradientUnits="userSpaceOnUse" xlink:href="#id0" x1="-0" y1="125.51" x2="3130.4" y2="2813.85">
  </linearGradient>
  <linearGradient id="id5" gradientUnits="userSpaceOnUse" xlink:href="#id0" x1="-0" y1="125.51" x2="3130.4" y2="2813.86">
  </linearGradient>
  <linearGradient id="id6" gradientUnits="userSpaceOnUse" xlink:href="#id0" x1="-0" y1="125.51" x2="3130.4" y2="2813.86">
  </linearGradient>
 </defs>
 <g id="Layer_x0020_1">
  <metadata id="CorelCorpID_0Corel-Layer"/>
  <g id="_105553543719360">
   <g>
    <path class="fil0" d="M973.53 1718.89c216.04,0 438.77,-99.55 571.56,-257.47 8.26,-9.82 13.85,-13.72 21.72,-23.9 13.36,-17.29 24.35,-30.81 37.24,-50.23 55.9,-84.22 117.61,-207.14 126.25,-311.07l-254.8 0c-3.77,45.38 -42.39,115.54 -64.38,152.38 -79.88,133.75 -253.86,239.31 -410.97,239.31 -144.57,0 -218.53,-21.51 -331.62,-98.1 -67.51,-45.72 -139.08,-134.5 -169.87,-210.42 -8.96,-22.12 -24.94,-57.14 -27.1,-83.18l-254.8 0c10.15,121.97 88.09,263.98 163.49,361.3 71.18,91.88 198.38,182.32 301.51,223.28 80.81,32.1 180.58,58.1 291.76,58.1z"/>
    <path class="fil1" d="M216.76 825.21l254.8 0c6.84,-82.17 99.45,-214.06 164.63,-268.88 69.86,-58.74 187.92,-122.81 314.53,-122.81 100.2,0 132.55,3.17 223.28,39.12 50.89,20.15 95.61,50.48 134.76,82 32.29,26.01 78.69,78.91 100.96,115.81 23.39,38.74 62.01,109.33 65.78,154.76l254.8 0c-3.41,-40.87 -23.12,-103.81 -36.41,-138.52 -16.88,-44.1 -32.73,-81.77 -55.54,-119.38 -27.33,-45.05 -74.84,-112.81 -112.44,-149.97 -7.93,-7.85 -12.98,-13.19 -20.85,-20.97 -131.59,-130.2 -333.08,-213.84 -531.52,-213.84 -219.53,0 -406.21,90.32 -552.37,234.8 -9.42,9.32 -11.27,11.37 -19.66,22.18 -72.97,93.95 -100.08,121.18 -148.31,247.17 -13.3,34.71 -33.01,97.65 -36.41,138.52z"/>
    <path class="fil2" d="M707.32 943.1c0,158.4 115.35,273.81 273.81,273.81 138.81,0 258.59,-116.84 258.59,-273.81 0,-138.81 -116.84,-258.59 -273.81,-258.59 -136.94,0 -258.59,121.65 -258.59,258.59z"/>
    <polygon class="fil3" points="-0,536.2 159.72,536.2 159.72,159.72 536.2,159.72 536.2,0 -0,0 "/>
    <polygon class="fil4" points="1410.85,159.72 1787.33,159.72 1787.33,536.2 1947.05,536.2 1947.05,0 1410.85,0 "/>
    <polygon class="fil5" points="-0,1901.42 536.2,1901.42 536.2,1741.7 159.72,1741.7 159.72,1365.22 -0,1365.22 "/>
    <polygon class="fil6" points="1787.33,1741.7 1410.85,1741.7 1410.85,1901.42 1947.05,1901.42 1947.05,1365.22 1787.33,1365.22 "/>
   </g>
   <path class="fil7" d="M2971.58 535.4l336.26 860.72 -133 0 -72.78 -186.95 -411.53 0 -71.53 186.95 -119.19 0 336.26 -860.72 135.51 0zm-70.27 148.05l-7.52 0 -159.35 414.06 324.97 0 -158.1 -414.06zm595.51 71.53l149.31 0 0 94.1 -149.31 0 0 382.67c0,30.12 5.85,51.86 17.56,65.25 11.71,13.38 29.7,20.08 53.95,20.08 21.75,0 47.68,-6.27 77.8,-18.82l0 87.82c-30.12,15.06 -69.01,22.59 -116.69,22.59 -49.35,0 -86.78,-14.64 -112.3,-43.91 -25.51,-29.28 -38.27,-75.71 -38.27,-139.28l0 -376.4 -70.26 0 0 -94.1 74.03 0 40.15 -204.52 74.03 0 0 204.52zm375.93 0l149.31 0 0 94.1 -149.31 0 0 382.67c0,30.12 5.85,51.86 17.56,65.25 11.71,13.38 29.7,20.08 53.95,20.08 21.75,0 47.68,-6.27 77.8,-18.82l0 87.82c-30.12,15.06 -69.01,22.59 -116.69,22.59 -49.35,0 -86.78,-14.64 -112.3,-43.91 -25.51,-29.28 -38.27,-75.71 -38.27,-139.28l0 -376.4 -70.26 0 0 -94.1 74.03 0 40.15 -204.52 74.03 0 0 204.52zm495.12 -12.56c52.7,0 99.33,11.09 139.9,33.25 40.56,22.17 72.15,53.74 94.72,94.72 22.59,41 33.88,88.66 33.88,143.04l0 89.09 -447.92 0c1.67,67.75 17.56,120.03 47.68,156.83 30.11,36.81 74.86,55.21 134.25,55.21 52.7,0 91.59,-15.47 116.68,-46.42 25.1,-30.95 37.65,-67.75 37.65,-110.41l111.66 0c0,50.18 -11.5,94.1 -34.5,131.74 -23,37.64 -54.79,66.92 -95.36,87.83 -40.57,20.91 -86.78,31.36 -138.65,31.36l-5.02 0c-90.34,0 -161.65,-29.06 -213.93,-87.2 -52.27,-58.13 -78.42,-135.72 -78.42,-232.75l0 -25.09c0,-63.57 11.71,-119.62 35.13,-168.13 23.42,-48.51 56.88,-86.16 100.38,-112.93 43.5,-26.76 94.53,-40.15 153.07,-40.15l8.79 0zm-6.27 94.1c-47.68,0 -86.36,14.65 -116.06,43.92 -29.7,29.27 -47.89,72.77 -54.57,130.48l328.73 0 0 -15.05c0,-47.68 -14.44,-86.16 -43.3,-115.43 -28.85,-29.27 -67.12,-43.92 -114.8,-43.92zm704.66 -94.1c70.27,0 125.48,18.83 165.63,56.47 40.15,37.64 60.23,92.85 60.23,165.62l0 431.62 -117.95 0 0 -410.29c0,-99.54 -45.17,-149.31 -135.51,-149.31 -30.11,0 -58.13,7.95 -84.06,23.85 -25.92,15.89 -46.85,37.42 -62.74,64.62 -15.89,27.18 -23.83,57.09 -23.83,89.71l0 381.43 -117.95 0 0 -641.14 85.33 0 16.3 94.1c53.54,-71.1 125.05,-106.66 214.55,-106.66zm892.87 653.7l-87.83 0c-5.86,-26.77 -11.3,-56.04 -16.32,-87.83 -47.68,66.92 -113.75,100.38 -198.24,100.38 -80.3,0 -143.67,-29.7 -190.1,-89.09 -46.42,-59.38 -69.63,-140.94 -69.63,-244.66l0 -13.8c0,-97.86 22.8,-175.45 68.39,-232.75 45.58,-57.3 109.36,-85.95 191.34,-85.95 79.45,0 140.94,31.38 184.43,94.1l0 -343.78 117.95 0 0 903.38zm-281.06 -559.6c-56.04,0 -97.24,19.45 -123.59,58.35 -26.35,38.89 -39.52,99.33 -39.52,181.31 0,81.97 13.38,142.19 40.15,180.68 26.76,38.47 67.75,57.71 122.95,57.71 109.58,0 164.37,-79.47 164.37,-238.39 0,-81.98 -13.8,-142.42 -41.41,-181.31 -27.6,-38.89 -68.59,-58.35 -122.96,-58.35zm793.74 106.66l312.43 452.94 -148.05 0 -238.4 -346.29 -244.66 346.29 -136.77 0 313.68 -445.42 -284.82 -414.05 148.05 0 210.79 307.4c46,-64.41 94.94,-134.25 146.8,-209.52l51.44 -72.78 17.56 -25.09 136.77 0 -284.82 406.53z"/>
  </g>
 </g>
</svg>
