<svg width="406" height="220" viewBox="0 0 406 220" fill="none" xmlns="http://www.w3.org/2000/svg">
<g opacity="0.4">
<path d="M405.135 176.065C405.135 176.15 314.631 176.218 203.008 176.218C91.3864 176.218 0.865479 176.15 0.865479 176.065C0.865479 175.981 91.3469 175.902 203.003 175.902C314.659 175.902 405.135 175.986 405.135 176.065Z" fill="#7E7E7E"/>
<path d="M294.048 0.338501H117.475V102.493H294.048V0.338501Z" fill="#7E7E7E"/>
<path d="M294.381 102.826H117.137V0H294.381V102.826ZM117.786 102.155H293.71V0.6714H117.808L117.786 102.155Z" fill="#7E7E7E"/>
<path d="M121.918 98.4961V3.67551H292.026V98.4961H121.918Z" fill="#F4F4F4" stroke="black" stroke-width="0.975591"/>
<path d="M292.858 99.3224H121.097V2.84357H292.858V99.3224ZM121.774 98.651H292.164V3.52626H121.774V98.651Z" fill="#7E7E7E"/>
<path d="M298.72 97.9007H114.09V102.493H298.72V97.9007Z" fill="#7E7E7E"/>
<path d="M299.064 102.826H113.757V97.5678H299.064V102.826ZM114.44 102.155H298.37V98.2392H114.44V102.155Z" fill="#7E7E7E"/>
<path d="M245.166 59.9072C245.16 59.8604 245.16 59.813 245.166 59.7661C245.166 59.6646 245.166 59.5292 245.166 59.3543C245.166 58.9875 245.166 58.4572 245.166 57.7689C245.166 56.3809 245.166 54.3836 245.132 51.7939C245.132 46.654 245.098 39.3307 245.07 30.546L245.194 30.6701H215.855L215.996 30.5291C215.996 41.2828 215.996 51.3539 215.996 59.8677L215.878 59.7492L237.126 59.8113L243.101 59.8395H244.686H244.714H243.152H237.199L215.878 59.9015H215.76V59.7831C215.76 51.2467 215.76 41.1643 215.76 30.4445V30.3091H215.906H245.245H245.363V30.4275C245.363 39.2404 245.318 46.592 245.301 51.7488C245.301 54.3046 245.301 56.3189 245.273 57.7012C245.273 58.3782 245.273 58.8973 245.273 59.264C245.273 59.4333 245.273 59.563 245.273 59.6589C245.248 59.746 245.212 59.8294 245.166 59.9072Z" fill="white"/>
<path d="M245.166 59.9072L245.392 59.7492L246.063 59.3148L248.664 57.6786L258.222 51.7262L258.171 51.8165C258.171 44.1546 258.171 34.0046 258.137 22.8954L258.278 23.0365H258.193L229.255 23.0026H229.306L219.455 28.5544L216.758 30.0608L216.053 30.4445C215.889 30.5291 215.805 30.5629 215.805 30.5629L216.036 30.4163L216.724 30.0044L219.393 28.4528L229.205 22.8108L258.143 22.7769H258.368V22.918C258.368 34.0272 258.368 44.1772 258.334 51.8391V51.8955L258.289 51.9293L248.698 57.8027L246.069 59.3938L245.375 59.8C245.25 59.8677 245.166 59.9072 245.166 59.9072Z" fill="white"/>
<path d="M258.278 22.8954C258.317 22.9631 255.411 24.729 251.789 26.8448C248.167 28.9605 245.205 30.6193 245.165 30.5516C245.126 30.4839 248.026 28.7179 251.648 26.6022C255.27 24.4864 258.238 22.8277 258.278 22.8954Z" fill="white"/>
<path d="M217.198 58.6998C217.238 58.7675 216.955 58.9988 216.572 59.2245C216.188 59.4502 215.844 59.5686 215.804 59.5009C215.765 59.4332 216.047 59.2019 216.431 58.9819C216.814 58.7618 217.159 58.6321 217.198 58.6998Z" fill="white"/>
<path d="M219.985 57.1031C220.019 57.1708 219.743 57.4021 219.359 57.6222C218.975 57.8422 218.631 57.9663 218.592 57.9043C218.552 57.8422 218.834 57.5996 219.218 57.3796C219.602 57.1595 219.946 57.0354 219.985 57.1031Z" fill="white"/>
<path d="M222.767 55.5007C222.806 55.5684 222.524 55.8054 222.14 56.0254C221.757 56.2454 221.413 56.3696 221.379 56.3019C221.345 56.2342 221.621 56.0028 222.005 55.7828C222.389 55.5628 222.733 55.4386 222.767 55.5007Z" fill="white"/>
<path d="M225.554 53.9041C225.594 53.9718 225.312 54.2031 224.928 54.4231C224.544 54.6432 224.2 54.7729 224.161 54.7052C224.121 54.6375 224.403 54.4062 224.787 54.1805C225.171 53.9548 225.515 53.8364 225.554 53.9041Z" fill="white"/>
<path d="M228.341 52.3073C228.381 52.3694 228.099 52.6064 227.715 52.8264C227.331 53.0464 226.987 53.1706 226.948 53.1029C226.908 53.0352 227.19 52.8038 227.574 52.5838C227.957 52.3637 228.302 52.2396 228.341 52.3073Z" fill="white"/>
<path d="M229.046 49.5201C229.125 49.5201 229.182 49.8812 229.182 50.3213C229.182 50.7614 229.108 51.1281 229.035 51.1225C228.962 51.1168 228.9 50.767 228.9 50.3213C228.9 49.8756 228.967 49.5201 229.046 49.5201Z" fill="white"/>
<path d="M229.103 46.276C229.176 46.276 229.238 46.6371 229.233 47.0828C229.227 47.5285 229.165 47.884 229.086 47.884C229.007 47.884 228.951 47.5229 228.956 47.0828C228.962 46.6427 228.996 46.276 229.103 46.276Z" fill="white"/>
<path d="M229.103 43.0657C229.182 43.0657 229.238 43.4268 229.238 43.8725C229.238 44.3182 229.165 44.6737 229.092 44.6737C229.018 44.6737 228.956 44.3126 228.956 43.8668C228.956 43.4211 229.018 43.0657 229.103 43.0657Z" fill="white"/>
<path d="M229.103 39.8554C229.182 39.8554 229.244 40.2165 229.238 40.6565C229.233 41.0966 229.171 41.4634 229.092 41.4634C229.013 41.4634 228.956 41.1023 228.962 40.6565C228.967 40.2108 229.046 39.8554 229.103 39.8554Z" fill="white"/>
<path d="M229.148 36.645C229.227 36.645 229.283 37.0061 229.283 37.4462C229.283 37.8863 229.21 38.2474 229.137 38.2474C229.063 38.2474 228.996 37.8863 229.001 37.4462C229.007 37.0061 229.069 36.6394 229.148 36.645Z" fill="white"/>
<path d="M229.17 33.429C229.249 33.429 229.312 33.7901 229.306 34.2359C229.3 34.6816 229.238 35.037 229.159 35.037C229.08 35.037 229.024 34.6759 229.029 34.2302C229.035 33.7845 229.103 33.429 229.17 33.429Z" fill="white"/>
<path d="M229.199 30.2188C229.278 30.2188 229.334 30.5798 229.328 31.0256C229.323 31.4713 229.261 31.8267 229.187 31.8267C229.114 31.8267 229.046 31.4656 229.052 31.0199C229.057 30.5742 229.103 30.2188 229.199 30.2188Z" fill="white"/>
<path d="M229.221 27.0084C229.3 27.0084 229.362 27.3695 229.357 27.8096C229.351 28.2497 229.289 28.6108 229.21 28.6108C229.131 28.6108 229.075 28.2497 229.08 27.8096C229.086 27.3695 229.148 27.0084 229.221 27.0084Z" fill="white"/>
<path d="M229.249 23.7925C229.323 23.7925 229.385 24.1536 229.379 24.5993C229.373 25.045 229.311 25.4004 229.238 25.4004C229.165 25.4004 229.097 25.0394 229.103 24.5993C229.108 24.1592 229.17 23.7925 229.249 23.7925Z" fill="white"/>
<path d="M256.67 51.8165C256.67 51.7375 257.031 51.6755 257.471 51.6755C257.911 51.6755 258.278 51.7375 258.278 51.8165C258.278 51.8955 257.917 51.9519 257.471 51.9519C257.025 51.9519 256.67 51.8899 256.67 51.8165Z" fill="white"/>
<path d="M253.46 51.8165C253.46 51.7375 253.821 51.6755 254.261 51.6755C254.701 51.6755 255.062 51.7375 255.062 51.8165C255.062 51.8955 254.707 51.9519 254.261 51.9519C253.815 51.9519 253.46 51.8899 253.46 51.8165Z" fill="white"/>
<path d="M250.243 51.8165C250.243 51.7375 250.604 51.6755 251.05 51.6755C251.496 51.6755 251.851 51.7375 251.851 51.8165C251.851 51.8955 251.49 51.9519 251.05 51.9519C250.61 51.9519 250.243 51.8899 250.243 51.8165Z" fill="white"/>
<path d="M247.033 51.8165C247.033 51.7375 247.394 51.6755 247.834 51.6755C248.274 51.6755 248.641 51.7375 248.641 51.8165C248.641 51.8955 248.28 51.9519 247.834 51.9519C247.388 51.9519 247.033 51.8899 247.033 51.8165Z" fill="white"/>
<path d="M243.823 51.8165C243.823 51.7375 244.184 51.6755 244.624 51.6755C245.064 51.6755 245.43 51.7375 245.43 51.8165C245.43 51.8955 245.069 51.9519 244.624 51.9519C244.178 51.9519 243.823 51.8899 243.823 51.8165Z" fill="white"/>
<path d="M240.613 51.8165C240.613 51.7375 240.968 51.6755 241.414 51.6755C241.86 51.6755 242.215 51.7375 242.215 51.8165C242.215 51.8955 241.854 51.9519 241.414 51.9519C240.974 51.9519 240.613 51.8899 240.613 51.8165Z" fill="white"/>
<path d="M237.397 51.8165C237.397 51.7375 237.758 51.6755 238.204 51.6755C238.649 51.6755 239.005 51.7375 239.005 51.8165C239.005 51.8955 238.644 51.9519 238.204 51.9519C237.763 51.9519 237.397 51.8899 237.397 51.8165Z" fill="white"/>
<path d="M234.181 51.8165C234.181 51.7375 234.542 51.6755 234.982 51.6755C235.422 51.6755 235.789 51.7375 235.789 51.8165C235.789 51.8955 235.428 51.9519 234.982 51.9519C234.536 51.9519 234.181 51.8899 234.181 51.8165Z" fill="white"/>
<path d="M230.976 51.8165C230.976 51.7375 231.331 51.6755 231.777 51.6755C232.223 51.6755 232.578 51.7375 232.578 51.8165C232.578 51.8955 232.223 51.9519 231.777 51.9519C231.331 51.9519 230.976 51.8899 230.976 51.8165Z" fill="white"/>
<path d="M229.03 51.8163C229.031 51.7958 229.036 51.7758 229.046 51.7574C229.055 51.7391 229.068 51.7229 229.084 51.7097C229.1 51.6966 229.118 51.6867 229.138 51.6808C229.157 51.675 229.178 51.6731 229.199 51.6755C229.219 51.6713 229.24 51.6717 229.26 51.6768C229.281 51.6818 229.3 51.6912 229.316 51.7044C229.332 51.7176 229.345 51.7343 229.354 51.7531C229.363 51.772 229.367 51.7926 229.367 51.8135C229.367 51.8343 229.363 51.855 229.354 51.8738C229.345 51.8927 229.332 51.9093 229.316 51.9225C229.3 51.9357 229.281 51.9452 229.26 51.9502C229.24 51.9552 229.219 51.9556 229.199 51.9515C229.179 51.9538 229.158 51.9522 229.139 51.9467C229.12 51.9411 229.102 51.9318 229.086 51.9192C229.07 51.9066 229.057 51.8911 229.047 51.8734C229.038 51.8557 229.032 51.8363 229.03 51.8163Z" fill="white"/>
<path d="M261.827 42.0388C262.072 42.0501 262.317 42.0388 262.56 42.005C262.88 41.9379 263.181 41.8022 263.443 41.6074C263.705 41.4126 263.922 41.1632 264.078 40.8766C264.288 40.438 264.389 39.9557 264.375 39.4699C264.36 38.984 264.229 38.5088 263.993 38.0837C263.94 37.9694 263.861 37.8685 263.764 37.7885C263.666 37.7084 263.552 37.6513 263.429 37.6211C263.297 37.6034 263.162 37.6122 263.033 37.6471C262.905 37.682 262.784 37.7422 262.679 37.8242C262.238 38.253 261.917 38.7899 261.748 39.3814C261.513 40.0215 261.372 40.6924 261.33 41.3731H261.059C261.026 39.246 261.014 37.3898 261.014 36.0639C261.014 35.4433 261.014 34.9355 261.014 34.5067C261.004 34.3177 261.017 34.1282 261.054 33.9425C261.089 34.1286 261.108 34.3173 261.11 34.5067C261.11 34.9186 261.15 35.4376 261.178 36.0583C261.223 37.3841 261.274 39.2404 261.319 41.3674H261.048C261.089 40.6605 261.232 39.9632 261.471 39.2968C261.586 38.9851 261.722 38.6816 261.877 38.3884C262.026 38.0874 262.24 37.8233 262.504 37.6155C262.64 37.5116 262.795 37.4365 262.961 37.3948C263.127 37.353 263.3 37.3456 263.469 37.3729C263.628 37.4114 263.778 37.4844 263.906 37.5867C264.035 37.689 264.14 37.8182 264.213 37.9653C264.464 38.4278 264.598 38.9444 264.603 39.4703C264.609 39.9962 264.487 40.5157 264.247 40.9838C264.071 41.2928 263.827 41.558 263.534 41.7593C263.241 41.9606 262.906 42.0928 262.555 42.146C262.367 42.1733 262.177 42.1733 261.99 42.146C261.93 42.1201 261.875 42.0838 261.827 42.0388Z" fill="white"/>
<path d="M247.598 19.5441C247.598 19.5441 247.598 19.5892 247.53 19.6456C247.45 19.7366 247.352 19.8096 247.242 19.86C247.067 19.9482 246.873 19.9909 246.678 19.9841C246.41 19.9708 246.156 19.8628 245.961 19.6795C245.741 19.4464 245.575 19.1669 245.476 18.8614C245.345 18.5236 245.232 18.1789 245.138 17.8289C244.906 17.0045 244.767 16.1566 244.726 15.3013H244.991C245.154 16.4135 245.122 17.5459 244.895 18.647C244.747 19.3111 244.382 19.9069 243.857 20.3396C243.716 20.4388 243.556 20.5089 243.388 20.5457C243.219 20.5825 243.045 20.5853 242.875 20.554C242.715 20.5175 242.565 20.4486 242.433 20.3516C242.301 20.2545 242.19 20.1314 242.108 19.9898C241.911 19.5937 241.795 19.1619 241.768 18.7202C241.741 18.2786 241.804 17.836 241.952 17.419C242.1 17.0019 242.33 16.619 242.629 16.2929C242.929 15.9669 243.29 15.7045 243.693 15.5213C243.865 15.4433 244.045 15.3828 244.229 15.3407C244.359 15.3407 244.427 15.3069 244.427 15.3407C244.427 15.3746 244.167 15.4197 243.744 15.6398C243.147 15.9594 242.66 16.4507 242.345 17.0503C242.137 17.4609 242.02 17.911 242.001 18.3705C241.962 18.8937 242.075 19.417 242.328 19.8769C242.391 19.9899 242.477 20.0888 242.58 20.1674C242.682 20.246 242.8 20.3027 242.926 20.334C243.197 20.3779 243.475 20.313 243.699 20.1534C244.17 19.7502 244.495 19.2029 244.624 18.5962C244.841 17.5266 244.878 16.428 244.731 15.3464H244.991C245.021 16.1845 245.142 17.0169 245.352 17.8289C245.442 18.1956 245.549 18.5398 245.657 18.8501C245.739 19.1348 245.881 19.3984 246.074 19.6231C246.221 19.7646 246.406 19.8603 246.606 19.8983C246.807 19.9364 247.014 19.9153 247.203 19.8375C247.347 19.7574 247.479 19.6588 247.598 19.5441Z" fill="white"/>
<path d="M167.182 28.6728C167.188 28.7253 167.188 28.7783 167.182 28.8308C167.182 28.9437 167.182 29.096 167.232 29.2822C167.266 29.6997 167.317 30.2808 167.385 31.0256C167.498 32.5433 167.678 34.738 167.684 37.4631C167.742 40.6584 167.377 43.8474 166.6 46.9474C166.127 48.7791 165.438 50.548 164.547 52.2171C163.572 54.0014 162.34 55.6325 160.891 57.0579C159.429 58.5418 157.912 59.879 156.642 61.3628C155.423 62.7806 154.438 64.3844 153.725 66.1134C152.564 69.0705 151.926 72.2073 151.841 75.3833C151.728 78.0971 151.841 80.2975 151.914 81.8095C151.948 82.5543 151.976 83.1411 151.993 83.5586C151.993 83.7504 151.993 83.8971 151.993 84.0156C151.999 84.0681 151.999 84.1211 151.993 84.1736C151.988 84.121 151.988 84.0681 151.993 84.0156C151.993 83.9027 151.993 83.7504 151.954 83.5642C151.92 83.1467 151.875 82.5599 151.818 81.8152C151.658 79.6733 151.607 77.5247 151.666 75.3776C151.719 72.1737 152.339 69.0045 153.5 66.0175C154.215 64.2612 155.209 62.6322 156.445 61.1935C157.726 59.6928 159.266 58.3443 160.699 56.8717C162.131 55.4626 163.351 53.8528 164.321 52.0929C165.2 50.4416 165.886 48.6941 166.363 46.8853C167.142 43.806 167.522 40.6393 167.492 37.4631C167.492 34.7437 167.357 32.5489 167.272 31.0312C167.234 30.2789 167.2 29.6978 167.17 29.2878C167.17 29.096 167.17 28.9493 167.17 28.8308C167.168 28.7779 167.172 28.7249 167.182 28.6728Z" fill="white"/>
<path d="M161.449 37.4123C161.195 36.978 160.981 36.5209 160.811 36.047C160.45 35.1837 159.965 33.9933 159.446 32.6617L159.361 32.453H159.604C159.051 33.4663 158.621 34.5422 158.323 35.6577C158.098 36.5152 158.019 37.0569 157.979 37.0512C157.962 36.5677 158.019 36.0843 158.148 35.6182C158.396 34.4666 158.808 33.3568 159.373 32.3232L159.508 32.075L159.61 32.3401L159.694 32.5489C160.213 33.8691 160.67 35.0765 160.986 35.9341C161.183 36.4125 161.338 36.9071 161.449 37.4123Z" fill="white"/>
<path d="M158.843 85.9395C158.769 85.9395 158.916 73.9559 159.175 59.1737C159.435 44.3916 159.706 32.4023 159.779 32.4023C159.853 32.4023 159.706 44.3916 159.446 59.1737C159.187 73.9559 158.916 85.9452 158.843 85.9395Z" fill="white"/>
<path d="M170.234 58.2314C170.234 58.3048 166.047 58.3669 160.879 58.3669C155.711 58.3669 151.519 58.3048 151.519 58.2314C151.519 58.1581 155.705 58.1017 160.879 58.1017C166.053 58.1017 170.234 58.1581 170.234 58.2314Z" fill="white"/>
<path d="M168.169 60.2908C168.614 60.0264 169.08 59.7981 169.562 59.6082C170.442 59.2189 171.661 58.6885 173.021 58.1187V58.3726L172.863 58.3218C171.43 57.8422 170.132 57.3965 169.201 57.0636C168.687 56.9054 168.187 56.7054 167.706 56.4655C168.234 56.5633 168.752 56.7029 169.258 56.8831C170.205 57.1708 171.514 57.5883 172.948 58.0679L173.105 58.1187L173.444 58.2315L173.117 58.3669C171.751 58.9311 170.521 59.4333 169.624 59.7831C169.154 59.993 168.667 60.1629 168.169 60.2908Z" fill="white"/>
<path d="M170.285 54.5246C170.285 54.5246 170.257 54.6036 170.161 54.7108L169.856 55.0663L170.082 54.6431C170.444 54.006 170.839 53.3883 171.266 52.7925C171.692 52.1046 172.19 51.4635 172.75 50.8799C172.408 51.6137 171.984 52.3065 171.487 52.9449C170.922 53.7461 170.42 54.4231 170.172 54.7052L170.087 54.6319C170.206 54.5472 170.273 54.5134 170.285 54.5246Z" fill="white"/>
<path d="M173.495 54.1693C172.873 53.7119 172.306 53.1857 171.802 52.6008C171.238 52.077 170.737 51.4901 170.307 50.8517C170.931 51.3064 171.499 51.8328 172 52.4202C172.563 52.9447 173.064 53.5315 173.495 54.1693Z" fill="white"/>
<path d="M156.467 53.4357C156.467 53.4357 156.597 53.3229 156.868 53.385C157.055 53.4346 157.224 53.5379 157.353 53.6823C157.483 53.8267 157.567 54.0057 157.596 54.1974C157.653 54.7474 157.556 55.3025 157.314 55.7998C157.19 56.1125 156.985 56.387 156.721 56.5953C156.575 56.7144 156.403 56.7982 156.219 56.8403C156.035 56.8823 155.844 56.8815 155.66 56.8379C155.481 56.7802 155.317 56.6836 155.179 56.5548C155.042 56.426 154.934 56.2683 154.865 56.0931C154.746 55.7762 154.717 55.4326 154.78 55.1001C154.863 54.5451 155.134 54.0353 155.548 53.6558C155.693 53.5338 155.863 53.4449 156.046 53.3952C156.229 53.3455 156.421 53.3362 156.608 53.368C156.748 53.3831 156.876 53.4495 156.969 53.5542C156.969 53.5542 156.834 53.4978 156.597 53.4752C156.428 53.4623 156.259 53.4847 156.1 53.5411C155.94 53.5974 155.795 53.6865 155.672 53.8025C155.312 54.1719 155.083 54.6499 155.023 55.1622C154.975 55.4487 155.004 55.7427 155.107 56.0141C155.165 56.147 155.25 56.266 155.357 56.3633C155.464 56.4606 155.59 56.5339 155.728 56.5783C155.873 56.612 156.023 56.6122 156.168 56.579C156.312 56.5457 156.448 56.4799 156.563 56.3865C156.793 56.2048 156.974 55.9681 157.088 55.6982C157.32 55.2451 157.431 54.7398 157.409 54.2313C157.391 54.0672 157.329 53.9111 157.23 53.7792C157.13 53.6473 156.998 53.5443 156.845 53.4809C156.614 53.4019 156.473 53.4696 156.467 53.4357Z" fill="white"/>
<path d="M153.878 36.0357C153.816 36.0809 153.426 35.6408 153.003 35.0596C152.712 34.73 152.488 34.3467 152.343 33.9312C152.405 33.8917 152.794 34.3262 153.218 34.913C153.508 35.2409 153.732 35.6223 153.878 36.0357Z" fill="white"/>
<path d="M152.76 38.7665C152.968 37.8229 153.265 36.9011 153.646 36.0131C153.94 35.0911 154.318 34.1978 154.774 33.3445C154.564 34.2899 154.266 35.2136 153.883 36.1034C153.59 37.0232 153.214 37.9145 152.76 38.7665Z" fill="white"/>
<path d="M182.866 17.2026C182.866 17.2985 172.197 17.3775 159.034 17.3775C145.871 17.3775 135.202 17.2985 135.202 17.2026C135.202 17.1067 145.871 17.0277 159.034 17.0277C172.197 17.0277 182.866 17.1067 182.866 17.2026Z" fill="white"/>
<path d="M182.866 19.9785C182.866 20.0744 172.197 20.1534 159.034 20.1534C145.871 20.1534 135.202 20.0744 135.202 19.9785C135.202 19.8825 145.871 19.8036 159.034 19.8036C172.197 19.8036 182.866 19.8825 182.866 19.9785Z" fill="white"/>
<path d="M151.073 12.2827C151.073 12.3786 147.519 12.4576 143.135 12.4576C138.751 12.4576 135.202 12.3786 135.202 12.2827C135.202 12.1868 138.751 12.1078 143.135 12.1078C147.519 12.1078 151.073 12.1755 151.073 12.2827Z" fill="white"/>
<path d="M264.986 69.3237C264.986 69.4196 258.724 70.5424 250.966 71.8344C243.208 73.1264 236.906 74.0912 236.889 74.001C236.872 73.9107 243.152 72.7823 250.909 71.4902C258.667 70.1982 264.969 69.2278 264.986 69.3237Z" fill="white"/>
<path d="M266.386 72.6525C266.386 72.7484 260.123 73.8712 252.365 75.1632C244.607 76.4552 238.305 77.42 238.26 77.3297C238.215 77.2395 244.523 76.1111 252.28 74.819C260.038 73.527 266.369 72.5509 266.386 72.6525Z" fill="white"/>
<path d="M267.785 75.9701C267.785 76.066 261.522 77.1888 253.764 78.4808C246.006 79.7728 239.704 80.7376 239.687 80.6473C239.67 80.5571 245.95 79.4287 253.708 78.1366C261.466 76.8446 267.768 75.8742 267.785 75.9701Z" fill="white"/>
<path d="M173.297 74.0912V97.5565H213.638L173.297 74.0912ZM179.504 83.536L196.272 93.466H179.487L179.504 83.536Z" fill="#9E9E9E"/>
<path d="M177.196 76.3424C177.035 76.8592 176.789 77.3455 176.468 77.7811C176.222 78.2619 175.896 78.697 175.503 79.0675C175.664 78.5508 175.91 78.0645 176.231 77.6288C176.475 77.1467 176.801 76.7112 177.196 76.3424Z" fill="#7E7E7E"/>
<path d="M183.154 79.784C183.003 80.2903 182.76 80.7646 182.438 81.1832C182.195 81.6514 181.872 82.0734 181.484 82.4301C181.638 81.9248 181.88 81.451 182.201 81.0309C182.446 80.5645 182.768 80.1429 183.154 79.784Z" fill="#7E7E7E"/>
<path d="M189.14 83.2313C188.644 84.1581 187.987 84.9892 187.199 85.6856C187.409 85.201 187.702 84.7563 188.063 84.371C188.599 83.694 189.078 83.1805 189.14 83.2313Z" fill="#7E7E7E"/>
<path d="M195.019 86.8084C194.527 87.7378 193.869 88.5695 193.079 89.2627C193.286 88.7768 193.578 88.3316 193.942 87.9481C194.478 87.2711 194.957 86.7576 195.019 86.8084Z" fill="#7E7E7E"/>
<path d="M201.163 90.3234C200.983 90.8335 200.715 91.3088 200.373 91.7282C200.104 92.1976 199.759 92.619 199.352 92.9751C199.529 92.4632 199.797 91.9874 200.142 91.5702C200.409 91.0995 200.754 90.6778 201.163 90.3234Z" fill="#7E7E7E"/>
<path d="M207.544 94.0302C207.394 94.5159 207.155 94.9693 206.839 95.3674C206.599 95.8144 206.28 96.214 205.897 96.5466C206.047 96.061 206.286 95.6075 206.602 95.2094C206.842 94.7624 207.161 94.3628 207.544 94.0302Z" fill="#7E7E7E"/>
<path d="M179.035 77.4313C179.103 77.4708 178.968 77.8093 178.736 78.1817C178.505 78.5541 178.262 78.8249 178.172 78.7854C178.082 78.7459 178.246 78.4074 178.477 78.035C178.708 77.6626 178.973 77.3862 179.035 77.4313Z" fill="#7E7E7E"/>
<path d="M180.999 78.5203C181.066 78.5654 180.931 78.8983 180.7 79.2763C180.468 79.6543 180.226 79.9195 180.135 79.88C180.045 79.8405 180.203 79.502 180.44 79.1296C180.677 78.7572 180.937 78.4808 180.999 78.5203Z" fill="#7E7E7E"/>
<path d="M185.366 81.1155C185.428 81.155 185.292 81.4936 185.061 81.8659C184.83 82.2383 184.587 82.5148 184.525 82.4696C184.463 82.4245 184.593 82.0973 184.824 81.7192C185.055 81.3412 185.298 81.0478 185.366 81.1155Z" fill="#7E7E7E"/>
<path d="M187.352 82.182C187.42 82.2215 187.284 82.56 187.053 82.9323C186.821 83.3047 186.579 83.5812 186.489 83.536C186.398 83.4909 186.562 83.158 186.793 82.7857C187.025 82.4133 187.262 82.1425 187.352 82.182Z" fill="#7E7E7E"/>
<path d="M191.267 84.6249C191.335 84.6701 191.2 85.003 190.968 85.381C190.737 85.759 190.494 86.0242 190.404 85.9847C190.314 85.9452 190.477 85.6067 190.709 85.2286C190.94 84.8506 191.205 84.5855 191.267 84.6249Z" fill="#7E7E7E"/>
<path d="M193.14 85.7195C193.208 85.7646 193.073 86.0975 192.841 86.4755C192.61 86.8535 192.367 87.1187 192.277 87.0792C192.187 87.0397 192.345 86.7012 192.582 86.3232C192.819 85.9452 193.078 85.68 193.14 85.7195Z" fill="#7E7E7E"/>
<path d="M197.18 88.0553C197.248 88.0948 197.112 88.4333 196.881 88.8057C196.65 89.178 196.407 89.4489 196.317 89.4094C196.227 89.3699 196.385 89.0313 196.616 88.659C196.847 88.2866 197.112 88.0101 197.18 88.0553Z" fill="#7E7E7E"/>
<path d="M199.352 89.3303C199.414 89.3755 199.279 89.7084 199.047 90.0864C198.816 90.4644 198.574 90.7296 198.483 90.6901C198.393 90.6506 198.557 90.3121 198.788 89.934C199.019 89.556 199.284 89.2908 199.352 89.3303Z" fill="#7E7E7E"/>
<path d="M203.251 91.6154C203.319 91.6549 203.183 91.9935 202.952 92.3658C202.721 92.7382 202.478 93.0147 202.388 92.9695C202.298 92.9244 202.456 92.5915 202.687 92.2191C202.918 91.8468 203.183 91.5759 203.251 91.6154Z" fill="#7E7E7E"/>
<path d="M28.8104 78.0068C28.8104 78.0068 23.1684 78.2043 24.1445 83.4514C25.1205 88.6985 37.3694 132.644 37.3694 132.644H80.6721C81.4457 132.644 82.1876 132.337 82.7346 131.79C83.2817 131.243 83.589 130.501 83.589 129.727C83.5897 129.344 83.5148 128.964 83.3685 128.61C83.2221 128.256 83.0073 127.934 82.7363 127.663C82.4653 127.392 82.1434 127.177 81.7892 127.031C81.435 126.885 81.0553 126.81 80.6721 126.81H65.6586L54.1037 83.2652C53.7715 81.774 52.941 80.4405 51.7492 79.4846C50.5574 78.5287 49.0754 78.0075 47.5476 78.0068H28.8104Z" fill="#7E7E7E"/>
<path d="M43.2822 132.644C43.2032 132.644 39.897 120.446 35.9081 105.365C31.9192 90.2839 28.7427 78.0294 28.8104 78.0068C28.8781 77.9842 32.1956 90.1992 36.1845 105.292C40.1735 120.384 43.3612 132.622 43.2822 132.644Z" fill="#263238"/>
<path d="M41.4937 126.771C41.4937 126.692 48.0723 126.624 56.163 126.624C64.2536 126.624 70.8605 126.692 70.8605 126.771C70.8605 126.85 64.2818 126.918 56.1912 126.918C48.1005 126.918 41.4937 126.85 41.4937 126.771Z" fill="#263238"/>
<path d="M63.9322 134.709H57.2859V153.774H63.9322V134.709Z" fill="#E0E0E0"/>
<path d="M61.636 169.34H59.5823V168.014V151.274H61.636V169.34Z" fill="#E0E0E0"/>
<path d="M41.4937 176.071L59.582 168.302H61.6357L81.5521 176.071H41.4937Z" fill="#E0E0E0"/>
<path d="M116.894 115.763H114.017V176.071H116.894V115.763Z" fill="#263238"/>
<path d="M85.0393 115.763H82.1619V176.071H85.0393V115.763Z" fill="#263238"/>
<path d="M129.792 109.066H43.2825V147.387H129.792V109.066Z" fill="#455A64"/>
<path d="M133.155 107.436H12.3923V113.828H133.155V107.436Z" fill="#455A64"/>
<path d="M40.3994 110.629H14.1865V147.387H40.3994V110.629Z" fill="#455A64"/>
<path d="M131.738 113.411C131.738 113.49 104.955 113.557 71.9326 113.557C38.9097 113.557 12.127 113.49 12.127 113.411C12.127 113.332 38.9041 113.264 71.9326 113.264C104.961 113.264 131.738 113.332 131.738 113.411Z" fill="#263238"/>
<path d="M43.2769 113.411H40.3994V176.065H43.2769V113.411Z" fill="#263238"/>
<path d="M16.9228 113.411H14.0454V176.065H16.9228V113.411Z" fill="#263238"/>
<path d="M96.7294 25.344C97.7634 25.6599 98.6695 26.2976 99.316 27.1642C99.9624 28.0308 100.315 29.0812 100.323 30.1623C100.323 31.2907 99.9736 32.5207 100.673 33.3783C101.13 33.9425 101.903 34.1343 102.479 34.5744C102.8 34.8232 103.054 35.1477 103.219 35.5189C103.384 35.89 103.455 36.2963 103.425 36.7014C103.395 37.1065 103.265 37.4979 103.046 37.8405C102.828 38.1831 102.528 38.4663 102.174 38.6648C102.53 38.9218 102.942 39.0893 103.376 39.1532C103.81 39.217 104.253 39.1753 104.668 39.0316C104.62 39.4565 104.48 39.8658 104.257 40.2304C104.033 40.5951 103.733 40.9062 103.376 41.1417C103.017 41.3739 102.612 41.5237 102.188 41.5803C101.765 41.6369 101.334 41.5988 100.927 41.4689C100.895 41.8962 100.958 42.3252 101.114 42.7246C101.269 43.1239 101.512 43.4834 101.824 43.7765C100.611 43.3985 99.3078 43.833 98.1569 44.3689C97.0059 44.9049 95.8549 45.5594 94.5911 45.6271C93.2393 45.6328 91.9331 45.1384 90.9238 44.2392C89.9341 43.3398 89.0586 42.3223 88.3171 41.2094" fill="#263238"/>
<path d="M97.7056 31.6293C97.5759 28.8083 94.5574 25.8857 91.7194 26.1339L82.4947 27.7193V29.2483L82.427 48.9955L93.1469 53.684L92.9776 46.2647C92.9776 46.2647 96.628 45.7287 97.4912 40.9951C97.8975 38.6593 97.8467 34.7945 97.7056 31.6293Z" fill="#D2D2D1"/>
<path d="M96.5883 35.2119C96.5868 35.3706 96.5235 35.5225 96.4119 35.6352C96.3002 35.748 96.1489 35.8127 95.9902 35.8156C95.912 35.8227 95.8331 35.8134 95.7587 35.7882C95.6843 35.763 95.6159 35.7226 95.558 35.6695C95.5001 35.6164 95.454 35.5517 95.4225 35.4798C95.391 35.4078 95.3749 35.33 95.3752 35.2514C95.3767 35.0927 95.44 34.9409 95.5517 34.8281C95.6634 34.7154 95.8146 34.6507 95.9733 34.6477C96.0516 34.6407 96.1304 34.65 96.2048 34.6752C96.2793 34.7004 96.3476 34.7408 96.4055 34.7939C96.4634 34.847 96.5096 34.9116 96.541 34.9836C96.5725 35.0556 96.5886 35.1334 96.5883 35.2119Z" fill="#263238"/>
<path d="M96.831 33.6265C96.752 33.6999 96.295 33.3557 95.6405 33.3444C94.986 33.3331 94.5121 33.6547 94.4331 33.5701C94.3541 33.4855 94.4783 33.3952 94.6927 33.2429C94.9794 33.0518 95.3187 32.9552 95.6631 32.9664C96.0036 32.9693 96.3341 33.0821 96.6053 33.288C96.8028 33.446 96.8648 33.587 96.831 33.6265Z" fill="#263238"/>
<path d="M90.7714 35.2119C90.77 35.3706 90.7067 35.5225 90.595 35.6352C90.4833 35.748 90.332 35.8127 90.1733 35.8156C90.0951 35.8227 90.0162 35.8133 89.9418 35.7882C89.8674 35.763 89.799 35.7226 89.7411 35.6695C89.6832 35.6163 89.6371 35.5517 89.6056 35.4797C89.5741 35.4077 89.558 35.33 89.5584 35.2514C89.5583 35.0932 89.6204 34.9414 89.7312 34.8285C89.842 34.7156 89.9926 34.6507 90.1508 34.6477C90.2295 34.6398 90.3089 34.6485 90.384 34.6733C90.4591 34.6981 90.5282 34.7384 90.5867 34.7916C90.6452 34.8448 90.6919 34.9097 90.7237 34.9821C90.7556 35.0545 90.7718 35.1328 90.7714 35.2119Z" fill="#263238"/>
<path d="M90.3933 33.6322C90.3143 33.7112 89.8629 33.3614 89.2084 33.3501C88.554 33.3388 88.08 33.6604 87.9954 33.5758C87.9108 33.4911 88.0405 33.4009 88.2549 33.2542C88.5405 33.0671 88.876 32.9707 89.2174 32.9778C89.5587 32.9848 89.89 33.0949 90.1676 33.2937C90.3651 33.4516 90.4328 33.5983 90.3933 33.6322Z" fill="#263238"/>
<path d="M92.6841 38.5295C93.0304 38.4249 93.3889 38.3661 93.7504 38.3546C93.914 38.3546 94.0776 38.3095 94.1059 38.1966C94.1201 38.0248 94.0849 37.8525 94.0043 37.7001L93.5304 36.4194C93.0901 35.3326 92.7391 34.2118 92.481 33.068C93.0033 34.1172 93.4428 35.2057 93.7955 36.3235C93.9535 36.7748 94.1059 37.2036 94.2469 37.6155C94.3512 37.817 94.3792 38.0494 94.3259 38.27C94.2994 38.3285 94.2605 38.3806 94.2118 38.4225C94.163 38.4645 94.1057 38.4952 94.0438 38.5126C93.9511 38.5334 93.8566 38.5447 93.7617 38.5464C93.4031 38.5833 93.0414 38.5776 92.6841 38.5295Z" fill="#263238"/>
<path d="M92.9946 46.2816C90.762 46.2748 88.5748 45.6499 86.6755 44.4762C86.6755 44.4762 88.3004 47.8162 93.0567 47.4608L92.9946 46.2816Z" fill="#D2D2D1"/>
<path d="M92.3793 40.1036C92.2576 39.9446 92.0974 39.8192 91.9138 39.7392C91.7302 39.6593 91.5292 39.6274 91.3299 39.6466C91.185 39.6549 91.0435 39.6933 90.9143 39.7593C90.7851 39.8254 90.6711 39.9177 90.5795 40.0303C90.4891 40.1371 90.4341 40.2694 90.422 40.4088C90.4099 40.5482 90.4412 40.688 90.5118 40.8089C90.6142 40.9285 90.7502 41.0145 90.9022 41.0558C91.0541 41.097 91.2149 41.0916 91.3638 41.0402C91.6756 40.9369 91.9634 40.7718 92.2101 40.555C92.2858 40.5064 92.3511 40.4431 92.4019 40.3688C92.4255 40.3317 92.438 40.2886 92.438 40.2447C92.438 40.2007 92.4255 40.1576 92.4019 40.1205" fill="#D2D2D1"/>
<path d="M90.7486 38.947C90.8558 38.947 90.8445 39.6522 91.4426 40.1657C92.0406 40.6791 92.7966 40.617 92.8023 40.7299C92.8079 40.8427 92.633 40.8653 92.3114 40.8653C91.8978 40.8639 91.498 40.716 91.183 40.4478C90.8769 40.1912 90.6844 39.8242 90.647 39.4266C90.6188 39.1163 90.6978 38.9413 90.7486 38.947Z" fill="#263238"/>
<path d="M90.6076 31.0707C90.5399 31.2456 89.8854 31.1497 89.1181 31.2287C88.3508 31.3077 87.7245 31.5052 87.6229 31.3472C87.5214 31.1892 87.6906 31.1046 87.9445 30.9353C88.2858 30.7243 88.6728 30.5985 89.0729 30.5686C89.4674 30.5268 89.8662 30.581 90.2352 30.7266C90.4947 30.8451 90.6358 30.9861 90.6076 31.0707Z" fill="#263238"/>
<path d="M96.6222 31.7252C96.5038 31.8719 96.058 31.7252 95.4938 31.6913C94.9296 31.6575 94.4896 31.776 94.3654 31.618C94.2413 31.46 94.3654 31.3923 94.5968 31.2569C94.8695 31.0948 95.1839 31.0163 95.5009 31.0314C95.8179 31.0464 96.1234 31.1543 96.3796 31.3415C96.6166 31.4995 96.673 31.6519 96.6222 31.7252Z" fill="#263238"/>
<path d="M91.437 25.6938C91.5329 24.825 90.7036 24.0633 89.8347 23.9448C88.9541 23.8913 88.0797 24.1228 87.3409 24.6049C86.6072 25.0856 85.812 25.4652 84.9769 25.7333C84.2378 25.9082 83.4648 25.8462 82.7201 25.9703C81.866 26.1184 81.0692 26.499 80.4173 27.0703C79.7654 27.6416 79.2835 28.3815 79.0245 29.2088C78.7312 30.2131 78.7763 31.3133 78.3136 32.2442C77.9131 33.0567 77.1852 33.683 76.9144 34.5575C76.6041 35.6464 77.1796 36.7692 77.693 37.7791C78.2064 38.789 78.686 39.9908 78.2064 41.0176C79.2116 41.3406 80.2659 41.4838 81.3209 41.4408C81.6944 41.4497 82.0632 41.3561 82.3872 41.1699C82.8335 40.7747 83.1053 40.219 83.1432 39.624C83.6397 36.9553 83.9106 34.1625 85.2872 31.8211C85.8119 30.924 86.5059 30.089 86.7541 29.0791C86.8085 28.4828 86.9914 27.9053 87.2901 27.3864C87.4884 27.1879 87.7242 27.0308 87.9838 26.9242C88.2434 26.8177 88.5216 26.7638 88.8022 26.7658C89.3717 26.7758 89.9402 26.7152 90.4948 26.5853C90.7675 26.5174 91.0123 26.3663 91.1953 26.153C91.3783 25.9396 91.4904 25.6747 91.516 25.3948" fill="#263238"/>
<path d="M99.4376 30.3372C99.061 29.7447 98.8886 29.0453 98.9467 28.3456C99.0077 27.6534 99.0266 26.9582 99.0032 26.2637C98.9017 25.2868 98.4759 24.3721 97.7938 23.6654C97.1117 22.9588 96.2126 22.501 95.2399 22.365C92.8026 22.1506 90.794 24.1874 90.794 24.1874C90.7347 24.0858 90.6668 23.9895 90.5909 23.8997C90.1702 23.4624 89.6342 23.1533 89.045 23.0082C88.2441 22.7356 87.3725 22.7555 86.585 23.0647C85.9475 23.358 85.4566 23.911 84.7909 24.1536C84.0461 24.4244 83.2224 24.2608 82.4381 24.3567C80.7455 24.5598 79.3632 25.9929 78.737 27.5952C78.1107 29.1975 78.0768 30.9804 78.0543 32.673L79.0924 32.0411C78.6467 33.0398 78.1276 33.9933 77.1854 34.4108C77.7045 34.7888 78.1558 34.4954 78.7031 34.1456C78.0433 35.3499 77.7919 36.7357 77.9866 38.095C78.1481 38.7447 78.2296 39.4116 78.2292 40.081C78.2217 40.4164 78.1029 40.7398 77.8914 41.0003C77.68 41.2607 77.388 41.4435 77.0613 41.5198C78.1336 42.5023 79.5134 43.0825 80.9656 43.1616C80.8339 43.8683 80.4512 44.5035 79.8879 44.9501C80.5764 45.191 81.3138 45.2577 82.0343 45.1442C82.7548 45.0307 83.4359 44.7406 84.017 44.2998C84.5981 43.8589 85.061 43.2811 85.3644 42.6178C85.6677 41.9545 85.8022 41.2264 85.7557 40.4985C85.6823 39.4153 85.1915 38.3546 85.3664 37.2769C85.5413 36.1993 86.1957 35.3869 86.5794 34.4221C86.7957 33.8831 86.9141 33.31 86.9292 32.7295C87.166 32.3693 87.3255 31.9639 87.3975 31.539C87.6006 30.2808 86.901 29.0114 87.0985 27.7588C87.1412 27.512 87.2191 27.2726 87.3298 27.0479L88.1027 26.5796C88.6369 26.6411 89.1773 26.6202 89.7051 26.5176C89.8737 26.4778 90.0367 26.4171 90.1903 26.337C90.1903 26.4612 90.1903 26.5119 90.1903 26.6643C90.3937 26.9704 90.6639 27.2264 90.9806 27.413C91.2972 27.5997 91.652 27.7121 92.0183 27.7419C93.1467 27.7419 95.1553 27.5614 95.539 28.7236C95.7992 29.6957 96.3065 30.584 97.0115 31.302C97.7506 31.9621 98.3148 32.374 99.3078 32.3289C100.301 32.2837 101.345 31.8606 101.288 30.8732C100.966 31.0153 100.604 31.0394 100.266 30.9414C99.9272 30.8434 99.6341 30.6295 99.4376 30.3372Z" fill="#263238"/>
<path d="M77.2927 36.1429C77.2927 36.1429 77.5805 36.1429 78.077 36.0921C78.7773 36.0039 79.4444 35.742 80.0178 35.3305C80.8572 34.7124 81.4268 33.7953 81.6089 32.769C81.6772 32.1559 81.6772 31.5371 81.6089 30.924C81.5384 30.2394 81.5631 29.5482 81.6822 28.8703C81.8373 28.1788 82.1995 27.551 82.7204 27.0705C83.2032 26.6271 83.7984 26.3246 84.4412 26.196C85.0004 26.0869 85.5656 26.0115 86.1338 25.9703C86.6208 25.9272 87.1038 25.8461 87.5782 25.7277C88.5149 25.4594 89.4165 25.0806 90.2638 24.5993C90.0728 24.7837 89.8561 24.9395 89.6206 25.062C88.9964 25.4295 88.3268 25.714 87.6289 25.9083C87.1471 26.0457 86.6545 26.142 86.1564 26.196C85.588 26.2474 85.0229 26.3303 84.4638 26.4442C83.8696 26.5693 83.3201 26.8519 82.8727 27.2623C82.4013 27.7075 82.0732 28.283 81.9305 28.9155C81.654 30.2301 82.0433 31.5672 81.8064 32.7972C81.6037 33.8864 80.9792 34.8516 80.0686 35.4828C79.4621 35.8984 78.7544 36.1421 78.0206 36.188C77.8234 36.2043 77.6253 36.2043 77.4281 36.188C77.3604 36.1711 77.2927 36.1542 77.2927 36.1429Z" fill="#455A64"/>
<path d="M78.0542 39.3645C78.0542 39.3645 78.3532 39.4265 78.8836 39.4548C79.6312 39.4897 80.3767 39.3507 81.0614 39.0485C82.0777 38.6061 82.9411 37.8742 83.5439 36.944C84.2708 35.7927 84.6976 34.4775 84.7852 33.1187C84.9036 31.6857 84.6441 30.2639 84.9713 28.9775C85.1072 28.4097 85.3689 27.8797 85.7371 27.4266C86.1052 26.9735 86.5704 26.6088 87.0984 26.3596C87.8034 26.0345 88.5912 25.9341 89.3552 26.0718C89.562 26.1088 89.7644 26.1674 89.9589 26.2467C90.0887 26.3032 90.1564 26.337 90.1507 26.3483C90.1451 26.3596 89.863 26.2524 89.3383 26.1847C88.5976 26.0912 87.8458 26.2188 87.1774 26.5514C86.6884 26.7962 86.2597 27.1463 85.9222 27.5765C85.5846 28.0067 85.3466 28.5064 85.2252 29.0395C84.9262 30.2526 85.1857 31.6575 85.0673 33.1413C84.9746 34.5478 84.524 35.9073 83.7583 37.0907C83.1202 38.0574 82.2032 38.8071 81.1291 39.2404C80.4159 39.5358 79.6401 39.6483 78.8723 39.5676C78.6638 39.5494 78.4577 39.5097 78.2573 39.4491C78.1219 39.3927 78.0542 39.3645 78.0542 39.3645Z" fill="#455A64"/>
<path d="M101.266 30.9014C101.266 30.9014 101.153 31.1497 100.73 31.319C100.138 31.5555 99.4867 31.6009 98.8678 31.4487C98.6671 31.3982 98.4764 31.3143 98.3036 31.2005C98.1114 31.0658 97.9452 30.8976 97.8127 30.704C97.5069 30.3068 97.2634 29.8655 97.0905 29.395C96.7125 28.3738 96.8649 27.2059 96.5997 26.0775C96.4849 25.5343 96.2367 25.0283 95.8775 24.6049C95.7109 24.4158 95.5084 24.2615 95.2818 24.1511C95.0552 24.0407 94.8089 23.9764 94.5573 23.9617C93.6664 23.9545 92.7924 24.2054 92.0409 24.6839C91.3391 25.1392 90.7208 25.7118 90.2129 26.3765C90.3005 26.1707 90.4205 25.9802 90.5683 25.8123C90.9458 25.3142 91.408 24.8864 91.9337 24.5485C92.2973 24.3149 92.6875 24.1255 93.096 23.9843C93.5695 23.8053 94.074 23.7228 94.5798 23.7417C95.1595 23.773 95.7032 24.0326 96.0919 24.4639C96.4883 24.9221 96.762 25.4734 96.8874 26.0662C97.1582 27.2567 97.0059 28.4246 97.3444 29.3555C97.5043 29.8032 97.7286 30.2251 98.0102 30.6081C98.1107 30.782 98.2465 30.9331 98.4087 31.0516C98.5709 31.1701 98.7561 31.2535 98.9524 31.2964C99.5321 31.4551 100.145 31.4434 100.718 31.2625C100.921 31.1757 101.106 31.0534 101.266 30.9014Z" fill="#455A64"/>
<path d="M100.611 43.1954C100.532 43.2564 100.44 43.3 100.343 43.3233C100.246 43.3466 100.145 43.3492 100.047 43.3308C99.7833 43.3074 99.5305 43.2161 99.313 43.0658C99.0954 42.9155 98.9206 42.7113 98.8055 42.4732C98.657 42.1086 98.5971 41.7141 98.6304 41.3218C98.6637 40.9296 98.7895 40.5508 98.9973 40.2164C99.4997 39.458 100.04 38.7255 100.617 38.0217C100.878 37.6549 101.06 37.238 101.153 36.7974C101.223 36.388 101.192 35.9677 101.062 35.573C100.947 35.2143 100.754 34.8851 100.498 34.6082C100.262 34.3725 99.9945 34.1711 99.7026 34.0102C99.4475 33.8687 99.2123 33.6941 99.0029 33.4911C98.8468 33.3317 98.7291 33.1387 98.6588 32.9269C98.5516 32.5602 98.6588 32.3627 98.6926 32.3627C98.6846 32.5388 98.7094 32.7148 98.766 32.8818C98.8445 33.0711 98.964 33.2406 99.1158 33.3783C99.3271 33.5562 99.5581 33.7096 99.8041 33.8353C100.122 33.9956 100.414 34.2008 100.673 34.4446C100.962 34.7438 101.183 35.1017 101.322 35.494C101.47 35.9312 101.509 36.3981 101.435 36.8538C101.345 37.335 101.153 37.7912 100.87 38.1909C100.306 39.009 99.6349 39.6353 99.2456 40.3518C99.0558 40.6486 98.9354 40.9843 98.8934 41.334C98.8514 41.6838 98.8889 42.0384 99.0029 42.3717C99.1 42.5861 99.2478 42.7737 99.4336 42.9181C99.6194 43.0626 99.8376 43.1598 100.069 43.2011C100.249 43.2225 100.431 43.2206 100.611 43.1954Z" fill="#455A64"/>
<path d="M101.142 30.8168C101.142 30.8168 100.877 31.0876 100.301 31.0143C99.9513 30.923 99.6303 30.7448 99.368 30.4962C99.1056 30.2476 98.9103 29.9368 98.8003 29.5925C98.6583 29.2339 98.593 28.8495 98.6084 28.4641C98.6342 28.1438 98.689 27.8266 98.772 27.5162C98.8208 27.238 98.9042 26.9669 99.0203 26.7094C99.0654 26.7094 99.0598 27.0423 98.9752 27.5557C98.926 27.849 98.8921 28.1447 98.8736 28.4415C98.8711 28.7953 98.9382 29.1461 99.0711 29.474C99.1691 29.7757 99.3343 30.0512 99.5542 30.2799C99.7741 30.5086 100.043 30.6844 100.341 30.7942C100.814 30.9014 101.13 30.7604 101.142 30.8168Z" fill="#455A64"/>
<path d="M83.6227 86.1539C83.5155 86.1539 82.9739 90.171 82.9739 90.171L105.294 89.8043L104.521 85.1384L83.6227 86.1539Z" fill="#263238"/>
<path d="M112.313 155.844L108.425 163.066C108.425 163.066 114.457 169.442 113.87 170.847L99.5957 163.811L105.198 152.312L112.313 155.844Z" fill="#D2D2D1"/>
<path d="M104.329 160.268C104.171 160.242 104.009 160.276 103.874 160.362C103.738 160.449 103.64 160.582 103.596 160.736C103.565 160.893 103.595 161.055 103.68 161.191C103.765 161.326 103.898 161.424 104.053 161.464C104.22 161.491 104.392 161.455 104.534 161.363C104.677 161.272 104.781 161.131 104.826 160.967C104.842 160.8 104.792 160.632 104.687 160.5C104.581 160.369 104.429 160.283 104.262 160.262" fill="#E0E0E0"/>
<g opacity="0.6">
<path d="M99.6069 163.811L100.216 162.682L113.673 169.859C113.673 169.859 114.175 170.423 113.881 170.858L99.6069 163.811Z" fill="white"/>
</g>
<path d="M108.702 163.106C108.668 163.173 108.301 163.032 107.85 163.106C107.398 163.179 107.071 163.365 107.02 163.303C106.97 163.241 107.269 162.897 107.822 162.835C108.375 162.773 108.747 163.049 108.702 163.106Z" fill="#263238"/>
<path d="M109.892 164.465C109.892 164.539 109.514 164.511 109.136 164.685C108.758 164.86 108.533 165.142 108.465 165.103C108.397 165.063 108.544 164.652 109.029 164.437C109.514 164.223 109.926 164.398 109.892 164.465Z" fill="#263238"/>
<path d="M109.858 166.677C109.791 166.677 109.858 166.26 110.231 165.966C110.603 165.673 110.998 165.684 111.004 165.757C111.009 165.831 110.699 165.932 110.4 166.181C110.101 166.429 109.932 166.7 109.858 166.677Z" fill="#263238"/>
<path d="M109.407 161.362C109.345 161.413 109.074 161.159 108.668 160.99C108.262 160.821 107.889 160.798 107.884 160.719C107.878 160.64 108.295 160.539 108.775 160.719C109.255 160.9 109.492 161.323 109.407 161.362Z" fill="#263238"/>
<path d="M110.163 159.89C109.898 159.838 109.652 159.715 109.452 159.534C109.216 159.361 109.002 159.161 108.815 158.936C108.706 158.803 108.607 158.664 108.515 158.519C108.458 158.433 108.412 158.34 108.38 158.242C108.359 158.17 108.363 158.092 108.39 158.022C108.418 157.951 108.468 157.892 108.532 157.853C108.592 157.822 108.657 157.806 108.724 157.806C108.791 157.806 108.857 157.822 108.916 157.853C109.007 157.896 109.091 157.953 109.164 158.022C109.528 158.323 109.81 158.711 109.982 159.151C110.11 159.393 110.155 159.67 110.112 159.94C110.073 159.94 110.016 159.647 109.808 159.23C109.608 158.845 109.334 158.503 109.001 158.225C108.865 158.112 108.741 158.05 108.668 158.096C108.594 158.141 108.634 158.124 108.668 158.186C108.689 158.256 108.721 158.323 108.764 158.383C108.843 158.524 108.934 158.658 109.035 158.784C109.203 159.005 109.392 159.209 109.599 159.393C109.926 159.703 110.186 159.856 110.163 159.89Z" fill="#263238"/>
<path d="M110.022 159.946C109.992 159.675 110.045 159.402 110.174 159.162C110.296 158.893 110.459 158.645 110.66 158.428C110.779 158.301 110.912 158.185 111.055 158.084C111.14 158.008 111.244 157.956 111.355 157.932C111.467 157.909 111.583 157.914 111.692 157.949C111.754 157.982 111.806 158.032 111.84 158.092C111.875 158.153 111.892 158.223 111.89 158.293C111.885 158.395 111.866 158.495 111.833 158.592C111.778 158.764 111.698 158.928 111.596 159.077C111.423 159.316 111.195 159.51 110.93 159.641C110.696 159.791 110.413 159.844 110.141 159.788C110.141 159.737 110.445 159.726 110.835 159.472C111.064 159.33 111.257 159.137 111.399 158.908C111.484 158.78 111.549 158.639 111.591 158.49C111.647 158.327 111.647 158.174 111.591 158.163C111.525 158.154 111.458 158.159 111.395 158.179C111.331 158.198 111.273 158.231 111.224 158.276C111.092 158.363 110.969 158.464 110.857 158.575C110.663 158.764 110.498 158.981 110.366 159.218C110.124 159.658 110.056 159.952 110.022 159.946Z" fill="#263238"/>
<path d="M108.516 162.096L109.999 170.164C109.999 170.164 118.694 171.366 119.111 172.833L103.573 176.263L100.752 163.788L108.516 162.096Z" fill="#D2D2D1"/>
<path d="M105.046 170.548C104.907 170.627 104.801 170.755 104.749 170.906C104.698 171.058 104.703 171.223 104.763 171.371C104.836 171.514 104.961 171.623 105.113 171.676C105.264 171.728 105.43 171.72 105.576 171.653C105.724 171.571 105.836 171.436 105.89 171.276C105.944 171.115 105.937 170.94 105.869 170.784C105.777 170.644 105.634 170.545 105.47 170.507C105.306 170.469 105.134 170.496 104.989 170.581" fill="#E0E0E0"/>
<g opacity="0.6">
<path d="M103.573 176.263L103.336 174.993L118.321 172.172C118.321 172.172 119.083 172.319 119.111 172.827L103.573 176.263Z" fill="white"/>
</g>
<path d="M110.231 170.028C110.231 170.102 109.875 170.22 109.554 170.548C109.232 170.875 109.108 171.236 109.029 171.225C108.95 171.213 108.967 170.745 109.362 170.356C109.757 169.966 110.231 169.955 110.231 170.028Z" fill="#263238"/>
<path d="M112.008 170.344C112.042 170.412 111.743 170.615 111.557 170.993C111.371 171.371 111.371 171.727 111.292 171.738C111.213 171.749 111.077 171.332 111.292 170.869C111.506 170.406 111.991 170.26 112.008 170.344Z" fill="#263238"/>
<path d="M113.368 172.088C113.3 172.122 113.114 171.766 113.215 171.304C113.317 170.841 113.633 170.604 113.684 170.66C113.735 170.717 113.56 170.988 113.481 171.366C113.402 171.744 113.441 172.065 113.368 172.088Z" fill="#263238"/>
<path d="M109.689 168.229C109.689 168.302 109.3 168.274 108.882 168.398C108.465 168.522 108.154 168.731 108.098 168.674C108.042 168.618 108.307 168.279 108.809 168.138C109.311 167.997 109.712 168.161 109.689 168.229Z" fill="#263238"/>
<path d="M109.362 166.604C109.123 166.732 108.854 166.79 108.583 166.773C108.292 166.785 108 166.76 107.715 166.7C107.543 166.67 107.375 166.624 107.212 166.564C107.114 166.536 107.021 166.492 106.936 166.434C106.875 166.391 106.83 166.329 106.808 166.258C106.785 166.187 106.787 166.11 106.812 166.04C106.839 165.978 106.88 165.923 106.932 165.88C106.984 165.837 107.045 165.807 107.111 165.791C107.209 165.769 107.309 165.759 107.41 165.763C107.584 165.769 107.758 165.79 107.929 165.825C108.218 165.885 108.496 165.99 108.753 166.135C109.187 166.389 109.373 166.649 109.351 166.666C109.328 166.683 109.091 166.502 108.662 166.31C108.416 166.193 108.154 166.111 107.884 166.068C107.725 166.043 107.565 166.029 107.404 166.028C107.235 166.028 107.094 166.056 107.066 166.135C107.037 166.214 107.066 166.181 107.105 166.22C107.166 166.261 107.233 166.293 107.303 166.316C107.454 166.372 107.609 166.419 107.765 166.457C108.033 166.527 108.307 166.568 108.583 166.581C108.843 166.573 109.103 166.581 109.362 166.604Z" fill="#263238"/>
<path d="M109.289 166.733C109.289 166.733 109.052 166.513 108.916 166.028C108.839 165.744 108.81 165.448 108.832 165.154C108.847 164.972 108.879 164.793 108.928 164.618C108.947 164.505 108.995 164.399 109.067 164.31C109.139 164.221 109.233 164.152 109.339 164.11C109.409 164.097 109.481 164.104 109.547 164.13C109.612 164.156 109.67 164.2 109.712 164.257C109.771 164.34 109.818 164.431 109.853 164.527C109.919 164.695 109.959 164.872 109.971 165.052C109.992 165.352 109.938 165.653 109.813 165.927C109.599 166.395 109.306 166.559 109.289 166.53C109.42 166.315 109.537 166.09 109.638 165.859C109.721 165.604 109.75 165.335 109.723 165.069C109.705 164.916 109.665 164.766 109.605 164.623C109.548 164.465 109.452 164.347 109.396 164.375C109.339 164.403 109.215 164.544 109.181 164.691C109.135 164.842 109.101 164.997 109.08 165.154C109.042 165.423 109.042 165.697 109.08 165.966C109.181 166.451 109.328 166.717 109.289 166.733Z" fill="#263238"/>
<path d="M103.522 87.2597L125.289 118.596C126.411 120.057 127.153 121.774 127.448 123.593C127.743 125.411 127.583 127.275 126.982 129.016L109.689 164.279L102.777 153.249L113.667 127.16L100.899 111.018L95.1438 87.2428L103.522 87.2597Z" fill="#263238"/>
<path d="M99.9849 94.3461L99.4545 87.666L84.9319 87.2598C84.9319 87.2598 80.9825 89.0144 80.9204 98.7808C80.8414 107.661 90.1282 125.767 90.1282 125.767L100.752 171.225L110.671 168.968L99.9849 94.3461Z" fill="#263238"/>
<path d="M101.542 95.4069C101.58 95.6684 101.597 95.9325 101.593 96.1967C101.593 96.7609 101.626 97.4831 101.649 98.3463C101.7 100.163 101.801 102.668 102.016 105.427C102.23 108.186 102.518 110.68 102.749 112.48L103.031 114.612C103.081 114.873 103.103 115.137 103.099 115.402C103.015 115.151 102.955 114.892 102.918 114.629C102.817 114.133 102.687 113.405 102.546 112.508C102.258 110.714 101.942 108.22 101.722 105.45C101.502 102.679 101.44 100.169 101.44 98.352C101.44 97.4436 101.44 96.7045 101.48 96.1967C101.471 95.932 101.492 95.667 101.542 95.4069Z" fill="#455A64"/>
<path d="M100.397 85.4543C100.595 85.8389 100.739 86.249 100.825 86.673C101.095 87.6748 101.302 88.6923 101.446 89.7196C101.593 90.7459 101.674 91.7805 101.689 92.8171C101.715 93.2446 101.683 93.6736 101.593 94.0922C101.508 94.0922 101.48 92.1344 101.141 89.7479C100.803 87.3613 100.312 85.4825 100.397 85.4543Z" fill="#455A64"/>
<path d="M87.6342 95.3335C87.5825 94.8723 87.5825 94.4068 87.6342 93.9456C87.6793 93.088 87.7753 91.9088 87.922 90.6055C88.076 89.0686 88.3228 87.5425 88.6611 86.0354H88.7175V86.0636H88.6667C88.6667 86.0636 88.6667 86.0636 88.7062 86.0636C88.7062 86.0636 88.7062 86.0636 88.74 86.0975H88.6893H88.7457C88.7457 86.5489 88.4974 88.4333 88.2435 90.6901C88.1025 91.9314 87.9784 93.0541 87.8712 94.0133C87.834 94.4598 87.7547 94.9019 87.6342 95.3335Z" fill="#455A64"/>
<path d="M90.1283 92.3601C89.9544 91.3049 89.877 90.236 89.8969 89.1667C89.8222 88.1007 89.8429 87.03 89.959 85.9677C90.1328 87.0229 90.2102 88.0918 90.1903 89.1611C90.2719 90.2269 90.2511 91.2982 90.1283 92.3601Z" fill="#455A64"/>
<path d="M120.561 130.139C120.202 130.294 119.822 130.395 119.433 130.438C119.005 130.514 118.57 130.548 118.135 130.54C117.589 130.53 117.052 130.401 116.561 130.162C116.084 129.904 115.666 129.55 115.331 129.124C115.015 128.746 114.767 128.396 114.541 128.108C114.101 127.544 113.751 127.256 113.78 127.217C114.142 127.393 114.457 127.652 114.699 127.973C115.207 128.497 115.749 129.406 116.697 129.902C117.552 130.258 118.489 130.373 119.405 130.235C119.786 130.166 120.174 130.134 120.561 130.139Z" fill="#455A64"/>
<path d="M116.448 132.165C115.748 131.482 115.174 130.679 114.756 129.795C114.248 128.957 113.885 128.04 113.684 127.081C113.768 127.053 114.248 128.26 115.009 129.654C115.771 131.048 116.516 132.114 116.448 132.165Z" fill="#455A64"/>
<path d="M106.563 76.0885C106.563 76.0885 107.963 77.9334 109.65 78.1873C110.671 78.3396 112.318 78.3622 113.464 77.6231C114.393 76.9971 115.052 76.043 115.309 74.9519C115.565 73.8607 115.4 72.713 114.846 71.7385L106.563 76.0885Z" fill="#E0E0E0"/>
<path d="M114.496 76.6302C110.897 80.5796 105.469 76.5512 104.188 75.6033C102.614 74.4241 100.47 70.328 100.47 70.328L93.2315 53.9661C93.1299 53.7743 95.4545 54.1579 96.0525 54.6036C97.2712 55.5176 100.363 58.491 101.695 59.6081C103.906 61.4756 111.134 68.7539 111.134 68.7539C113.108 70.407 116.776 73.448 114.519 76.6527L114.496 76.6302Z" fill="#E0E0E0"/>
<path d="M98.0442 64.9116C98.6029 63.9963 99.243 63.1334 99.9568 62.3332C100.596 61.4694 101.314 60.6667 102.101 59.9353C101.541 60.8528 100.899 61.7176 100.183 62.5194C99.5434 63.3797 98.8277 64.1804 98.0442 64.9116Z" fill="#263238"/>
<path d="M98.6477 66.0514C99.2545 65.0749 99.9435 64.1519 100.707 63.2924C101.387 62.3736 102.141 61.513 102.964 60.7196C102.357 61.6961 101.668 62.6191 100.905 63.4786C100.227 64.3989 99.4719 65.2596 98.6477 66.0514Z" fill="#263238"/>
<path d="M82.3196 46.2195L81.7272 48.9898C81.7272 48.9898 77.5634 52.9392 76.6494 54.1805C75.7354 55.4217 75.4871 61.0073 76.2601 65.5097C76.9202 69.3293 80.8696 81.7644 82.0488 85.4317C82.2463 86.041 83.0023 86.1877 83.6398 86.1539L104.357 85.2286C104.547 85.2172 104.732 85.1639 104.899 85.0726C105.065 84.9813 105.21 84.8542 105.321 84.7005C105.433 84.5467 105.509 84.3702 105.544 84.1834C105.58 83.9967 105.573 83.8045 105.525 83.6206C104.301 78.949 100.622 64.9342 99.8494 62.8692C98.9185 60.3867 94.3823 54.4061 94.3823 54.4061L93.8914 51.2184L82.3196 46.2195Z" fill="#E0E0E0"/>
<path d="M102.366 72.8331C102.258 72.6023 102.177 72.36 102.123 72.1109C101.971 71.5806 101.779 70.9092 101.559 70.108C101.079 68.4154 100.43 66.0796 99.4657 63.5858C98.9861 62.3389 98.4671 61.1766 97.9536 60.1385C97.4888 59.2254 96.9746 58.3383 96.4134 57.4811C95.4542 56.0198 94.7207 55.2243 94.7715 55.1679C94.9662 55.3383 95.1438 55.5273 95.3019 55.7321C95.5031 55.9504 95.6915 56.1802 95.8661 56.4204C96.0805 56.6969 96.3344 56.9846 96.577 57.3739C97.1658 58.2236 97.7009 59.1092 98.1793 60.0257C98.7584 61.1517 99.2763 62.3081 99.7309 63.4899C100.532 65.6391 101.204 67.834 101.745 70.0628C101.959 70.9148 102.123 71.6088 102.225 72.094C102.295 72.3353 102.342 72.5828 102.366 72.8331Z" fill="#263238"/>
<path d="M93.773 51.2974C93.7105 51.6139 93.6179 51.9238 93.4966 52.2227C93.2991 52.7869 93.0057 53.6276 92.6446 54.6149L92.5938 54.7503L92.4697 54.6826L88.65 52.5443C86.743 51.4892 85.0053 50.564 83.7471 49.8926L82.2633 49.0857C82.0733 48.9996 81.8951 48.8897 81.7329 48.7585C81.929 48.8119 82.1183 48.8876 82.2971 48.9842C82.6582 49.1478 83.1829 49.3904 83.8261 49.7064C85.1068 50.3326 86.8615 51.2297 88.7742 52.2848C90.196 53.069 91.4993 53.8251 92.5769 54.4682L92.3964 54.5303C92.7857 53.5486 93.1129 52.7361 93.3499 52.1719C93.4638 51.8681 93.6055 51.5753 93.773 51.2974Z" fill="#263238"/>
<path d="M98.2922 60.5221C98.1123 60.6018 97.9225 60.6569 97.7279 60.6857L96.2554 61.0581L91.4371 62.2317C89.5357 62.683 87.8036 63.0667 86.5454 63.3262L85.0503 63.6083C84.8656 63.6523 84.6756 63.6694 84.4861 63.6591C84.6672 63.5829 84.8565 63.528 85.0503 63.4955L86.5229 63.1231L91.3976 61.9496C93.2989 61.5038 95.0311 61.1145 96.2892 60.855C96.9155 60.7309 97.4176 60.635 97.7844 60.5786C97.9503 60.5368 98.1211 60.5178 98.2922 60.5221Z" fill="#263238"/>
<path d="M98.7379 61.4644C98.5706 61.5727 98.3906 61.6599 98.2019 61.7239C97.8521 61.8706 97.3387 62.0794 96.7011 62.322C95.426 62.8128 93.6544 63.4504 91.691 64.1443C89.7276 64.8383 87.9278 65.4138 86.6132 65.7975C85.953 65.9949 85.417 66.136 85.0447 66.2206C84.8607 66.2734 84.6715 66.3056 84.4805 66.3165C84.6587 66.224 84.8484 66.1557 85.0447 66.1134L86.5737 65.6L91.6177 63.8679L96.6504 62.1301L98.185 61.6167C98.3624 61.5437 98.5481 61.4925 98.7379 61.4644Z" fill="#263238"/>
<path d="M85.6543 50.7783C85.5922 50.7219 85.959 50.2141 86.4724 49.5822C86.9858 48.9503 87.4598 48.5271 87.5218 48.5835C87.3278 49.0304 87.0479 49.4349 86.6981 49.774C86.1847 50.3777 85.7164 50.8291 85.6543 50.7783Z" fill="#263238"/>
<path d="M88.966 49.0293C88.6243 49.4499 88.2342 49.8286 87.8037 50.1577C87.4357 50.5577 87.0208 50.9119 86.5681 51.2128C86.8076 50.7126 87.1636 50.2773 87.6063 49.9433C87.9821 49.5369 88.4477 49.2239 88.966 49.0293Z" fill="#263238"/>
<path d="M78.5338 52.1381C78.5338 52.1381 75.1768 54.897 74.8326 57.0466C74.511 59.0778 73.7042 78.272 73.9863 80.9463C74.2684 83.6206 76.4519 88.3543 80.1023 87.1525C85.0616 85.5051 101.598 75.7556 101.598 75.7556L98.5292 69.9838L84.2153 75.7105L85.2873 60.556C85.2873 60.556 83.228 51.8165 78.5338 52.1381Z" fill="#E0E0E0"/>
<path d="M84.4976 62.006C84.5049 62.0886 84.5049 62.1716 84.4976 62.2542V62.9877C84.4976 63.6478 84.4976 64.5787 84.4976 65.7579C84.4638 68.1784 84.4074 71.5974 84.3453 75.7161L84.176 75.5977L98.4786 69.8315L98.5971 69.7863L98.6591 69.8992L98.9751 70.4634L101.728 75.6541L101.796 75.7782L101.672 75.8459C95.7366 79.2311 90.4951 82.0916 86.7037 84.0776C84.8079 85.0706 83.2846 85.8436 82.19 86.3344C81.6597 86.5883 81.2422 86.7689 80.9601 86.8987L80.6385 87.0341C80.5651 87.0623 80.5256 87.0736 80.5256 87.0679C80.5562 87.0438 80.5905 87.0247 80.6272 87.0115L80.9375 86.8535C81.214 86.7181 81.6258 86.5206 82.1505 86.2555C83.2 85.7308 84.712 84.9296 86.5965 83.9197C90.3541 81.8885 95.5786 78.9829 101.508 75.6033L101.452 75.7951C100.561 74.1025 99.6352 72.4099 98.693 70.6101L98.377 70.0459L98.5632 70.1136L84.2437 75.829L84.0688 75.8967V75.7105C84.1704 71.5918 84.2607 68.1727 84.3227 65.7579C84.3622 64.5787 84.3904 63.6478 84.413 62.9821C84.413 62.6774 84.413 62.4179 84.4469 62.2542C84.4576 62.1703 84.4745 62.0873 84.4976 62.006Z" fill="#263238"/>
<path d="M84.2888 60.5108C84.2436 60.5108 84.0462 60.0087 83.5384 59.2865C82.8869 58.3389 82.0075 57.5704 80.9811 57.0518C79.9547 56.5332 78.8143 56.2811 77.665 56.3188C76.7848 56.3188 76.2432 56.4881 76.2319 56.4373C76.6773 56.2287 77.162 56.1171 77.6537 56.11C78.8475 56.0164 80.0441 56.2526 81.1127 56.7929C82.1814 57.3332 83.081 58.1568 83.7133 59.1737C83.9954 59.5748 84.1914 60.0301 84.2888 60.5108Z" fill="#263238"/>
<path d="M84.2324 70.1362C83.7225 70.1752 83.21 70.1601 82.7034 70.091C81.7668 70.0233 80.4466 69.8936 79.0417 69.7017C77.6368 69.5099 76.3279 69.3011 75.4026 69.1375C74.8957 69.0679 74.3968 68.9489 73.9131 68.7821C74.4243 68.7841 74.9342 68.8332 75.4364 68.9288L79.0812 69.4253L82.7259 69.8935C83.2344 69.9284 83.7387 70.0096 84.2324 70.1362Z" fill="#263238"/>
<path d="M83.5383 68.7031C81.9717 68.6262 80.4114 68.4509 78.8667 68.1784C77.3073 68.004 75.7603 67.7326 74.2346 67.3659C75.8013 67.4428 77.3615 67.6181 78.9062 67.8906C80.4657 68.0643 82.0128 68.3357 83.5383 68.7031Z" fill="#263238"/>
<path d="M80.582 79.9872C80.8029 79.0308 81.2652 78.147 81.9248 77.4201C82.5099 76.6278 83.2864 75.9969 84.1817 75.5864C83.4742 76.2226 82.8 76.8949 82.1618 77.6006C81.5951 78.3688 81.0678 79.1654 80.582 79.9872Z" fill="#263238"/>
<path d="M90.9292 81.3751C90.736 81.0392 90.5952 80.6758 90.5117 80.2975C90.2467 79.4063 90.0449 78.4976 89.908 77.578C89.7685 76.659 89.6931 75.7315 89.6823 74.8021C89.6585 74.4241 89.685 74.0447 89.7613 73.6737C89.8515 73.6737 89.8741 75.4284 90.1957 77.5554C90.5173 79.6825 91.0138 81.3469 90.9292 81.3751Z" fill="#263238"/>
<path d="M91.7926 81.031C91.637 80.6715 91.5344 80.2914 91.4879 79.9025C91.3412 79.2029 91.1832 78.2099 91.0647 77.1492C90.9462 76.0885 90.9068 75.0786 90.9011 74.3677C90.8754 73.9902 90.8981 73.611 90.9688 73.2393C91.0534 73.2393 91.1324 74.994 91.3581 77.1436C91.5838 79.2932 91.8772 81.014 91.7926 81.031Z" fill="#263238"/>
<path d="M125.769 64.8665C125.769 64.8665 123.168 63.5237 119.597 65.5887L117.904 66.2601L118.468 68.342L125.769 64.8665Z" fill="#EBEBEB"/>
<path d="M119.794 69.5607C120.401 68.321 121.335 67.2712 122.496 66.5253C122.73 66.412 122.971 66.3158 123.219 66.2375C124.042 65.9526 124.904 65.7929 125.774 65.7636V64.8665C124.924 64.5863 124.015 64.5359 123.139 64.7201C122.264 64.9044 121.452 65.317 120.787 65.9159C118.022 68.201 118.603 69.6961 118.603 69.6961L119.732 69.572" fill="#D2D2D1"/>
<path d="M109.153 65.8088C109.153 65.8088 115.089 63.5971 116.2 63.6648C116.905 63.7043 117.233 63.6648 117.769 65.0922C118.305 66.5197 118.897 68.5734 118.897 68.5734L102.473 76.7882L102.405 73.5779L105.001 67.3208L109.153 65.8088Z" fill="#263238"/>
<path d="M105.3 69.0529L113.65 66.294C113.65 66.294 115.01 63.9807 116.381 64.1387C117.752 64.2967 118.152 66.2093 118.152 66.2093C118.152 66.2093 117.532 63.1062 115.997 63.3883C114.869 63.5914 109.153 65.8144 109.153 65.8144L105.413 68.9626" fill="#EBEBEB"/>
<path d="M118.869 68.5733L119.799 69.5607L103.742 77.8037L102.445 76.7881L118.869 68.5733Z" fill="#D2D2D1"/>
<path d="M109.638 65.3968L105.3 69.0529L108.95 67.8455C108.87 68.7883 108.432 69.6647 107.726 70.2941C107.726 70.2941 108.16 71.6595 107.286 72.1955C107.286 72.1955 107.568 72.991 106.253 73.8542C105.195 74.4666 104.055 74.9263 102.868 75.2196L100.199 75.5356C99.3152 74.5272 98.8017 73.2475 98.7436 71.9077C98.6759 69.7243 99.0257 69.4196 99.0257 69.4196C99.1272 69.1544 101.531 66.0852 102.101 65.961C102.67 65.8369 105.328 66.5534 105.328 66.5534L107.404 65.6282C107.404 65.6282 108.685 64.9455 108.995 65.0245C109.001 65.0245 109.61 65.1147 109.638 65.3968Z" fill="#D2D2D1"/>
<path d="M105.333 66.5535C104.932 66.859 104.477 67.085 103.991 67.2192C103.537 67.4407 103.044 67.571 102.541 67.6029C102.942 67.2993 103.398 67.0752 103.883 66.9428C104.338 66.7236 104.83 66.5916 105.333 66.5535Z" fill="#D2D2D1"/>
<path d="M107.749 70.2208C107.794 70.2885 107.41 70.5875 106.88 70.8414C106.349 71.0953 105.921 71.2646 105.875 71.1969C105.83 71.1291 106.22 70.8301 106.75 70.5762C107.28 70.3223 107.709 70.1531 107.749 70.2208Z" fill="#D2D2D1"/>
<path d="M105.847 72.929C105.813 72.8556 106.106 72.6299 106.501 72.4268C106.896 72.2237 107.246 72.1221 107.286 72.1955C107.325 72.2688 107.032 72.4889 106.631 72.692C106.231 72.8951 105.881 73.0023 105.847 72.929Z" fill="#D2D2D1"/>
<path d="M119.8 69.5607C119.8 69.5607 119.692 69.4817 119.523 69.3011L118.795 68.5169C118.507 67.4453 118.102 66.4085 117.588 65.4251C117.42 65.1247 117.213 64.8477 116.973 64.6013C116.855 64.4795 116.706 64.3913 116.543 64.3457C116.379 64.3001 116.206 64.2988 116.042 64.3418C115.305 64.6243 114.673 65.1266 114.231 65.7805C114.09 65.9611 113.955 66.1472 113.842 66.3447L113.813 66.3898H113.763C111.433 67.1797 109.345 67.8737 107.839 68.3589L106.05 68.9231C105.837 69.0044 105.616 69.0612 105.39 69.0924C105.589 68.9807 105.799 68.8899 106.016 68.8216L107.771 68.1727C109.266 67.6367 111.342 66.9146 113.667 66.1134L113.593 66.1755C113.718 65.9893 113.853 65.7974 114 65.6113C114.48 64.8996 115.176 64.3615 115.986 64.0766C116.091 64.0539 116.199 64.0426 116.307 64.0428C116.415 64.0495 116.523 64.0646 116.629 64.0879C116.727 64.1292 116.824 64.1763 116.917 64.229L117.159 64.4151C117.418 64.6823 117.638 64.9842 117.814 65.3122C118.322 66.3214 118.701 67.3905 118.942 68.4943V68.4605L119.613 69.2955C119.738 69.4422 119.811 69.5494 119.8 69.5607Z" fill="#263238"/>
<path d="M118.818 68.2968C118.621 68.4396 118.411 68.5642 118.192 68.6692L116.442 69.5889L110.648 72.5791L104.865 75.592L103.105 76.4891C102.895 76.6097 102.674 76.7099 102.445 76.7881C102.632 76.6336 102.836 76.5011 103.054 76.3932C103.455 76.1505 104.041 75.8289 104.747 75.4058C106.202 74.5933 108.233 73.4931 110.496 72.3196C112.758 71.1461 114.823 70.1248 116.33 69.4027C117.08 69.0416 117.689 68.7538 118.118 68.562C118.34 68.4468 118.575 68.3578 118.818 68.2968Z" fill="#263238"/>
<path d="M111.043 70.5706C111.043 70.5706 110.225 70.6496 110.344 71.3944L110.468 72.1448C110.468 72.1448 109.475 70.5593 109.339 70.2152C108.973 69.2052 108.087 69.713 108.262 70.6101C108.307 70.8414 108.403 71.7893 108.403 71.7893C108.403 71.7893 108.194 71.479 107.664 71.8852C107.485 72.296 107.352 72.7256 107.269 73.166L106.247 73.8543C106.227 74.2926 106.257 74.7319 106.338 75.1632C106.434 75.5615 106.681 75.9071 107.026 76.128C107.184 76.2522 109.029 77.6796 109.582 77.578C110.135 77.4765 110.535 76.9687 110.513 76.7712C110.49 76.5738 111.337 76.7712 111.726 76.3932C112.115 76.0152 112.138 75.9531 112.16 75.829C112.183 75.7049 113.108 75.451 113.396 75.1181C113.684 74.7852 113.633 74.5539 113.633 74.5539C113.633 74.5539 114.462 74.3 114.637 73.7866C114.821 73.4653 114.881 73.0883 114.806 72.7259L114.682 72.1617L114.011 72.5058L112.612 71.8175C112.612 71.8175 111.551 70.3506 111.043 70.5706Z" fill="#D2D2D1"/>
<path d="M112.877 74.2097C111.696 73.7484 110.732 72.8576 110.18 71.7159C110.254 71.6708 110.744 72.3253 111.495 73.0023C111.976 73.3805 112.438 73.7835 112.877 74.2097Z" fill="#D2D2D1"/>
<path d="M110.891 75.0504C110.294 74.6849 109.784 74.194 109.396 73.6117C108.937 73.0841 108.6 72.4619 108.408 71.7893C108.849 72.3117 109.258 72.86 109.633 73.4311C110.088 73.9424 110.508 74.4833 110.891 75.0504Z" fill="#D2D2D1"/>
<path d="M109.864 76.0885C109.864 76.1224 109.616 76.0885 109.249 75.987C108.764 75.8165 108.33 75.5275 107.985 75.1463C107.642 74.7624 107.405 74.2957 107.297 73.7922C107.218 73.4085 107.241 73.1659 107.297 73.1659C107.509 73.8066 107.823 74.4087 108.228 74.9488C108.714 75.4069 109.266 75.7909 109.864 76.0885Z" fill="#D2D2D1"/>
<path d="M337.227 150.377H229.554V155.246H337.227V150.377Z" fill="#9E9E9E"/>
<path d="M238.028 155.246H234.502V220H238.028V155.246Z" fill="#7E7E7E"/>
<path d="M326.947 155.246H323.42V220H326.947V155.246Z" fill="#7E7E7E"/>
<path d="M323.426 170.627H237.972V197.33H323.426V170.627Z" fill="#9E9E9E"/>
<path d="M323.426 160.048H238.029V163.828H323.426V160.048Z" fill="#9E9E9E"/>
<path d="M301.8 141.982H259.648C259.116 141.982 258.684 142.414 258.684 142.947V159.083C258.684 159.616 259.116 160.048 259.648 160.048H301.8C302.333 160.048 302.765 159.616 302.765 159.083V142.947C302.765 142.414 302.333 141.982 301.8 141.982Z" fill="#9E9E9E"/>
<path d="M301.8 141.982H259.648C259.116 141.982 258.684 142.414 258.684 142.947V159.083C258.684 159.616 259.116 160.048 259.648 160.048H301.8C302.333 160.048 302.765 159.616 302.765 159.083V142.947C302.765 142.414 302.333 141.982 301.8 141.982Z" fill="#9E9E9E"/>
<g opacity="0.4">
<path d="M301.8 141.982H259.648C259.116 141.982 258.684 142.414 258.684 142.947V159.083C258.684 159.616 259.116 160.048 259.648 160.048H301.8C302.333 160.048 302.765 159.616 302.765 159.083V142.947C302.765 142.414 302.333 141.982 301.8 141.982Z" fill="black"/>
</g>
<path d="M298.635 188.512H262.159C260.79 188.512 259.476 187.968 258.507 187C257.538 186.032 256.993 184.719 256.991 183.349C256.991 182.671 257.125 181.999 257.385 181.372C257.645 180.746 258.025 180.176 258.505 179.697C258.985 179.217 259.555 178.837 260.182 178.578C260.809 178.319 261.481 178.186 262.159 178.187H298.635C300.004 178.187 301.317 178.731 302.286 179.699C303.254 180.667 303.798 181.98 303.798 183.349C303.798 184.718 303.254 186.032 302.286 187C301.317 187.968 300.004 188.512 298.635 188.512Z" fill="#9E9E9E"/>
<g opacity="0.4">
<path d="M298.635 188.512H262.159C260.79 188.512 259.476 187.968 258.507 187C257.538 186.032 256.993 184.719 256.991 183.349C256.991 182.671 257.125 181.999 257.385 181.372C257.645 180.746 258.025 180.176 258.505 179.697C258.985 179.217 259.555 178.837 260.182 178.578C260.809 178.319 261.481 178.186 262.159 178.187H298.635C300.004 178.187 301.317 178.731 302.286 179.699C303.254 180.667 303.798 181.98 303.798 183.349C303.798 184.718 303.254 186.032 302.286 187C301.317 187.968 300.004 188.512 298.635 188.512Z" fill="black"/>
</g>
<path d="M263.97 220H261.2V140.272C261.202 139.905 261.349 139.554 261.609 139.295C261.869 139.035 262.221 138.89 262.588 138.89C262.955 138.89 263.306 139.036 263.566 139.295C263.825 139.554 263.97 139.906 263.97 140.272V220Z" fill="#E0E0E0"/>
<path d="M263.971 220C263.971 220 263.971 219.848 263.971 219.56C263.971 219.272 263.971 218.843 263.971 218.29C263.971 217.162 263.971 215.526 263.971 213.416C263.971 209.19 263.943 203.091 263.926 195.553C263.909 188.015 263.926 179.05 263.88 169.098C263.88 164.121 263.88 158.897 263.88 153.48V145.226C263.88 143.827 263.88 142.418 263.88 141C263.898 140.658 263.887 140.314 263.847 139.973C263.807 139.817 263.736 139.671 263.639 139.542C263.542 139.413 263.421 139.305 263.282 139.223C263.007 139.052 262.675 138.997 262.359 139.067C262.043 139.138 261.767 139.329 261.59 139.601C261.44 139.836 261.369 140.113 261.387 140.391V153.768C261.387 158.411 261.387 162.919 261.387 167.264C261.387 175.947 261.387 183.97 261.387 191.045C261.347 205.184 261.319 215.548 261.308 220L261.268 219.966H263.356H264.038C264.038 219.966 263.835 219.966 263.378 219.966H261.268H261.234V219.927C261.234 215.475 261.195 205.111 261.155 190.972C261.155 183.897 261.155 175.874 261.155 167.19C261.155 162.846 261.155 158.338 261.155 153.695C261.155 151.376 261.155 149.017 261.155 146.637V140.317C261.14 139.984 261.226 139.653 261.404 139.37C261.565 139.118 261.797 138.92 262.07 138.799C262.344 138.678 262.646 138.64 262.941 138.689C263.236 138.739 263.509 138.873 263.729 139.076C263.948 139.279 264.103 139.542 264.174 139.832C264.225 140.195 264.24 140.561 264.219 140.927V153.441C264.219 158.874 264.219 164.11 264.219 169.098C264.219 179.067 264.185 188.043 264.174 195.587C264.163 203.13 264.14 209.201 264.129 213.421C264.129 215.515 264.129 217.139 264.129 218.257C264.129 218.821 264.129 219.216 264.129 219.509C264.129 219.803 263.971 220 263.971 220Z" fill="#7E7E7E"/>
<path d="M300.119 220H297.371V140.272C297.373 139.905 297.52 139.554 297.78 139.295C298.04 139.035 298.392 138.89 298.759 138.89C299.126 138.89 299.477 139.036 299.737 139.295C299.996 139.554 300.142 139.906 300.142 140.272L300.119 220Z" fill="#E0E0E0"/>
<path d="M300.119 220C300.119 220 300.119 219.848 300.119 219.56C300.119 219.272 300.119 218.843 300.119 218.29C300.119 217.162 300.119 215.526 300.119 213.416C300.119 209.19 300.119 203.091 300.074 195.553C300.029 188.015 300.046 179.05 300.029 169.098C300.029 164.121 300.029 158.897 300.029 153.48V145.226C300.029 143.827 300.029 142.405 300.029 141C300.047 140.658 300.035 140.314 299.995 139.973C299.955 139.817 299.884 139.671 299.787 139.542C299.691 139.413 299.569 139.305 299.431 139.223C299.155 139.052 298.824 138.997 298.507 139.067C298.191 139.138 297.915 139.329 297.738 139.601C297.588 139.836 297.517 140.113 297.535 140.391V153.768C297.535 158.411 297.535 162.919 297.535 167.264C297.535 175.947 297.535 183.97 297.535 191.045C297.495 205.184 297.467 215.548 297.456 220L297.416 219.966H299.504H300.187C300.187 219.966 299.978 219.966 299.527 219.966H297.416H297.383V219.927C297.383 215.475 297.343 205.111 297.304 190.972C297.304 183.897 297.304 175.874 297.304 167.19C297.304 162.846 297.304 158.338 297.304 153.695C297.304 151.376 297.304 149.017 297.304 146.637V140.317C297.288 139.984 297.375 139.653 297.552 139.37C297.714 139.118 297.945 138.92 298.219 138.799C298.492 138.678 298.794 138.64 299.089 138.689C299.384 138.739 299.658 138.873 299.877 139.076C300.096 139.279 300.251 139.542 300.322 139.832C300.373 140.195 300.388 140.561 300.367 140.927V153.441C300.367 158.874 300.367 164.11 300.367 169.098C300.367 179.067 300.333 188.043 300.322 195.587C300.311 203.13 300.288 209.201 300.277 213.421C300.277 215.515 300.277 217.139 300.277 218.257C300.277 218.821 300.277 219.216 300.277 219.509C300.277 219.803 300.119 220 300.119 220Z" fill="#7E7E7E"/>
<path d="M211.139 150.377H103.466V155.246H211.139V150.377Z" fill="#9E9E9E"/>
<path d="M111.94 155.246H108.414V220H111.94V155.246Z" fill="#7E7E7E"/>
<path d="M200.864 155.246H197.338V220H200.864V155.246Z" fill="#7E7E7E"/>
<path d="M197.338 170.627H111.884V197.33H197.338V170.627Z" fill="#9E9E9E"/>
<path d="M197.338 160.048H111.94V163.828H197.338V160.048Z" fill="#9E9E9E"/>
<path d="M175.712 141.982H133.561C133.028 141.982 132.596 142.414 132.596 142.947V159.083C132.596 159.616 133.028 160.048 133.561 160.048H175.712C176.245 160.048 176.677 159.616 176.677 159.083V142.947C176.677 142.414 176.245 141.982 175.712 141.982Z" fill="#9E9E9E"/>
<path d="M175.712 141.982H133.561C133.028 141.982 132.596 142.414 132.596 142.947V159.083C132.596 159.616 133.028 160.048 133.561 160.048H175.712C176.245 160.048 176.677 159.616 176.677 159.083V142.947C176.677 142.414 176.245 141.982 175.712 141.982Z" fill="#9E9E9E"/>
<g opacity="0.4">
<path d="M175.712 141.982H133.561C133.028 141.982 132.596 142.414 132.596 142.947V159.083C132.596 159.616 133.028 160.048 133.561 160.048H175.712C176.245 160.048 176.677 159.616 176.677 159.083V142.947C176.677 142.414 176.245 141.982 175.712 141.982Z" fill="black"/>
</g>
<path d="M172.547 188.512H136.072C134.706 188.506 133.399 187.959 132.436 186.992C131.472 186.024 130.932 184.715 130.932 183.349C130.932 181.98 131.476 180.667 132.444 179.699C133.412 178.731 134.725 178.187 136.094 178.187H172.57C173.248 178.186 173.92 178.319 174.546 178.578C175.173 178.838 175.742 179.218 176.222 179.697C176.701 180.177 177.082 180.746 177.341 181.373C177.6 182 177.733 182.671 177.732 183.349C177.732 184.029 177.598 184.702 177.337 185.33C177.076 185.958 176.694 186.528 176.212 187.008C175.731 187.487 175.159 187.867 174.53 188.125C173.901 188.383 173.227 188.515 172.547 188.512Z" fill="#9E9E9E"/>
<g opacity="0.4">
<path d="M172.547 188.512H136.072C134.706 188.506 133.399 187.959 132.436 186.992C131.472 186.024 130.932 184.715 130.932 183.349C130.932 181.98 131.476 180.667 132.444 179.699C133.412 178.731 134.725 178.187 136.094 178.187H172.57C173.248 178.186 173.92 178.319 174.546 178.578C175.173 178.838 175.742 179.218 176.222 179.697C176.701 180.177 177.082 180.746 177.341 181.373C177.6 182 177.733 182.671 177.732 183.349C177.732 184.029 177.598 184.702 177.337 185.33C177.076 185.958 176.694 186.528 176.212 187.008C175.731 187.487 175.159 187.867 174.53 188.125C173.901 188.383 173.227 188.515 172.547 188.512Z" fill="black"/>
</g>
<path d="M137.888 220H135.118V140.272C135.118 139.906 135.263 139.554 135.523 139.295C135.782 139.036 136.133 138.89 136.5 138.89C136.867 138.89 137.219 139.036 137.479 139.295C137.74 139.554 137.886 139.905 137.888 140.272V220Z" fill="#E0E0E0"/>
<path d="M137.888 220C137.888 220 137.888 219.848 137.888 219.56C137.888 219.272 137.888 218.843 137.888 218.29C137.888 217.162 137.888 215.526 137.888 213.416C137.888 209.19 137.888 203.091 137.843 195.553C137.798 188.015 137.815 179.05 137.803 169.098C137.803 164.121 137.803 158.897 137.803 153.48V141C137.82 140.657 137.806 140.314 137.764 139.973C137.724 139.817 137.654 139.67 137.557 139.541C137.46 139.412 137.339 139.304 137.2 139.223C136.924 139.054 136.593 138.999 136.277 139.069C135.961 139.14 135.685 139.331 135.507 139.601C135.359 139.837 135.29 140.113 135.31 140.391V146.71C135.31 149.091 135.31 151.449 135.31 153.768C135.31 158.412 135.31 162.92 135.31 167.264C135.31 175.947 135.31 183.97 135.31 191.045C135.27 205.184 135.242 215.548 135.231 220L135.197 219.966H137.284H137.967C137.967 219.966 137.758 219.966 137.301 219.966H135.197H135.157V219.927C135.157 215.475 135.118 205.111 135.078 190.972C135.078 183.897 135.078 175.874 135.078 167.191C135.078 162.846 135.078 158.338 135.078 153.695V140.391C135.058 140.057 135.142 139.726 135.321 139.443C135.484 139.192 135.716 138.995 135.989 138.874C136.263 138.754 136.566 138.716 136.86 138.765C137.155 138.814 137.429 138.948 137.649 139.151C137.868 139.353 138.024 139.616 138.097 139.906C138.145 140.268 138.16 140.635 138.142 141V145.237C138.142 148.043 138.142 150.802 138.142 153.514C138.142 158.948 138.142 164.183 138.142 169.171C138.142 179.14 138.114 188.117 138.097 195.66C138.08 203.204 138.063 209.274 138.052 213.495C138.052 215.588 138.052 217.213 138.052 218.33C138.052 218.894 138.052 219.289 138.052 219.583C138.052 219.876 137.888 220 137.888 220Z" fill="#7E7E7E"/>
<path d="M174.036 220H171.266V140.272C171.266 139.906 171.412 139.554 171.671 139.295C171.93 139.036 172.282 138.89 172.648 138.89C173.016 138.89 173.368 139.036 173.628 139.295C173.888 139.554 174.035 139.905 174.036 140.272V220Z" fill="#E0E0E0"/>
<path d="M174.036 220C174.036 220 174.036 219.848 174.036 219.56C174.036 219.272 174.036 218.843 174.036 218.291C174.036 217.162 174.036 215.526 174.036 213.416C174.036 209.19 174.008 203.091 173.991 195.553C173.974 188.015 173.963 179.05 173.952 169.098C173.952 164.121 173.952 158.897 173.952 153.48V141C173.968 140.657 173.955 140.314 173.912 139.973C173.873 139.817 173.803 139.67 173.706 139.541C173.609 139.413 173.487 139.304 173.348 139.223C173.072 139.054 172.741 138.999 172.425 139.07C172.109 139.14 171.833 139.331 171.655 139.601C171.508 139.837 171.439 140.113 171.458 140.391V146.71C171.458 149.091 171.458 151.449 171.458 153.768C171.458 158.412 171.458 162.92 171.458 167.264C171.458 175.947 171.458 183.97 171.458 191.045C171.419 205.184 171.39 215.548 171.379 220L171.345 219.966H173.433H174.115C174.115 219.966 173.907 219.966 173.45 219.966H171.345H171.306V219.927C171.306 215.475 171.266 205.111 171.227 190.972C171.227 183.897 171.227 175.874 171.227 167.191C171.227 162.846 171.227 158.338 171.227 153.695V140.391C171.206 140.057 171.291 139.726 171.469 139.443C171.686 139.105 172.027 138.866 172.419 138.777C172.81 138.688 173.221 138.757 173.562 138.969C173.902 139.18 174.146 139.517 174.24 139.906C174.292 140.268 174.309 140.635 174.29 141V145.237C174.29 148.043 174.29 150.802 174.29 153.514C174.29 158.948 174.29 164.183 174.29 169.171C174.29 179.14 174.256 188.117 174.245 195.66C174.234 203.204 174.211 209.275 174.2 213.495C174.2 215.588 174.2 217.213 174.2 218.33C174.2 218.894 174.2 219.289 174.2 219.583C174.2 219.876 174.036 220 174.036 220Z" fill="#7E7E7E"/>
</g>
</svg>
