<svg width="57" height="56" viewBox="0 0 57 56" fill="none" xmlns="http://www.w3.org/2000/svg">
<rect x="0.5" width="56" height="56" rx="28" fill="#F4F7FF"/>
<rect x="8.5" y="8" width="40" height="40" rx="20" fill="#E2EAFE"/>
<path d="M37.082 19.0178L37.1081 19.7674L37.082 19.0178ZM33.5 19.4875L33.2849 18.769V18.769L33.5 19.4875ZM30.6738 20.8028L30.2982 20.1537L30.2982 20.1537L30.6738 20.8028ZM20.9824 19.075L20.9364 19.8236L20.9824 19.075ZM24 19.4875L24.1914 18.7624V18.7624L24 19.4875ZM27.2823 20.8756L26.9317 21.5386L27.2823 20.8756ZM30.6276 36.0693L30.9804 36.7312L30.6276 36.0693ZM34 34.6335L33.8086 33.9083H33.8086L34 34.6335ZM36.9851 34.2229L37.032 34.9714L36.9851 34.2229ZM27.3724 36.0693L27.0196 36.7312H27.0196L27.3724 36.0693ZM24 34.6335L24.1914 33.9083H24.1914L24 34.6335ZM21.0149 34.2229L20.968 34.9714H20.968L21.0149 34.2229ZM19.75 32.1437V20.9979H18.25V32.1437H19.75ZM39.75 32.1437V20.9333H38.25V32.1437H39.75ZM37.0559 18.2683C35.9175 18.3079 34.4296 18.4264 33.2849 18.769L33.7151 20.206C34.6643 19.9219 35.9892 19.8064 37.1081 19.7674L37.0559 18.2683ZM33.2849 18.769C32.2899 19.0669 31.1706 19.6488 30.2982 20.1537L31.0495 21.452C31.9 20.9598 32.8949 20.4516 33.7151 20.206L33.2849 18.769ZM20.9364 19.8236C21.9024 19.8829 22.9964 19.9984 23.8086 20.2127L24.1914 18.7624C23.2305 18.5088 22.0152 18.387 21.0284 18.3264L20.9364 19.8236ZM23.8086 20.2127C24.7708 20.4666 25.9549 21.0221 26.9317 21.5386L27.6328 20.2125C26.6374 19.6861 25.3277 19.0622 24.1914 18.7624L23.8086 20.2127ZM30.9804 36.7312C31.9714 36.2029 33.1988 35.6205 34.1914 35.3586L33.8086 33.9083C32.6383 34.2171 31.2827 34.8702 30.2748 35.4075L30.9804 36.7312ZM34.1914 35.3586C34.9943 35.1467 36.0732 35.0314 37.032 34.9714L36.9383 33.4744C35.9582 33.5357 34.7591 33.6575 33.8086 33.9083L34.1914 35.3586ZM27.7252 35.4075C26.7173 34.8702 25.3617 34.2171 24.1914 33.9083L23.8086 35.3586C24.8012 35.6205 26.0286 36.2029 27.0196 36.7312L27.7252 35.4075ZM24.1914 33.9083C23.2409 33.6575 22.0418 33.5357 21.0617 33.4744L20.968 34.9714C21.9268 35.0314 23.0057 35.1467 23.8086 35.3586L24.1914 33.9083ZM38.25 32.1437C38.25 32.8294 37.6817 33.4279 36.9383 33.4744L37.032 34.9714C38.5062 34.8792 39.75 33.6799 39.75 32.1437H38.25ZM39.75 20.9333C39.75 19.47 38.5847 18.215 37.0559 18.2683L37.1081 19.7674C37.7229 19.746 38.25 20.2517 38.25 20.9333H39.75ZM18.25 32.1437C18.25 33.6799 19.4938 34.8792 20.968 34.9714L21.0617 33.4744C20.3183 33.4279 19.75 32.8294 19.75 32.1437H18.25ZM30.2748 35.4075C29.4825 35.8298 28.5175 35.8298 27.7252 35.4075L27.0196 36.7312C28.2529 37.3886 29.7471 37.3886 30.9804 36.7312L30.2748 35.4075ZM30.2982 20.1537C29.4801 20.6272 28.4617 20.6508 27.6328 20.2125L26.9317 21.5386C28.2239 22.2219 29.791 22.1803 31.0495 21.452L30.2982 20.1537ZM19.75 20.9979C19.75 20.3007 20.3024 19.7846 20.9364 19.8236L21.0284 18.3264C19.4702 18.2306 18.25 19.4987 18.25 20.9979H19.75Z" fill="#183DA7"/>
<path d="M29 21.854V36.9999" stroke="#183DA7" stroke-width="1.5"/>
<path d="M22 25L26 26" stroke="#183DA7" stroke-width="1.5" stroke-linecap="round"/>
<path d="M36 25L32 26" stroke="#183DA7" stroke-width="1.5" stroke-linecap="round"/>
<path d="M22 29L26 30" stroke="#183DA7" stroke-width="1.5" stroke-linecap="round"/>
<path d="M36 29L32 30" stroke="#183DA7" stroke-width="1.5" stroke-linecap="round"/>
</svg>
