<svg width="21" height="20" viewBox="0 0 21 20" fill="none" xmlns="http://www.w3.org/2000/svg">
<path d="M19.9502 18.2924C20.0432 18.3854 20.1169 18.4957 20.1671 18.6171C20.2174 18.7384 20.2433 18.8686 20.2433 18.9999C20.2433 19.1313 20.2174 19.2614 20.1671 19.3828C20.1169 19.5042 20.0432 19.6145 19.9502 19.7074C19.8573 19.8004 19.747 19.8741 19.6256 19.9243C19.5042 19.9746 19.3741 20.0005 19.2427 20.0005C19.1113 20.0005 18.9812 19.9746 18.8598 19.9243C18.7385 19.8741 18.6282 19.8004 18.5352 19.7074L10.2427 11.4137L1.95024 19.7074C1.7626 19.8951 1.50811 20.0005 1.24274 20.0005C0.97738 20.0005 0.722884 19.8951 0.535244 19.7074C0.347603 19.5198 0.242188 19.2653 0.242188 18.9999C0.242187 18.7346 0.347603 18.4801 0.535244 18.2924L8.82899 9.99995L0.535244 1.70745C0.347603 1.5198 0.242188 1.26531 0.242188 0.999946C0.242188 0.734582 0.347603 0.480086 0.535244 0.292446C0.722884 0.104805 0.97738 -0.000610352 1.24274 -0.000610352C1.50811 -0.000610352 1.7626 0.104805 1.95024 0.292446L10.2427 8.5862L18.5352 0.292446C18.7229 0.104805 18.9774 -0.000610357 19.2427 -0.000610352C19.5081 -0.000610346 19.7626 0.104805 19.9502 0.292446C20.1379 0.480086 20.2433 0.734582 20.2433 0.999946C20.2433 1.26531 20.1379 1.5198 19.9502 1.70745L11.6565 9.99995L19.9502 18.2924Z" fill="#505050"/>
</svg>
